<svg viewBox="114.97499999999991 122.42696629213481 753.7250000000001 663.1460674157305" fill="none" xmlns="http://www.w3.org/2000/svg" xmlns:xlink="http://www.w3.org/1999/xlink" overflow="visible" width="753.7250000000001px" height="663.1460674157305px"><g id="Master/Scenes/Life Management"><g id="Background" transform="translate(271 173) scale(1 1)"><g id="Background/1"><path id="Fill 3" fill-rule="evenodd" clip-rule="evenodd" d="M401.585 21.6223C324.481 -31.5289 222.87 16.9322 174.633 129.863L174.597 129.947C172.327 135.265 168.47 139.362 163.384 141.797C138.795 153.569 115.027 169.313 93.1804 188.984C-8.18827 280.257 -29.8672 421.435 44.7573 504.314C119.382 587.193 262.052 580.389 363.421 489.117C415.428 442.289 446.46 382.325 454.271 323.837C454.585 321.484 455.157 319.254 455.993 317.194C501.368 205.349 477.522 73.9681 401.585 21.6223" fill="black" fill-opacity="0.04"/></g></g><g id="Group 80"><g id="Group 5"><path id="Fill 3" fill-rule="evenodd" clip-rule="evenodd" d="M451.55 143.088C451.59 143.026 451.63 142.963 451.671 142.901C454.948 137.963 460.341 138.319 465.563 138.073C472.075 137.766 478.578 137.11 484.744 134.861C494.764 131.207 504.837 125.902 515.846 127.199C524.239 128.187 529.097 133.967 528.893 142.408C528.883 142.817 528.863 143.224 528.834 143.631C528.81 143.984 532.831 146.746 533.254 147.145C535.16 148.947 537.023 151.063 538.254 153.394C544.056 164.377 538.72 177.489 532.706 187.096C532.409 187.569 529.195 192.207 529.254 192.266C526.868 189.932 525.688 189.239 522.239 183.417C524.943 181.295 525.984 177.634 525.651 175.478C525.205 172.598 523.592 170.194 516.727 172.15C515.547 170.837 514.121 167.085 513.028 163.959C512.36 162.052 512.091 160.325 511.989 158.975C504.113 163.083 497.202 165.142 492.468 166.243C478.101 169.588 454.976 171.776 450.243 153.105C449.393 149.749 449.702 146.008 451.55 143.088" fill="black"/></g><path id="Stroke 6" d="M530.435 185.756C531.263 185.776 531.918 186.464 531.898 187.292C531.799 191.297 531.026 195.399 529.402 199.47C526.726 206.186 522.66 210.957 517.977 214.537L517.787 214.68L517.788 235.514C517.788 235.922 517.622 236.31 517.333 236.591L517.218 236.691L501.888 248.812C501.367 249.224 500.642 249.241 500.105 248.87L499.985 248.777L485.765 236.656C485.468 236.403 485.283 236.045 485.245 235.66L485.238 235.514V221.867C485.238 221.039 485.91 220.367 486.738 220.367C487.518 220.367 488.158 220.962 488.231 221.723L488.238 221.867L488.237 234.821L500.993 245.694L514.787 234.788L514.788 213.925C514.788 213.498 514.97 213.094 515.284 212.811L515.407 212.711C520.008 209.373 524.026 204.857 526.615 198.358C528.101 194.634 528.808 190.882 528.898 187.218C528.919 186.39 529.607 185.735 530.435 185.756Z" fill="black"/><path id="Stroke 8" d="M515.876 234.073C516.626 233.86 517.404 234.258 517.681 234.971L517.727 235.108L524.705 259.774C525.058 261.019 523.783 262.073 522.644 261.549L522.527 261.489L500.962 249.357L479.657 261.486C478.509 262.139 477.163 261.101 477.451 259.854L477.485 259.729L485.305 235.063C485.556 234.273 486.399 233.836 487.188 234.086C487.932 234.322 488.363 235.083 488.202 235.83L488.165 235.969L481.502 256.982L500.216 246.33C500.628 246.096 501.123 246.071 501.553 246.257L501.694 246.327L520.828 257.091L514.841 235.924C514.628 235.174 515.026 234.396 515.739 234.119L515.876 234.073Z" fill="black"/><path id="Stroke 10" d="M486.069 230.542C486.811 230.173 487.711 230.475 488.081 231.216C488.45 231.958 488.148 232.858 487.407 233.228L485.136 234.342C482.899 235.427 479.987 236.807 476.071 238.643L447.282 252.077L446.019 252.679L445.395 253.555C443.081 256.736 437.932 263.255 428.119 275.499L409.662 298.519L406.919 301.972L407.542 302.738C410.31 306.125 413.166 309.493 416.115 312.843L417.598 314.517C421.339 318.713 425.142 322.776 429.003 326.716L429.479 327.199L441.346 312.329C442.255 311.19 444.091 311.887 444.016 313.343L436.617 456.865L526.118 456.865C526.898 456.865 527.538 457.46 527.611 458.221L527.618 458.365C527.618 459.145 527.023 459.786 526.263 459.858L526.118 459.865H435.038C434.179 459.865 433.496 459.146 433.54 458.288L440.779 317.849L430.768 330.391C430.209 331.091 429.164 331.147 428.533 330.511C424.063 326.01 419.671 321.35 415.358 316.513C411.352 312.017 407.513 307.489 403.831 302.927C403.391 302.382 403.387 301.605 403.821 301.055L411.287 291.682L430.786 267.363C438.548 257.641 442.379 252.72 443.767 250.66C443.917 250.438 444.123 250.26 444.364 250.145L451.528 246.768L474.78 235.935C480.169 233.409 483.649 231.748 486.069 230.542Z" fill="black"/><path id="Stroke 12" d="M514.919 229.162C515.237 228.45 516.042 228.109 516.766 228.353L516.901 228.406L561.003 248.143C561.27 248.262 561.495 248.457 561.652 248.701L561.725 248.827L593.513 310.83C593.822 311.435 593.686 312.165 593.195 312.617L593.085 312.71L590.174 314.919L590.055 315.019L565.156 333.939C564.485 334.449 563.537 334.303 563.045 333.641L562.963 333.519L549.968 311.971L555.168 404.225C555.168 405.053 554.496 405.725 553.668 405.725C552.888 405.725 552.247 405.13 552.175 404.369L546.633 306.104C546.548 304.59 548.484 303.945 549.339 305.129L549.415 305.245L564.669 330.539L588.126 312.717L588.241 312.62L590.269 311.08L559.296 250.666L515.675 231.144C514.963 230.825 514.622 230.021 514.866 229.297L514.919 229.162Z" fill="black"/><path id="Stroke 14" d="M589.149 312.314C589.782 312.314 590.324 312.707 590.544 313.262L590.561 313.313L604.416 346.577C605.932 350.213 605.728 354.331 603.876 357.792L603.691 358.125L544.411 461.598C541.294 467.04 534.588 469.239 528.871 466.744L528.581 466.613L527.549 466.131C525.047 464.963 523.937 462.03 525.001 459.511L525.095 459.302L531.543 445.744L527.121 445.744C524.623 445.744 522.584 443.776 522.472 441.305L522.468 441.092C522.468 439.255 523.548 437.597 525.213 436.847L525.416 436.762L539.911 431.051L552.27 403.664L552.3 403.588L576.452 350.015L565.584 331.504C565.189 330.831 565.378 329.978 565.997 329.53L566.118 329.451C566.791 329.056 567.644 329.245 568.092 329.864L568.171 329.985L579.431 349.166C579.65 349.539 579.696 349.986 579.563 350.392L579.505 350.542L555.06 404.765L555.035 404.832L542.395 432.841C542.254 433.153 542.012 433.406 541.71 433.56L541.577 433.62L526.517 439.553C525.883 439.803 525.468 440.413 525.468 441.092C525.468 441.957 526.132 442.666 526.978 442.738L527.121 442.744H533.918C534.976 442.744 535.687 443.803 535.323 444.769L535.272 444.889L527.804 460.591C527.324 461.602 527.716 462.802 528.678 463.34L528.819 463.413L529.852 463.895C534.132 465.895 539.214 464.349 541.667 460.345L541.808 460.107L601.088 356.634C602.591 354.011 602.837 350.859 601.771 348.043L601.647 347.731L587.764 314.401C587.707 314.264 587.671 314.12 587.656 313.972L587.649 313.814C587.649 312.986 588.32 312.314 589.149 312.314Z" fill="black"/><path id="Stroke 16" d="M323.523 247.947C323.801 247.392 324.389 247.069 324.999 247.124L325.14 247.144L360.917 253.817C363.365 254.246 365.506 255.706 366.801 257.818L366.952 258.074L398.07 313.02L406.737 304.354C407.286 303.804 408.155 303.77 408.744 304.251L408.858 304.354C409.407 304.903 409.442 305.772 408.961 306.361L408.858 306.475L398.798 316.536C398.132 317.202 397.037 317.091 396.511 316.339L396.432 316.214L364.342 259.553C363.552 258.161 362.213 257.172 360.646 256.821L360.383 256.769L325.7 250.3L324.088 253.525L355.789 267.116C356.098 267.248 356.352 267.48 356.513 267.773L356.576 267.902L385.836 335.993C390.111 345.931 403.028 348.412 410.683 340.86L410.913 340.629L425.663 325.488C426.241 324.894 427.191 324.882 427.784 325.46C428.341 326.002 428.386 326.87 427.914 327.466L427.812 327.581L413.062 342.722C404.039 351.992 388.556 349.237 383.238 337.535L383.079 337.177L354.056 269.637L321.444 255.656C320.694 255.335 320.347 254.481 320.635 253.736L320.693 253.606L323.523 247.947Z" fill="black"/><path id="Stroke 18" d="M549.718 447.805L549.862 447.811C550.639 447.88 551.224 448.53 551.229 449.294L551.222 449.439L525.461 736.539C525.396 737.264 524.823 737.83 524.111 737.898L523.967 737.905H497.537C496.78 737.905 496.149 737.342 496.051 736.605L496.039 736.465L486.719 503.566L463.043 599.068L451.622 736.529C451.561 737.261 450.982 737.834 450.264 737.899L450.127 737.905H422.747C421.968 737.905 421.327 737.31 421.254 736.549L421.247 736.405V593.636L421.261 593.433L439.691 458.162C439.803 457.341 440.559 456.767 441.38 456.878C442.152 456.984 442.707 457.66 442.676 458.423L442.664 458.567L424.247 593.735V734.904H448.746L460.064 598.701C460.067 598.661 460.072 598.621 460.078 598.581L460.103 598.464L486.342 492.624C486.747 490.989 489.083 491.178 489.284 492.776L489.296 492.925L498.978 734.904H522.596L548.234 449.171C548.3 448.443 548.875 447.883 549.576 447.812L549.718 447.805Z" fill="black"/><path id="Stroke 20" d="M518.387 734.905C519.167 734.905 519.808 735.5 519.881 736.26L519.887 736.405L519.887 753.573L530.498 768.767C530.645 768.977 530.735 769.22 530.761 769.473L530.768 769.626V780.865C530.768 781.644 530.174 782.285 529.413 782.358L529.268 782.365H489.768C488.989 782.365 488.348 781.77 488.275 781.009L488.268 780.865V769.626C488.268 769.311 488.367 769.006 488.549 768.752L488.647 768.63L501.457 754.204L501.457 736.405C501.457 735.625 502.052 734.984 502.813 734.912L502.957 734.905C503.737 734.905 504.378 735.5 504.451 736.26L504.457 736.405V754.775C504.457 755.089 504.359 755.395 504.177 755.648L504.079 755.771L491.268 770.194V779.364H527.768V770.097L517.158 754.905C517.011 754.695 516.921 754.452 516.895 754.199L516.887 754.046V736.405C516.887 735.576 517.559 734.905 518.387 734.905Z" fill="black"/><path id="Stroke 22" d="M529.266 768.129C530.095 768.129 530.766 768.801 530.766 769.629C530.766 770.409 530.171 771.05 529.411 771.123L529.266 771.129H489.765C488.937 771.129 488.265 770.458 488.265 769.629C488.265 768.85 488.86 768.209 489.621 768.136L489.765 768.129H529.266Z" fill="black"/><path id="Stroke 24" d="M443.2 734.905C443.98 734.905 444.62 735.5 444.693 736.26L444.7 736.405L444.699 753.573L455.31 768.767C455.456 768.977 455.546 769.22 455.572 769.473L455.58 769.626V780.865C455.58 781.644 454.985 782.285 454.224 782.358L454.08 782.365H414.58C413.8 782.365 413.16 781.77 413.087 781.009L413.08 780.865V769.626C413.08 769.328 413.168 769.039 413.332 768.793L413.421 768.674L425.269 754.238L425.27 736.405C425.27 735.625 425.865 734.984 426.625 734.912L426.77 734.905C427.55 734.905 428.19 735.5 428.263 736.26L428.27 736.405V754.775C428.27 755.072 428.182 755.362 428.018 755.607L427.929 755.726L416.079 770.163V779.364H452.579V770.096L441.97 754.905C441.824 754.695 441.734 754.452 441.708 754.199L441.7 754.046V736.405C441.7 735.576 442.372 734.905 443.2 734.905Z" fill="black"/><path id="Stroke 26" d="M454.079 768.129C454.907 768.129 455.579 768.801 455.579 769.629C455.579 770.409 454.984 771.05 454.223 771.123L454.079 771.129H414.578C413.749 771.129 413.078 770.458 413.078 769.629C413.078 768.85 413.673 768.209 414.433 768.136L414.578 768.129H454.079Z" fill="black"/><path id="Stroke 28" d="M469.482 162.898C469.699 162.099 470.523 161.627 471.323 161.844C472.122 162.061 472.594 162.885 472.377 163.685C468.298 178.701 468.119 193.46 472.73 205.291C475.072 211.297 479.023 216.269 483.963 219.069C489.157 222.014 496.235 221.852 503.575 219.248C504.356 218.971 505.213 219.379 505.49 220.16C505.767 220.941 505.359 221.798 504.578 222.075C496.496 224.942 488.561 225.124 482.484 221.679C476.9 218.515 472.513 212.994 469.935 206.38C465.061 193.876 465.248 178.485 469.482 162.898Z" fill="black"/><path id="Fill 40" fill-rule="evenodd" clip-rule="evenodd" d="M810.348 539.504H541.635L548.216 473.925H810.348V539.504Z" fill="black"/><path id="Fill 42" fill-rule="evenodd" clip-rule="evenodd" d="M326.05 248.294C326.05 257.357 318.703 264.703 309.641 264.703C300.578 264.703 293.232 257.357 293.232 248.294C293.232 239.231 300.578 231.885 309.641 231.885C318.703 231.885 326.05 239.231 326.05 248.294" fill="black"/><path id="Stroke 46" d="M310.303 252.5C311.083 252.5 311.723 253.095 311.796 253.856L311.803 254V388.563C311.803 389.342 311.208 389.983 310.447 390.056L310.303 390.063H239.729C238.949 390.063 238.309 389.468 238.236 388.707L238.229 388.563V312.97C238.229 312.141 238.901 311.47 239.729 311.47C240.509 311.47 241.149 312.065 241.222 312.825L241.229 312.97L241.228 387.062H308.802L308.803 254C308.803 253.22 309.398 252.58 310.159 252.507L310.303 252.5Z" fill="black"/><path id="Fill 45" fill-rule="evenodd" clip-rule="evenodd" d="M223 304.854L240.457 275L257.674 304.854H223Z" fill="black"/><path id="Stroke 47" d="M307.975 193.698C308.755 193.698 309.396 194.293 309.468 195.053L309.475 195.198V217.445C309.475 218.273 308.804 218.945 307.975 218.945C307.196 218.945 306.555 218.35 306.482 217.589L306.475 217.445V195.198C306.475 194.369 307.147 193.698 307.975 193.698Z" fill="black"/><path id="Stroke 48" d="M341.083 205.366C341.669 204.78 342.619 204.78 343.205 205.366C343.754 205.915 343.788 206.784 343.308 207.373L343.205 207.487L325.139 225.553C324.553 226.139 323.603 226.139 323.017 225.553C322.468 225.004 322.434 224.135 322.914 223.546L323.017 223.432L341.083 205.366Z" fill="black"/><path id="Stroke 49" d="M718.046 204.926C718.826 204.926 719.467 205.521 719.539 206.282L719.546 206.426V247.635C719.546 248.415 718.951 249.056 718.191 249.128L718.046 249.135H589.728C588.9 249.135 588.228 248.464 588.228 247.635C588.228 246.856 588.823 246.215 589.584 246.142L589.728 246.135L716.546 246.135V207.926L549.728 207.926C548.949 207.926 548.308 207.331 548.235 206.571L548.228 206.426C548.228 205.647 548.823 205.006 549.584 204.933L549.728 204.926H718.046Z" fill="black"/><path id="Stroke 50" d="M718.047 246.135C718.826 246.135 719.467 246.73 719.54 247.491L719.547 247.635V404.225C719.547 405.005 718.952 405.646 718.191 405.718L718.047 405.725H594.546C593.717 405.725 593.046 405.054 593.046 404.225C593.046 403.446 593.641 402.805 594.401 402.732L594.546 402.725L716.546 402.725L716.547 247.635C716.547 246.856 717.142 246.215 717.902 246.142L718.047 246.135Z" fill="black"/><path id="Stroke 51" d="M687.989 219.031C688.538 218.481 689.407 218.447 689.996 218.928L690.11 219.031L702.888 231.809C703.474 232.394 703.474 233.344 702.888 233.93C702.339 234.479 701.47 234.513 700.881 234.033L700.767 233.93L687.989 221.152C687.403 220.566 687.403 219.616 687.989 219.031Z" fill="black"/><path id="Stroke 52" d="M700.767 219.031C701.353 218.445 702.303 218.445 702.888 219.031C703.438 219.58 703.472 220.449 702.991 221.038L702.888 221.152L690.11 233.93C689.525 234.516 688.575 234.516 687.989 233.93C687.44 233.381 687.406 232.512 687.886 231.923L687.989 231.809L700.767 219.031Z" fill="black"/><path id="Fill 53" fill-rule="evenodd" clip-rule="evenodd" d="M671.854 290.872C671.854 294.512 668.903 297.463 665.263 297.463C661.623 297.463 658.671 294.512 658.671 290.872C658.671 287.231 661.623 284.28 665.263 284.28C668.903 284.28 671.854 287.231 671.854 290.872" fill="black"/><path id="Fill 54" fill-rule="evenodd" clip-rule="evenodd" d="M638.607 290.872C638.607 294.512 635.656 297.463 632.016 297.463C628.376 297.463 625.424 294.512 625.424 290.872C625.424 287.231 628.376 284.28 632.016 284.28C635.656 284.28 638.607 287.231 638.607 290.872" fill="black"/><path id="Fill 55" fill-rule="evenodd" clip-rule="evenodd" d="M605.36 290.872C605.36 294.512 602.409 297.463 598.769 297.463C595.129 297.463 592.177 294.512 592.177 290.872C592.177 287.231 595.129 284.28 598.769 284.28C602.409 284.28 605.36 287.231 605.36 290.872" fill="black"/><path id="Fill 56" fill-rule="evenodd" clip-rule="evenodd" d="M671.854 323.591C671.854 327.232 668.903 330.182 665.263 330.182C661.623 330.182 658.671 327.232 658.671 323.591C658.671 319.95 661.623 317 665.263 317C668.903 317 671.854 319.95 671.854 323.591" fill="black"/><path id="Fill 57" fill-rule="evenodd" clip-rule="evenodd" d="M638.607 323.591C638.607 327.232 635.656 330.182 632.016 330.182C628.376 330.182 625.424 327.232 625.424 323.591C625.424 319.95 628.376 317 632.016 317C635.656 317 638.607 319.95 638.607 323.591" fill="black"/><path id="Fill 58" fill-rule="evenodd" clip-rule="evenodd" d="M605.36 323.591C605.36 327.232 602.409 330.182 598.769 330.182C595.129 330.182 592.177 327.232 592.177 323.591C592.177 319.95 595.129 317 598.769 317C602.409 317 605.36 319.95 605.36 323.591" fill="black"/><path id="Fill 59" fill-rule="evenodd" clip-rule="evenodd" d="M671.854 356.311C671.854 359.952 668.903 362.903 665.263 362.903C661.623 362.903 658.671 359.952 658.671 356.311C658.671 352.671 661.623 349.72 665.263 349.72C668.903 349.72 671.854 352.671 671.854 356.311" fill="black"/><path id="Fill 60" fill-rule="evenodd" clip-rule="evenodd" d="M638.607 356.311C638.607 359.952 635.656 362.903 632.016 362.903C628.376 362.903 625.424 359.952 625.424 356.311C625.424 352.671 628.376 349.72 632.016 349.72C635.656 349.72 638.607 352.671 638.607 356.311" fill="black"/><path id="Stroke 61" d="M823.16 285.962C827.251 285.962 830.636 287.132 833.674 289.382C835.848 290.992 837.315 292.564 840.234 296.152L841.143 297.268C846.567 303.852 849.629 305.962 855.57 305.962C856.398 305.962 857.07 306.634 857.07 307.462C857.07 308.291 856.398 308.962 855.57 308.962C851.479 308.962 848.093 307.792 845.056 305.543L844.63 305.221C842.68 303.714 841.221 302.121 838.496 298.772L837.587 297.657C832.163 291.073 829.101 288.962 823.16 288.962C817.219 288.962 814.157 291.073 808.733 297.657L807.259 299.464C804.706 302.57 803.293 304.04 801.264 305.543C798.226 307.792 794.841 308.962 790.75 308.962C786.659 308.962 783.274 307.792 780.237 305.543L779.811 305.221C777.861 303.714 776.402 302.121 773.678 298.772L773.381 298.407C767.569 291.232 764.504 288.962 758.344 288.962C752.293 288.962 749.229 291.152 743.614 298.027L742.444 299.464C739.891 302.57 738.479 304.041 736.45 305.543C733.413 307.793 730.027 308.962 725.937 308.962C721.846 308.962 718.461 307.792 715.424 305.543L714.998 305.221C713.048 303.714 711.589 302.121 708.865 298.772L708.259 298.027L707.657 297.295C702.419 290.995 699.362 288.962 693.532 288.962C692.704 288.962 692.032 288.291 692.032 287.462C692.032 286.634 692.704 285.962 693.532 285.962C697.622 285.962 701.007 287.132 704.044 289.382L704.47 289.704C706.35 291.156 707.774 292.69 710.315 295.8L710.899 296.518C716.712 303.693 719.776 305.962 725.937 305.962C731.877 305.962 734.939 303.852 740.362 297.269L742.133 295.101C744.501 292.239 745.881 290.825 747.83 289.382C750.868 287.132 754.253 285.962 758.344 285.962C762.435 285.962 765.82 287.132 768.857 289.382C771.031 290.992 772.497 292.564 775.416 296.153L776.325 297.268C781.748 303.852 784.81 305.962 790.75 305.962C796.691 305.962 799.753 303.852 805.177 297.268L806.921 295.134C809.305 292.249 810.689 290.831 812.646 289.382C815.683 287.132 819.069 285.962 823.16 285.962Z" fill="black"/><path id="Stroke 62" d="M823.16 321.091C827.251 321.091 830.636 322.261 833.674 324.511L834.1 324.833C835.841 326.178 837.191 327.592 839.399 330.263L841.143 332.397C846.567 338.981 849.629 341.091 855.57 341.091C856.398 341.091 857.07 341.763 857.07 342.591C857.07 343.42 856.398 344.091 855.57 344.091C851.479 344.091 848.093 342.921 845.056 340.672L844.63 340.35C842.68 338.843 841.221 337.25 838.496 333.901L838.2 333.536C832.386 326.361 829.321 324.091 823.16 324.091C817.109 324.091 814.044 326.281 808.429 333.156L807.259 334.593C804.706 337.699 803.293 339.169 801.264 340.672C798.226 342.921 794.841 344.091 790.75 344.091C786.659 344.091 783.274 342.921 780.237 340.672L779.811 340.35C777.861 338.843 776.402 337.25 773.678 333.901L773.381 333.536C767.569 326.361 764.504 324.091 758.344 324.091C752.293 324.091 749.229 326.281 743.614 333.156L742.444 334.593C739.891 337.699 738.479 339.169 736.45 340.672C733.413 342.921 730.027 344.091 725.937 344.091C721.846 344.091 718.461 342.921 715.424 340.672L714.998 340.35C713.048 338.843 711.589 337.25 708.865 333.901L708.259 333.155L707.657 332.424C702.419 326.124 699.362 324.091 693.532 324.091C692.704 324.091 692.032 323.42 692.032 322.591C692.032 321.763 692.704 321.091 693.532 321.091C697.622 321.091 701.007 322.261 704.044 324.511L704.47 324.833C706.35 326.285 707.774 327.819 710.315 330.929L710.899 331.647C716.712 338.822 719.776 341.091 725.937 341.091C731.877 341.091 734.939 338.981 740.362 332.398L742.133 330.23C744.501 327.368 745.881 325.954 747.83 324.511C750.868 322.261 754.253 321.091 758.344 321.091C762.435 321.091 765.82 322.261 768.857 324.511L769.283 324.833C771.233 326.339 772.692 327.933 775.416 331.281L776.325 332.397C781.748 338.981 784.81 341.091 790.75 341.091C796.691 341.091 799.753 338.981 805.177 332.397L806.921 330.263C809.305 327.378 810.689 325.96 812.646 324.511C815.683 322.261 819.069 321.091 823.16 321.091Z" fill="black"/><path id="Stroke 63" d="M850.67 779.365C851.498 779.365 852.17 780.036 852.17 780.865C852.17 781.644 851.575 782.285 850.814 782.358L850.67 782.365H166.5C165.671 782.365 165 781.693 165 780.865C165 780.085 165.595 779.444 166.355 779.372L166.5 779.365H850.67Z" fill="black"/><path id="Fill 74" fill-rule="evenodd" clip-rule="evenodd" d="M414.578 780.865H454.079V769.63H414.578V780.865Z" fill="black"/><path id="Fill 75" fill-rule="evenodd" clip-rule="evenodd" d="M489.767 780.865H529.268V769.63H489.767V780.865Z" fill="black"/><path id="Fill 78" fill-rule="evenodd" clip-rule="evenodd" d="M487.024 221.951C489.16 222.447 492.398 222.936 496.299 222.526C499.782 222.16 502.57 221.206 504.472 220.385C503.686 222.102 501.581 226.088 497.018 229.113C492.775 231.927 488.628 232.437 486.738 232.554C486.834 229.019 486.928 225.485 487.024 221.951" fill="black"/><path id="Stroke 79" fill-rule="evenodd" clip-rule="evenodd" d="M496.142 221.034C498.994 220.734 501.549 220.013 503.878 219.008C505.139 218.463 506.408 219.76 505.836 221.009C504.249 224.476 501.786 227.751 497.847 230.363C494.16 232.808 490.438 233.828 486.831 234.051C485.951 234.105 485.215 233.394 485.239 232.513L485.525 221.91C485.55 220.962 486.439 220.275 487.363 220.49C490.072 221.119 492.982 221.366 496.142 221.034ZM501.061 223.258L501.147 223.137L500.692 223.259C499.347 223.604 497.937 223.862 496.456 224.018C493.766 224.3 491.239 224.206 488.851 223.833L488.475 223.77L488.283 230.89C490.754 230.538 493.273 229.705 495.773 228.132L496.189 227.863C498.235 226.507 499.822 224.941 501.061 223.258Z" fill="black"/><g id="Group"><path id="Fill 41" fill-rule="evenodd" clip-rule="evenodd" d="M753.043 645.627C753.043 654.69 745.696 662.037 736.634 662.037C727.571 662.037 720.225 654.69 720.225 645.627C720.225 636.564 727.571 629.218 736.634 629.218C745.696 629.218 753.043 636.564 753.043 645.627" fill="black"/><path id="Fill 43" fill-rule="evenodd" clip-rule="evenodd" d="M742.569 756.914H774.707V724.776H742.569V756.914Z" fill="black"/><path id="Fill 44" fill-rule="evenodd" clip-rule="evenodd" d="M628 584.958H753.043V563.076H628V584.958Z" fill="black"/><path id="Fill 45_2" fill-rule="evenodd" clip-rule="evenodd" d="M648.689 660.343L666.146 630.489L683.363 660.343H648.689Z" fill="black"/><path id="Stroke 46_2" d="M773.302 548.066C774.082 548.066 774.723 548.661 774.796 549.422L774.802 549.566V684.129C774.802 684.909 774.208 685.55 773.447 685.622L773.302 685.629H702.728C701.949 685.629 701.308 685.034 701.235 684.274L701.228 684.129L701.228 610.036H630.499V739.346H758.637C759.417 739.346 760.058 739.941 760.131 740.702L760.137 740.846C760.137 741.626 759.542 742.267 758.782 742.339L758.637 742.346H628.999C628.22 742.346 627.579 741.751 627.506 740.991L627.499 740.846V608.536C627.499 607.756 628.094 607.116 628.855 607.043L628.999 607.036H702.728C703.508 607.036 704.149 607.631 704.222 608.392L704.228 608.536L704.228 682.629H771.802L771.802 549.566C771.802 548.787 772.397 548.146 773.158 548.073L773.302 548.066Z" fill="black"/></g></g><g id="Element" transform="translate(132 379) scale(1 1)"><g id="Element/Shapes"><g id="Group"><path id="Fill 30" fill-rule="evenodd" clip-rule="evenodd" d="M254.279 329.88V402.849H-3C-0.783 400.4 18.96 372.366 44.421 372.366C70.146 372.366 83.55 388.413 105.09 371.502C112.538 365.655 123.984 357.485 133.215 357.485C142.125 357.485 150.486 361.472 158.989 364.11C167.97 366.899 176.425 366.838 185.356 363.556C192.539 360.916 199.28 356.832 205.996 352.802C221.374 343.572 237.259 333.857 254.279 329.88" fill="black"/><path id="Stroke 32" d="M194.259 279.29C217.496 279.29 236.33 298.13 236.33 321.37C236.33 344.61 217.496 363.45 194.259 363.45C180.959 363.45 168.693 357.241 160.786 346.869C160.284 346.21 160.411 345.269 161.07 344.767C161.729 344.265 162.67 344.391 163.172 345.05C170.517 354.686 181.905 360.45 194.259 360.45C215.839 360.45 233.33 342.953 233.33 321.37C233.33 299.786 215.839 282.29 194.259 282.29C174.66 282.29 158.17 296.795 155.545 316.023C155.433 316.843 154.677 317.418 153.856 317.306C153.035 317.194 152.461 316.438 152.573 315.617C155.4 294.908 173.155 279.29 194.259 279.29Z" fill="black"/><path id="Stroke 34" d="M33.7994 335.477C33.983 334.781 34.6318 334.32 35.3375 334.362L35.4793 334.377L54.7287 337.358L80.8887 341.397C81.7074 341.524 82.2686 342.29 82.1422 343.109C82.0232 343.879 81.3375 344.422 80.5747 344.377L80.4309 344.362L54.2702 340.323L36.356 337.548L24.08 384.093L21.15 395.184C20.9384 395.985 20.1176 396.462 19.3166 396.251C18.5628 396.052 18.0953 395.313 18.2193 394.559L18.2495 394.418L21.1794 383.327L33.7994 335.477Z" fill="black"/><path id="Stroke 36" d="M86.9633 235.82C87.4354 235.45 88.0779 235.399 88.5983 235.678L88.7256 235.755L146.636 274.665C147.133 274.999 147.38 275.595 147.275 276.176L147.242 276.321L135.882 316.231C135.655 317.027 134.825 317.489 134.028 317.263C133.279 317.049 132.825 316.302 132.963 315.55L132.996 315.409L144.058 276.547L87.956 238.853L34.773 280.567L55.604 337.493L80.889 341.398C81.6595 341.517 82.202 342.202 82.1578 342.965L82.1425 343.109C82.0235 343.879 81.3379 344.422 80.575 344.378L80.4312 344.362L54.2712 340.323C53.7803 340.248 53.3621 339.935 53.1491 339.493L53.0914 339.356L31.5814 280.575C31.3753 280.012 31.5256 279.386 31.952 278.977L32.0643 278.88L86.9633 235.82Z" fill="black"/><path id="Stroke 38" fill-rule="evenodd" clip-rule="evenodd" d="M80.6606 314.317H161.979C162.807 314.317 163.479 314.988 163.479 315.817V386.431C163.479 387.259 162.807 387.931 161.979 387.931H80.6606C79.8322 387.931 79.1606 387.259 79.1606 386.431V315.817C79.1606 314.988 79.8322 314.317 80.6606 314.317ZM160.478 384.93V317.316H82.16V384.93H160.478Z" fill="black"/></g></g></g></g></svg>