<svg viewBox="140.52499999999998 173.43820224719093 740.95 624.8876404494384" fill="none" xmlns="http://www.w3.org/2000/svg" xmlns:xlink="http://www.w3.org/1999/xlink" overflow="visible" width="740.95px" height="624.8876404494384px"><g id="Master/Scenes/Blockchain"><g id="Background" transform="translate(271 173) scale(1 1)"><g id="Background/2"><path id="Path" fill-rule="evenodd" clip-rule="evenodd" d="M466.705 206.495C500.408 311.266 455.829 440.185 370.968 498.004C286.241 555.689 161.232 542.408 85.9045 482.443C10.4426 422.612 -15.338 316.364 13.5308 218.434C42.2654 120.37 125.784 30.7568 223.401 26.1957C321.152 21.5004 433.137 101.857 466.705 206.495Z" fill="black" fill-opacity="0.04"/></g></g><g id="Group 138"><path id="Fill 4" fill-rule="evenodd" clip-rule="evenodd" d="M451.293 343.208C451.293 343.208 445.041 352.702 442.484 364.645C441.392 369.746 439.945 376.191 442.862 383.193C443.566 384.883 447.17 393.844 455.714 396.229C466.415 399.218 476.04 389.448 478.051 387.407C484.303 381.061 486.032 373.872 487.652 367.137C488.471 363.734 491.799 349.898 487.793 334.436C486.939 331.142 485.574 327.08 485.158 320.782C484.821 315.682 484.579 311.221 486.835 306.889C488.971 302.786 491.079 303.158 497.03 297.667C500.356 294.6 505.726 289.645 508.736 282.295C510.892 277.03 509.283 276.771 512.122 267.483C514.213 260.641 515.258 257.22 518.046 254.787C522.427 250.965 526.968 252.066 528.838 248.439C529.917 246.346 527.986 245.381 528.255 240.555C528.39 238.134 528.535 235.505 530.445 233.367C531.971 231.658 534.74 230.13 537.157 230.816C539.189 231.392 539.385 233.079 541.051 233.971C543.742 235.411 547.282 233.254 552.326 230.27C557.522 227.195 557.529 227.128 561.485 225.186C566.827 222.564 568.549 222.61 570.044 220.859C573.391 216.938 569.181 206.56 563.941 199.872C554.996 188.452 539.193 182.864 524.647 183.945C504.513 185.442 492.444 199.293 489.839 202.459C481.289 212.854 479.102 224.378 477.99 230.231C475.19 244.982 479.503 248.129 475.398 261.335C473.798 266.483 471.122 275.092 463.919 283.182C458.396 289.385 453.656 291.415 450.589 299.104C449.793 301.099 448.15 305.35 448.556 310.755C448.816 314.217 450.028 317.515 452.452 324.11C454.717 330.275 455.571 331.433 455.419 334.126C455.207 337.896 453.277 340.195 451.293 343.208" fill="black"/><path id="Stroke 6" d="M532.102 274.78C532.272 273.969 533.067 273.449 533.878 273.619C534.641 273.779 535.146 274.492 535.061 275.252L535.038 275.394L532.488 287.575L531.437 292.585C531.335 293.071 530.999 293.475 530.54 293.664C525.774 295.624 520.485 296.766 514.475 296.506C509.942 296.309 505.714 295.314 501.803 293.716C501.036 293.402 500.668 292.527 500.982 291.76C501.295 290.993 502.171 290.625 502.938 290.939C506.542 292.412 510.434 293.327 514.605 293.508C519.709 293.729 524.253 292.85 528.377 291.293L528.667 291.18L532.102 274.78Z" fill="black"/><path id="Stroke 8" d="M567.77 214.247C568.593 214.153 569.337 214.744 569.431 215.567C571.377 232.618 569.474 247.476 564.307 259.484C560.038 269.394 552.823 276.169 544.231 277.722C543.254 277.902 542.128 277.952 540.886 277.885C538.815 277.783 536.375 277.361 533.752 276.686L528.851 275.389C528.519 275.299 528.215 275.216 527.918 275.134L527.133 274.914C526.048 274.605 525 274.288 523.784 273.9C522.995 273.648 522.559 272.804 522.812 272.014C523.064 271.225 523.908 270.79 524.697 271.042L525.834 271.4C526.382 271.569 526.905 271.726 527.429 271.878L528.331 272.135L529.887 272.561L533.959 273.638C536.613 274.351 539.055 274.791 541.041 274.889C542.07 274.945 542.965 274.905 543.693 274.771C551.196 273.414 557.651 267.353 561.552 258.298C566.503 246.789 568.339 232.457 566.45 215.907C566.356 215.084 566.947 214.341 567.77 214.247Z" fill="black"/><path id="Stroke 10" d="M478.244 385.449C479.06 385.308 479.837 385.855 479.978 386.671C482.056 398.684 483.807 410.883 485.21 423.269C488.509 452.519 489.668 481.149 488.972 509.145L488.938 510.412L490.044 509.49C491.714 508.111 493.422 506.753 495.17 505.417L496.488 504.419C498.988 502.547 501.505 500.766 504.033 499.076C504.722 498.615 505.653 498.8 506.114 499.489C506.574 500.178 506.389 501.109 505.7 501.57C503.217 503.23 500.744 504.98 498.287 506.82C494.813 509.424 491.496 512.116 488.327 514.886C487.34 515.749 485.798 515.019 485.841 513.709C486.787 484.373 485.694 454.332 482.229 423.606C480.833 411.279 479.09 399.138 477.022 387.183C476.881 386.366 477.428 385.59 478.244 385.449Z" fill="black"/><path id="Stroke 12" d="M516.685 376.267C517.512 376.212 518.226 376.838 518.281 377.664C520.268 407.559 524.175 437.813 530.27 468.435C533.071 482.513 536.275 496.356 539.857 509.983C540.074 510.808 539.56 511.637 538.746 511.825L538.608 511.85L514.88 515.069C514.162 515.167 513.476 514.736 513.252 514.047C509.285 501.846 505.972 489.141 503.433 475.864C501.124 463.794 499.582 451.922 498.706 440.227C498.644 439.401 499.263 438.681 500.089 438.619C500.916 438.557 501.635 439.177 501.697 440.003C502.565 451.586 504.092 463.346 506.38 475.3C508.775 487.824 511.865 499.835 515.548 511.389L515.721 511.927L536.528 509.104L536.191 507.81C533.154 496.053 530.397 484.136 527.936 472.047L527.327 469.021C521.207 438.267 517.283 407.885 515.288 377.863C515.233 377.037 515.858 376.322 516.685 376.267Z" fill="black"/><path id="Stroke 14" d="M528.811 291.141C529.532 290.733 530.447 290.987 530.855 291.708C533.539 296.451 536.22 300.634 538.964 304.52C540.177 306.233 541.293 307.729 542.443 309.193C542.717 309.541 542.994 309.889 543.277 310.241L543.708 310.772C544.753 312.055 553.183 321.858 558.38 328.09L565.297 336.46C571.398 343.884 573.032 346.061 573.941 347.804C574.79 349.433 575.478 351.003 576.031 352.572L576.232 353.161C578.05 358.66 578.298 361.527 577.841 375.282L577.545 383.632C577.496 385.107 577.454 386.5 577.418 387.908L577.369 390.276L577.358 391.069C577.153 406.463 577.551 424.832 579.044 442.541C579.907 452.743 581.195 462.293 582.767 471.145C582.909 471.947 582.384 472.717 581.585 472.878C575.197 474.159 568.709 475.738 562.146 477.628C554.682 479.78 547.472 482.238 540.506 484.964C539.735 485.266 538.865 484.885 538.563 484.114C538.261 483.342 538.642 482.472 539.413 482.17C546.463 479.411 553.76 476.923 561.316 474.745C567.354 473.006 573.332 471.527 579.228 470.298L579.56 470.229L579.321 468.823C578.037 461.173 576.967 453.027 576.196 444.413L576.055 442.793C574.596 425.495 574.177 407.597 574.342 392.403L574.401 388.54L574.457 386.417C574.504 384.765 574.56 383.091 574.627 381.237L574.84 375.252C575.286 361.887 575.053 359.152 573.383 354.103C572.918 352.695 572.332 351.286 571.602 349.822L571.181 349.004C570.31 347.421 568.375 344.916 561.94 337.101L555.731 329.598C550.865 323.775 543.455 315.146 541.667 313.011L541.382 312.667C540.935 312.119 540.506 311.583 540.085 311.047C538.903 309.544 537.758 308.007 536.514 306.252C533.715 302.287 530.98 298.02 528.244 293.186C527.836 292.465 528.09 291.549 528.811 291.141Z" fill="black"/><path id="Stroke 16" d="M574.797 471.305C575.576 471.305 576.217 471.9 576.29 472.66L576.297 472.805V634.049L576.292 634.172L576.276 634.295L554.819 763.327C554.683 764.144 553.911 764.696 553.094 764.56C552.325 764.433 551.79 763.741 551.843 762.978L551.86 762.835L573.296 633.928L573.297 472.805C573.297 472.025 573.892 471.384 574.652 471.312L574.797 471.305Z" fill="black"/><path id="Stroke 18" d="M519.163 543.825C519.939 543.752 520.633 544.284 520.777 545.035L520.797 545.178L529.4 636.716L529.406 636.901L525.105 782.752C525.08 783.58 524.389 784.231 523.561 784.207C522.782 784.184 522.159 783.57 522.109 782.808L522.106 782.663L526.404 636.9L517.81 545.459C517.737 544.683 518.27 543.989 519.02 543.845L519.163 543.825Z" fill="black"/><path id="Fill 20" fill-rule="evenodd" clip-rule="evenodd" d="M519.304 763.081H562.787L598.409 771.609C603.445 772.814 606.995 777.316 606.995 782.494V788.476L519.304 787.422V763.081Z" fill="black"/><path id="Fill 22" fill-rule="evenodd" clip-rule="evenodd" d="M449.802 715.878L428.842 738.758L487.399 788.165H505.19V782.908L491.673 773.355L478.968 738.087L449.802 715.878Z" fill="black"/><path id="Stroke 24" d="M525.9 626.976C526.421 626.331 527.365 626.232 528.01 626.753C528.613 627.241 528.739 628.102 528.323 628.738L528.233 628.862L453.752 720.954C453.231 721.598 452.286 721.698 451.642 721.177C451.038 720.689 450.913 719.828 451.329 719.192L451.419 719.068L525.9 626.976Z" fill="black"/><path id="Stroke 26" d="M525.309 690.183C525.932 689.637 526.879 689.698 527.426 690.32C527.939 690.903 527.917 691.773 527.4 692.33L527.29 692.437L475.877 737.622C475.255 738.169 474.307 738.108 473.76 737.485C473.247 736.902 473.269 736.033 473.786 735.476L473.896 735.368L525.309 690.183Z" fill="black"/><path id="Stroke 28" d="M534.657 509.48C535.374 509.064 536.292 509.308 536.708 510.025L537.727 511.795C538.432 513.029 539.196 514.38 540.051 515.908L541.086 517.78C548.574 531.411 550.066 536 548.903 539.252C546.473 546.053 536.439 550.021 527.509 548.988C525.403 548.746 523.679 548.409 521.656 547.651C518.529 546.479 516.01 544.645 514.421 541.975C512.665 539.027 512.563 535.835 513.92 527.752C514.724 522.919 515.79 517.939 517.233 512.653C517.451 511.853 518.276 511.382 519.075 511.6C519.874 511.818 520.345 512.643 520.127 513.442C518.821 518.228 517.83 522.755 517.066 527.15L516.879 528.246C515.632 535.675 515.715 538.285 516.999 540.44C518.198 542.454 520.169 543.89 522.709 544.841C524.452 545.494 525.968 545.791 527.853 546.007C535.552 546.899 544.208 543.476 546.078 538.242L546.126 538.094C546.805 535.821 545.183 531.322 537.431 517.369L535.937 514.716C535.282 513.56 534.681 512.511 534.113 511.53C533.697 510.814 533.941 509.896 534.657 509.48Z" fill="black"/><path id="Stroke 30" d="M496.254 504.715C497.044 504.468 497.885 504.909 498.132 505.7C500.324 512.733 503.046 519.728 506.392 526.687C510.682 535.623 515.652 543.796 521.159 551.288C521.649 551.956 521.506 552.895 520.838 553.385C520.171 553.876 519.232 553.732 518.741 553.065C513.128 545.426 508.061 537.095 503.688 527.987C500.277 520.893 497.503 513.762 495.268 506.593C495.021 505.802 495.463 504.961 496.254 504.715Z" fill="black"/><path id="Stroke 32" d="M513.774 533.025C514.477 532.586 515.402 532.799 515.842 533.501C516.281 534.203 516.068 535.129 515.366 535.568C514.243 536.271 513.143 536.972 512.063 537.673L510.989 538.374C488.357 553.131 467.573 571.087 449.938 591.145L448.394 592.916C446.319 595.311 444.292 597.697 441.661 600.838L433.14 611.056C424.187 621.76 418.866 627.8 412.555 634.225C403.875 643.063 395.429 650.18 386.458 655.948L384.78 657.013C366.49 668.336 341.665 672.633 322.217 667.256C321.419 667.036 320.951 666.209 321.171 665.411C321.392 664.613 322.218 664.144 323.017 664.365C341.626 669.51 365.597 665.361 383.181 654.474L383.95 653.988C400.213 643.735 411.605 632.199 432.727 606.87L439.002 599.341C442.065 595.681 444.311 593.039 446.698 590.293C464.401 569.944 485.307 551.705 508.101 536.681L509.346 535.864C510.782 534.92 512.258 533.974 513.774 533.025Z" fill="black"/><path id="Stroke 34" d="M327.098 624.052C327.924 623.985 328.648 624.599 328.715 625.425C330.74 650.276 325.24 671.961 311.213 688.817L310.291 689.913C307.078 693.695 303.926 696.975 298.393 702.39L293.177 707.464C278.697 721.585 272.698 728.809 267.849 739.601C261.157 754.519 261.314 771.83 267.821 787.904C268.131 788.672 267.761 789.547 266.993 789.857C266.225 790.168 265.351 789.798 265.04 789.03C258.237 772.224 258.072 754.066 265.112 738.372L265.483 737.556C270.592 726.497 276.998 718.987 292.155 704.272L294.641 701.86C301.726 694.966 305.127 691.44 308.907 686.897C322.387 670.699 327.69 649.789 325.725 625.669C325.658 624.843 326.273 624.119 327.098 624.052Z" fill="black"/><path id="Stroke 36" d="M373.795 568.207C379.834 565.162 383.231 564.789 385.51 565.881C389.309 567.673 391.289 572.969 391.18 578.243C391.168 578.923 391.118 579.536 391.03 580.042C390.922 580.954 390.72 581.846 390.427 582.75C389.128 586.752 386.539 589.796 381.559 593.996L377.532 597.336L376.653 598.081C370.783 603.121 367.656 607.117 366.022 612.668L365.905 613.077C365.091 616.017 365.392 619.373 367.43 631.758L375.176 678.242L375.587 680.552C379.344 701.888 380.901 716.993 379.908 735.04C378.967 752.015 375.352 769.753 367.602 789.027C367.292 789.795 366.419 790.168 365.65 789.859C364.882 789.549 364.509 788.676 364.818 787.907C372.439 768.956 375.989 751.538 376.912 734.874C377.872 717.43 376.405 702.724 372.827 682.185L371.752 676.02L364.228 630.766C362.335 619.145 362.074 615.786 362.977 612.415L363.014 612.276C364.849 605.663 368.43 601.118 375.151 595.419L376.895 593.967C377.907 593.129 379.171 592.085 379.625 591.702L380.41 591.032C384.473 587.519 386.557 584.954 387.573 581.824C387.808 581.1 387.967 580.4 388.061 579.616C388.133 579.195 388.171 578.729 388.18 578.186C388.268 573.961 386.696 569.758 384.222 568.591C383.766 568.372 383.227 568.274 382.204 568.386C380.52 568.571 378.202 569.345 375.147 570.885C373.035 571.954 371.25 573.04 369.616 574.226L368.407 575.129C367.822 575.578 367.321 575.991 366.514 576.693L364.376 578.578C361.677 580.976 359.859 582.352 357.28 583.763C354.943 585.042 353.053 585.724 350.86 586.162L350.417 586.246C349.981 586.325 349.56 586.393 348.964 586.481L347.909 586.638C345.29 587.032 344.09 587.284 341.979 587.931C334.363 590.262 327.699 594.776 322 600.735C319.904 602.926 318.057 605.195 316.456 607.451C315.379 608.968 314.583 610.231 313.959 611.317C310.39 617.493 307.91 625.016 307.009 631.756C306.223 637.64 306.87 641.94 308.1 642.52C308.865 642.881 310.934 641.806 313.645 639.361C314.588 638.51 315.585 637.523 316.636 636.411L317.344 635.653C318.42 634.488 319.417 633.341 320.948 631.544C322.806 629.364 324.475 627.082 325.953 624.744C327.892 621.682 329.418 618.677 330.727 615.565C331.048 614.802 331.928 614.443 332.691 614.764C333.455 615.085 333.814 615.965 333.493 616.728C332.123 619.985 330.523 623.136 328.488 626.348C326.937 628.802 325.184 631.199 323.232 633.489L322.014 634.912C320.806 636.313 319.908 637.317 318.817 638.472C317.715 639.638 316.662 640.679 315.654 641.588L315.103 642.077C311.738 645.004 309.051 646.286 306.82 645.233C301.09 642.53 303.556 623.623 311.128 610.224L311.359 609.82C312.026 608.659 312.873 607.316 314.01 605.714C315.692 603.344 317.63 600.964 319.832 598.661C325.861 592.357 332.946 587.559 341.1 585.063L341.727 584.874C343.541 584.34 344.815 584.077 347.055 583.733L349.167 583.415C349.426 583.374 349.652 583.336 349.881 583.294C351.957 582.917 353.636 582.337 355.84 581.131C358.053 579.92 359.653 578.735 361.968 576.702L364.585 574.395C365.642 573.476 366.205 573.025 367.09 572.363L367.381 572.146C369.27 570.732 371.333 569.453 373.795 568.207Z" fill="black"/><path id="Stroke 38" d="M357.666 714.38C358.493 714.328 359.205 714.956 359.257 715.783C359.886 725.778 359.241 736.097 356.875 746.782C353.237 763.18 346.309 777.24 337.336 789.36C336.843 790.025 335.903 790.166 335.238 789.673C334.572 789.18 334.432 788.24 334.925 787.575C343.663 775.772 350.407 762.087 353.946 746.133C356.247 735.74 356.875 725.699 356.263 715.971C356.211 715.144 356.839 714.432 357.666 714.38Z" fill="black"/><path id="Stroke 40" d="M331.578 728.497C332.406 728.474 333.096 729.126 333.119 729.955C333.387 739.422 332.075 749.183 328.326 759.27C325.234 767.584 320.866 774.935 315.547 781.411C313.872 783.443 312.149 785.338 310.365 787.134C309.518 787.97 308.67 788.78 307.819 789.568C307.21 790.131 306.261 790.094 305.699 789.485C305.136 788.877 305.173 787.928 305.781 787.366C306.609 786.6 307.433 785.813 308.246 785.009C309.957 783.288 311.617 781.462 313.231 779.505C318.345 773.278 322.543 766.212 325.514 758.224C329.117 748.532 330.378 739.146 330.121 730.039C330.097 729.211 330.75 728.521 331.578 728.497Z" fill="black"/><path id="Stroke 42" d="M876.57 786.967C877.399 786.967 878.07 787.638 878.07 788.467C878.07 789.247 877.475 789.887 876.715 789.96L876.57 789.967H146.5C145.672 789.967 145 789.295 145 788.467C145 787.687 145.595 787.046 146.356 786.974L146.5 786.967H876.57Z" fill="black"/><path id="Stroke 44" fill-rule="evenodd" clip-rule="evenodd" d="M218.233 456.375L271.482 415.819C272.019 415.41 272.762 415.41 273.299 415.819L326.548 456.375C327.337 456.976 327.337 458.162 326.548 458.762L273.299 499.318C272.762 499.727 272.019 499.727 271.482 499.318L218.233 458.762C217.444 458.162 217.444 456.976 218.233 456.375ZM323.164 457.568L272.39 418.897L221.616 457.568L272.39 496.239L323.164 457.568Z" fill="black"/><path id="Stroke 46" d="M325.639 456.069C326.419 456.069 327.06 456.663 327.133 457.424L327.139 457.569V516.566C327.139 516.982 326.967 517.377 326.667 517.659L326.548 517.759L273.299 558.315C272.804 558.692 272.132 558.721 271.609 558.402L271.482 558.315L218.233 517.759C217.902 517.507 217.692 517.13 217.649 516.72L217.641 516.566V457.569C217.641 456.74 218.313 456.069 219.141 456.069C219.921 456.069 220.562 456.663 220.635 457.424L220.641 457.569L220.641 515.822L272.39 555.236L324.139 515.822L324.139 457.569C324.139 456.789 324.734 456.148 325.495 456.075L325.639 456.069Z" fill="black"/><path id="Stroke 48" d="M272.391 496.624C273.17 496.624 273.811 497.219 273.884 497.98L273.891 498.124V557.121C273.891 557.95 273.219 558.621 272.391 558.621C271.611 558.621 270.97 558.026 270.897 557.266L270.891 557.121V498.124C270.891 497.296 271.562 496.624 272.391 496.624Z" fill="black"/><path id="Fill 50" fill-rule="evenodd" clip-rule="evenodd" d="M272.391 498.124L325.64 457.568V516.565L272.391 557.121V498.124Z" fill="black"/><path id="Stroke 52" fill-rule="evenodd" clip-rule="evenodd" d="M293.266 223.175L346.515 182.62C347.052 182.211 347.796 182.211 348.333 182.62L401.582 223.175C402.37 223.775 402.37 224.961 401.582 225.562L348.333 266.118C347.796 266.527 347.052 266.527 346.515 266.118L293.266 225.562C292.478 224.961 292.478 223.775 293.266 223.175ZM398.197 224.368L347.424 185.698L296.65 224.368L347.424 263.038L398.197 224.368Z" fill="black"/><path id="Stroke 54" d="M400.673 222.868C401.453 222.868 402.093 223.463 402.166 224.224L402.173 224.368V283.366C402.173 283.782 402 284.177 401.7 284.459L401.582 284.56L348.333 325.115C347.837 325.492 347.165 325.521 346.643 325.202L346.515 325.115L293.266 284.56C292.935 284.307 292.726 283.931 292.683 283.521L292.675 283.366V224.368C292.675 223.54 293.347 222.868 294.175 222.868C294.955 222.868 295.595 223.463 295.668 224.224L295.675 224.368L295.675 282.623L347.424 322.035L399.173 282.622L399.173 224.368C399.173 223.589 399.768 222.948 400.529 222.875L400.673 222.868Z" fill="black"/><path id="Stroke 56" d="M347.424 263.423C348.204 263.423 348.845 264.018 348.917 264.779L348.924 264.923V323.921C348.924 324.75 348.253 325.421 347.424 325.421C346.644 325.421 346.004 324.827 345.931 324.066L345.924 323.921V264.923C345.924 264.095 346.596 263.423 347.424 263.423Z" fill="black"/><path id="Fill 58" fill-rule="evenodd" clip-rule="evenodd" d="M347.424 264.924L294.175 224.368V283.366L347.424 323.922V264.924Z" fill="black"/><path id="Stroke 60" fill-rule="evenodd" clip-rule="evenodd" d="M695.571 304.286L748.82 263.73C749.357 263.321 750.101 263.321 750.638 263.73L803.887 304.286C804.675 304.887 804.675 306.073 803.887 306.673L750.638 347.229C750.101 347.638 749.357 347.638 748.82 347.229L695.571 306.673C694.783 306.073 694.783 304.887 695.571 304.286ZM800.503 305.479L749.729 266.808L698.955 305.479L749.729 344.15L800.503 305.479Z" fill="black"/><path id="Fill 62" fill-rule="evenodd" clip-rule="evenodd" d="M696.48 305.48L749.729 346.036L802.978 305.48L749.729 264.924L696.48 305.48Z" fill="black"/><path id="Stroke 64" d="M802.978 303.98C803.758 303.98 804.399 304.574 804.471 305.335L804.478 305.48V364.477C804.478 364.893 804.305 365.288 804.005 365.57L803.887 365.67L750.638 406.226C750.142 406.603 749.47 406.632 748.948 406.313L748.82 406.226L695.571 365.67C695.24 365.418 695.031 365.041 694.988 364.631L694.98 364.477V305.48C694.98 304.651 695.652 303.98 696.48 303.98C697.26 303.98 697.901 304.574 697.973 305.335L697.98 305.48L697.98 363.733L749.729 403.147L801.478 363.733L801.478 305.48C801.478 304.7 802.073 304.059 802.834 303.986L802.978 303.98Z" fill="black"/><path id="Stroke 66" d="M749.729 344.535C750.509 344.535 751.15 345.13 751.222 345.891L751.229 346.035V405.032C751.229 405.861 750.558 406.532 749.729 406.532C748.95 406.532 748.309 405.938 748.236 405.177L748.229 405.032V346.035C748.229 345.207 748.901 344.535 749.729 344.535Z" fill="black"/><path id="Stroke 68" d="M628.308 380.457C628.949 379.932 629.894 380.025 630.419 380.666C630.912 381.266 630.86 382.135 630.324 382.674L630.21 382.777L615.306 395.002C611.819 397.862 607.074 398.626 602.876 397.025L602.555 396.897L590.543 391.935L575.903 392.356C575.124 392.379 574.466 391.803 574.372 391.044L574.361 390.9C574.338 390.121 574.915 389.463 575.673 389.369L575.817 389.358L590.777 388.928C590.935 388.923 591.093 388.944 591.244 388.988L591.393 389.041L603.7 394.125C606.855 395.428 610.456 394.946 613.153 392.881L613.403 392.682L628.308 380.457Z" fill="black"/><path id="Stroke 70" d="M601.148 364.516C603.381 363.434 605.972 363.391 608.231 364.389L608.512 364.519L620.096 370.148C620.841 370.51 621.152 371.407 620.79 372.153C620.449 372.854 619.634 373.17 618.918 372.903L618.785 372.846L607.201 367.217C605.787 366.53 604.149 366.491 602.709 367.101L602.458 367.215L587.745 374.356C587.591 374.431 587.427 374.478 587.259 374.497L587.09 374.507H576.43C575.601 374.507 574.93 373.835 574.93 373.007C574.93 372.227 575.524 371.587 576.285 371.514L576.43 371.507L586.745 371.506L601.148 364.516Z" fill="black"/><path id="Stroke 72" d="M656.319 351.486C656.994 351.006 657.93 351.164 658.41 351.839C658.862 352.474 658.749 353.341 658.171 353.841L658.057 353.931L608.03 389.511C607.355 389.991 606.419 389.833 605.939 389.158C605.487 388.522 605.6 387.655 606.178 387.155L606.292 387.066L656.319 351.486Z" fill="black"/><path id="Stroke 74" d="M642.272 264.881C662.295 253.841 681.483 253.157 699.78 264.745C700.48 265.188 700.688 266.115 700.245 266.815C699.802 267.515 698.875 267.723 698.175 267.28C680.873 256.322 662.843 256.965 643.72 267.509C628.149 276.094 612.655 290.616 595.361 311.305C594.829 311.941 593.883 312.026 593.248 311.494C592.612 310.963 592.528 310.017 593.059 309.381L594.556 307.601C611.471 287.593 626.76 273.434 642.272 264.881Z" fill="black"/><path id="Stroke 76" d="M463.936 444.118C464.629 443.664 465.559 443.857 466.013 444.549C466.468 445.242 466.275 446.172 465.582 446.626C432.609 468.271 396.347 481.165 362.159 481.782C361.331 481.797 360.647 481.138 360.632 480.309C360.617 479.481 361.277 478.798 362.105 478.783C395.677 478.177 431.406 465.472 463.936 444.118Z" fill="black"/><path id="Stroke 78" d="M266.181 251.683C266.914 251.298 267.821 251.579 268.207 252.312C268.593 253.045 268.311 253.952 267.578 254.338C221.765 278.448 204.843 338.704 226.541 389.669C226.865 390.432 226.511 391.313 225.748 391.637C224.986 391.962 224.105 391.607 223.781 390.844C201.503 338.517 218.902 276.565 266.181 251.683Z" fill="black"/><path id="Stroke 80" d="M642.68 511.957C643.459 511.957 644.1 512.552 644.173 513.313L644.18 513.457V631.837C644.18 632.666 643.508 633.337 642.68 633.337C641.9 633.337 641.259 632.742 641.186 631.982L641.18 631.837V513.457C641.18 512.629 641.851 511.957 642.68 511.957Z" fill="black"/><path id="Stroke 82" d="M684.45 511.957C685.23 511.957 685.87 512.552 685.943 513.313L685.95 513.457V631.837C685.95 632.666 685.278 633.337 684.45 633.337C683.67 633.337 683.03 632.742 682.957 631.982L682.95 631.837V513.457C682.95 512.629 683.622 511.957 684.45 511.957Z" fill="black"/><path id="Stroke 84" d="M726.219 511.957C726.999 511.957 727.64 512.552 727.713 513.313L727.719 513.457V631.837C727.719 632.666 727.048 633.337 726.219 633.337C725.44 633.337 724.799 632.742 724.726 631.982L724.719 631.837V513.457C724.719 512.629 725.391 511.957 726.219 511.957Z" fill="black"/><path id="Stroke 86" d="M767.998 511.957C768.778 511.957 769.418 512.552 769.491 513.313L769.498 513.457V631.837C769.498 632.666 768.826 633.337 767.998 633.337C767.218 633.337 766.578 632.742 766.505 631.982L766.498 631.837V513.457C766.498 512.629 767.17 511.957 767.998 511.957Z" fill="black"/><path id="Stroke 88" d="M809.767 511.957C810.547 511.957 811.188 512.552 811.26 513.313L811.267 513.457V631.837C811.267 632.666 810.596 633.337 809.767 633.337C808.988 633.337 808.347 632.742 808.274 631.982L808.267 631.837V513.457C808.267 512.629 808.939 511.957 809.767 511.957Z" fill="black"/><path id="Stroke 90" d="M851.537 511.957C852.317 511.957 852.957 512.552 853.03 513.313L853.037 513.457V631.837C853.037 632.666 852.365 633.337 851.537 633.337C850.757 633.337 850.116 632.742 850.044 631.982L850.037 631.837V513.457C850.037 512.629 850.708 511.957 851.537 511.957Z" fill="black"/><path id="Stroke 92" d="M851.537 511.957C852.365 511.957 853.037 512.629 853.037 513.457C853.037 514.237 852.442 514.878 851.681 514.95L851.537 514.957H642.68C641.852 514.957 641.18 514.286 641.18 513.457C641.18 512.678 641.775 512.037 642.535 511.964L642.68 511.957H851.537Z" fill="black"/><path id="Stroke 94" d="M851.537 535.637C852.365 535.637 853.037 536.308 853.037 537.137C853.037 537.917 852.442 538.557 851.681 538.63L851.537 538.637H642.68C641.852 538.637 641.18 537.965 641.18 537.137C641.18 536.357 641.775 535.716 642.535 535.644L642.68 535.637H851.537Z" fill="black"/><path id="Stroke 96" d="M851.537 559.307C852.365 559.307 853.037 559.978 853.037 560.807C853.037 561.586 852.442 562.227 851.681 562.3L851.537 562.307H642.68C641.852 562.307 641.18 561.635 641.18 560.807C641.18 560.027 641.775 559.386 642.535 559.314L642.68 559.307H851.537Z" fill="black"/><path id="Stroke 98" d="M851.537 582.987C852.365 582.987 853.037 583.659 853.037 584.487C853.037 585.267 852.442 585.908 851.681 585.981L851.537 585.987H642.68C641.852 585.987 641.18 585.316 641.18 584.487C641.18 583.708 641.775 583.067 642.535 582.994L642.68 582.987H851.537Z" fill="black"/><path id="Stroke 100" d="M851.537 606.657C852.365 606.657 853.037 607.329 853.037 608.157C853.037 608.937 852.442 609.578 851.681 609.651L851.537 609.657H642.68C641.852 609.657 641.18 608.986 641.18 608.157C641.18 607.378 641.775 606.737 642.535 606.664L642.68 606.657H851.537Z" fill="black"/><path id="Stroke 102" d="M851.537 630.337C852.365 630.337 853.037 631.009 853.037 631.837C853.037 632.617 852.442 633.257 851.681 633.33L851.537 633.337H642.68C641.852 633.337 641.18 632.665 641.18 631.837C641.18 631.057 641.775 630.417 642.535 630.344L642.68 630.337H851.537Z" fill="black"/><path id="Fill 104" fill-rule="evenodd" clip-rule="evenodd" d="M684.45 560.807H726.22V537.137H684.45V560.807Z" fill="black"/><path id="Fill 106" fill-rule="evenodd" clip-rule="evenodd" d="M767.997 584.482H809.767V560.812H767.997V584.482Z" fill="black"/><path id="Fill 107" fill-rule="evenodd" clip-rule="evenodd" d="M642.68 631.827H684.45V608.157H642.68V631.827Z" fill="black"/><path id="Fill 108" fill-rule="evenodd" clip-rule="evenodd" d="M641.059 702.368H853.295V656.442H641.059V702.368Z" fill="black"/><path id="Fill 109" fill-rule="evenodd" clip-rule="evenodd" d="M670.977 675.325V672.578C672.248 672.521 673.138 672.435 673.647 672.322C674.457 672.142 675.117 671.784 675.625 671.246C675.973 670.878 676.238 670.387 676.416 669.772C676.52 669.404 676.572 669.13 676.572 668.951H679.943V689.49H675.807V675.325H670.977Z" fill="white"/><path id="Fill 110" fill-rule="evenodd" clip-rule="evenodd" d="M694.481 684.837C694.868 686.089 695.661 686.714 696.861 686.714C698.059 686.714 698.845 686.089 699.218 684.837C699.591 683.586 699.778 681.78 699.778 679.419C699.778 676.945 699.591 675.113 699.218 673.923C698.845 672.733 698.059 672.138 696.861 672.138C695.661 672.138 694.868 672.733 694.481 673.923C694.093 675.113 693.9 676.945 693.9 679.419C693.9 681.78 694.093 683.586 694.481 684.837M702.364 671.571C703.417 673.413 703.943 676.029 703.943 679.419C703.943 682.81 703.417 685.421 702.364 687.253C701.31 689.085 699.476 690.001 696.861 690.001C694.245 690.001 692.41 689.085 691.357 687.253C690.304 685.421 689.778 682.81 689.778 679.419C689.778 676.029 690.304 673.413 691.357 671.571C692.41 669.731 694.245 668.81 696.861 668.81C699.476 668.81 701.31 669.731 702.364 671.571" fill="white"/><path id="Fill 111" fill-rule="evenodd" clip-rule="evenodd" d="M710.788 675.325V672.578C712.059 672.521 712.949 672.435 713.459 672.322C714.268 672.142 714.928 671.784 715.436 671.246C715.784 670.878 716.049 670.387 716.228 669.772C716.331 669.404 716.383 669.13 716.383 668.951H719.754V689.49H715.618V675.325H710.788Z" fill="white"/><path id="Fill 112" fill-rule="evenodd" clip-rule="evenodd" d="M734.292 684.837C734.68 686.089 735.473 686.714 736.672 686.714C737.871 686.714 738.656 686.089 739.03 684.837C739.403 683.586 739.59 681.78 739.59 679.419C739.59 676.945 739.403 675.113 739.03 673.923C738.656 672.733 737.871 672.138 736.672 672.138C735.473 672.138 734.68 672.733 734.292 673.923C733.904 675.113 733.711 676.945 733.711 679.419C733.711 681.78 733.904 683.586 734.292 684.837M742.175 671.571C743.228 673.413 743.755 676.029 743.755 679.419C743.755 682.81 743.228 685.421 742.175 687.253C741.122 689.085 739.287 690.001 736.672 690.001C734.056 690.001 732.222 689.085 731.168 687.253C730.115 685.421 729.59 682.81 729.59 679.419C729.59 676.029 730.115 673.413 731.168 671.571C732.222 669.731 734.056 668.81 736.672 668.81C739.287 668.81 741.122 669.731 742.175 671.571" fill="white"/><path id="Fill 113" fill-rule="evenodd" clip-rule="evenodd" d="M750.598 675.325V672.578C751.869 672.521 752.759 672.435 753.269 672.322C754.078 672.142 754.739 671.784 755.246 671.246C755.595 670.878 755.859 670.387 756.038 669.772C756.142 669.404 756.193 669.13 756.193 668.951H759.564V689.49H755.428V675.325H750.598Z" fill="white"/><path id="Fill 114" fill-rule="evenodd" clip-rule="evenodd" d="M774.103 684.837C774.49 686.089 775.283 686.714 776.482 686.714C777.681 686.714 778.467 686.089 778.84 684.837C779.213 683.586 779.4 681.78 779.4 679.419C779.4 676.945 779.213 675.113 778.84 673.923C778.467 672.733 777.681 672.138 776.482 672.138C775.283 672.138 774.49 672.733 774.103 673.923C773.714 675.113 773.521 676.945 773.521 679.419C773.521 681.78 773.714 683.586 774.103 684.837M781.985 671.571C783.038 673.413 783.565 676.029 783.565 679.419C783.565 682.81 783.038 685.421 781.985 687.253C780.932 689.085 779.097 690.001 776.482 690.001C773.867 690.001 772.032 689.085 770.979 687.253C769.925 685.421 769.4 682.81 769.4 679.419C769.4 676.029 769.925 673.413 770.979 671.571C772.032 669.731 773.867 668.81 776.482 668.81C779.097 668.81 780.932 669.731 781.985 671.571" fill="white"/><path id="Fill 115" fill-rule="evenodd" clip-rule="evenodd" d="M790.409 675.325V672.578C791.68 672.521 792.571 672.435 793.08 672.322C793.889 672.142 794.55 671.784 795.057 671.246C795.406 670.878 795.67 670.387 795.849 669.772C795.953 669.404 796.005 669.13 796.005 668.951H799.376V689.49H795.239V675.325H790.409Z" fill="white"/><path id="Fill 116" fill-rule="evenodd" clip-rule="evenodd" d="M813.914 684.837C814.301 686.089 815.094 686.714 816.294 686.714C817.492 686.714 818.278 686.089 818.651 684.837C819.024 683.586 819.211 681.78 819.211 679.419C819.211 676.945 819.024 675.113 818.651 673.923C818.278 672.733 817.492 672.138 816.294 672.138C815.094 672.138 814.301 672.733 813.914 673.923C813.525 675.113 813.332 676.945 813.332 679.419C813.332 681.78 813.525 683.586 813.914 684.837M821.796 671.571C822.849 673.413 823.376 676.029 823.376 679.419C823.376 682.81 822.849 685.421 821.796 687.253C820.743 689.085 818.908 690.001 816.294 690.001C813.678 690.001 811.843 689.085 810.79 687.253C809.737 685.421 809.211 682.81 809.211 679.419C809.211 676.029 809.737 673.413 810.79 671.571C811.843 669.731 813.678 668.81 816.294 668.81C818.908 668.81 820.743 669.731 821.796 671.571" fill="white"/><path id="Stroke 117" d="M242.509 657.492C243.076 656.802 244.104 656.764 244.722 657.377L244.827 657.492L254.688 669.492C255.214 670.132 255.121 671.077 254.481 671.603C253.881 672.096 253.013 672.046 252.473 671.51L252.37 671.397L243.667 660.806L234.963 671.397C234.397 672.087 233.368 672.125 232.75 671.512L232.646 671.397L223.945 660.807L215.245 671.397C214.678 672.086 213.65 672.125 213.032 671.512L212.927 671.397L204.222 660.806L195.515 671.397C194.949 672.086 193.92 672.125 193.302 671.512L193.198 671.397L184.493 660.806L175.783 671.397C175.217 672.086 174.189 672.125 173.571 671.512L173.466 671.397L163.596 659.397C163.07 658.758 163.162 657.812 163.802 657.286C164.402 656.793 165.27 656.843 165.81 657.378L165.913 657.492L174.624 668.082L183.335 657.492C183.902 656.802 184.93 656.764 185.548 657.377L185.652 657.492L194.356 668.082L203.064 657.492C203.631 656.803 204.659 656.764 205.277 657.377L205.381 657.492L214.085 668.082L222.787 657.492C223.353 656.802 224.382 656.764 225 657.377L225.105 657.492L233.804 668.082L242.509 657.492Z" fill="black"/><path id="Stroke 118" d="M163.802 681.846C164.402 681.352 165.27 681.402 165.81 681.938L165.913 682.051L174.624 692.642L183.335 682.051C183.902 681.362 184.93 681.324 185.548 681.937L185.652 682.052L194.357 692.642L203.064 682.051C203.631 681.362 204.659 681.324 205.277 681.937L205.381 682.052L214.085 692.641L222.787 682.052C223.353 681.362 224.382 681.324 225 681.937L225.105 682.052L233.804 692.641L242.509 682.052C243.076 681.362 244.104 681.324 244.722 681.937L244.827 682.052L254.688 694.052C255.214 694.692 255.121 695.637 254.481 696.163C253.881 696.656 253.013 696.606 252.473 696.07L252.37 695.956L243.667 685.366L234.963 695.956C234.397 696.646 233.368 696.684 232.75 696.071L232.646 695.956L223.945 685.367L215.245 695.956C214.678 696.646 213.65 696.684 213.032 696.071L212.927 695.956L204.222 685.366L195.515 695.957C194.949 696.646 193.92 696.684 193.302 696.071L193.198 695.956L184.493 685.366L175.783 695.957C175.217 696.646 174.189 696.684 173.571 696.072L173.466 695.957L163.596 683.957C163.07 683.317 163.162 682.372 163.802 681.846Z" fill="black"/><path id="Stroke 119" d="M688.21 756.235C688.989 756.235 689.63 756.83 689.703 757.591L689.71 757.735V787.464C689.71 788.292 689.038 788.964 688.21 788.964C687.43 788.964 686.789 788.369 686.717 787.608L686.71 787.464V757.735C686.71 756.907 687.381 756.235 688.21 756.235Z" fill="black"/><path id="Stroke 120" d="M696.867 769.172C697.267 768.447 698.179 768.183 698.905 768.584C699.587 768.96 699.861 769.791 699.557 770.492L699.493 770.622L689.82 788.143L689.685 788.406L689.515 788.706C689.106 789.427 688.191 789.68 687.47 789.272C686.792 788.888 686.528 788.054 686.839 787.356L686.905 787.227L687.041 786.991L687.168 786.742L696.867 769.172Z" fill="black"/><path id="Stroke 121" d="M673.25 769.517C673.86 769.035 674.727 769.103 675.256 769.649L675.357 769.765L689.219 787.325L689.379 787.524C689.898 788.17 689.795 789.114 689.15 789.633C688.544 790.12 687.677 790.06 687.143 789.519L687.041 789.404L686.93 789.263L686.862 789.183L673.002 771.623C672.489 770.973 672.6 770.03 673.25 769.517Z" fill="black"/><path id="Stroke 122" d="M198.135 755.691C198.299 754.879 199.091 754.354 199.903 754.519C200.667 754.674 201.177 755.384 201.097 756.144L201.075 756.287L194.82 787.104L194.821 787.464C194.821 788.244 194.226 788.884 193.465 788.957L193.321 788.964C192.541 788.964 191.9 788.369 191.828 787.608L191.821 787.464V786.954L191.828 786.804L191.851 786.656L198.135 755.691Z" fill="black"/><path id="Stroke 123" d="M204.919 775.927C205.552 775.393 206.498 775.472 207.033 776.105C207.535 776.698 207.496 777.567 206.968 778.114L206.856 778.218L194.789 788.417L194.626 788.706C194.241 789.385 193.408 789.649 192.71 789.337L192.581 789.272C191.903 788.888 191.639 788.054 191.95 787.356L192.016 787.227L192.149 786.996L192.249 786.796C192.317 786.66 192.406 786.535 192.511 786.425L192.622 786.321L204.919 775.927Z" fill="black"/><path id="Stroke 124" d="M178.361 769.517C178.971 769.035 179.838 769.103 180.367 769.649L180.468 769.765L194.33 787.325L194.49 787.524C195.009 788.17 194.906 789.114 194.26 789.633C193.655 790.12 192.788 790.06 192.254 789.519L192.152 789.404L192.041 789.263L191.973 789.183L178.113 771.623C177.6 770.973 177.711 770.03 178.361 769.517Z" fill="black"/><path id="Stroke 125" d="M837.39 255.772C837.883 255.106 838.822 254.965 839.488 255.458C840.115 255.922 840.277 256.781 839.883 257.436L839.802 257.556L818.099 286.901C817.607 287.567 816.668 287.707 816.001 287.215C815.375 286.751 815.213 285.892 815.607 285.237L815.687 285.117L837.39 255.772Z" fill="black"/><path id="Stroke 126" d="M824.117 314.708C824.391 313.978 825.174 313.588 825.911 313.788L826.049 313.833L860.209 326.688C860.984 326.979 861.376 327.844 861.084 328.62C860.81 329.35 860.027 329.74 859.29 329.54L859.152 329.495L824.992 316.64C824.217 316.349 823.825 315.484 824.117 314.708Z" fill="black"/><path id="Stroke 127" d="M864.924 286.154C865.719 285.919 866.553 286.373 866.788 287.168C867.009 287.916 866.619 288.699 865.91 288.984L865.774 289.031L827.456 300.342C826.661 300.577 825.827 300.123 825.593 299.328C825.372 298.58 825.761 297.797 826.47 297.512L826.606 297.465L864.924 286.154Z" fill="black"/><path id="Stroke 128" d="M196.848 463.561C197.667 463.438 198.431 464.003 198.554 464.823C198.669 465.594 198.176 466.315 197.434 466.5L197.292 466.528L161.196 471.931C160.377 472.054 159.613 471.489 159.491 470.67C159.375 469.899 159.869 469.177 160.61 468.992L160.752 468.964L196.848 463.561Z" fill="black"/><path id="Stroke 129" d="M195.954 403.666C196.664 403.344 197.493 403.622 197.873 404.285L197.939 404.413L213.003 437.658C213.345 438.413 213.01 439.302 212.256 439.644C211.546 439.965 210.716 439.688 210.336 439.025L210.27 438.897L195.206 405.652C194.864 404.897 195.199 404.008 195.954 403.666Z" fill="black"/><path id="Stroke 130" d="M162.61 428.944C162.983 428.259 163.811 427.981 164.514 428.28L164.644 428.343L199.736 447.44C200.464 447.836 200.733 448.747 200.337 449.475C199.964 450.16 199.135 450.438 198.433 450.139L198.302 450.076L163.21 430.979C162.483 430.583 162.214 429.672 162.61 428.944Z" fill="black"/><path id="Fill 131" fill-rule="evenodd" clip-rule="evenodd" d="M345.584 596.503C345.584 598.109 344.282 599.411 342.676 599.411C341.069 599.411 339.768 598.109 339.768 596.503C339.768 594.897 341.069 593.595 342.676 593.595C344.282 593.595 345.584 594.897 345.584 596.503" fill="black"/><path id="Fill 132" fill-rule="evenodd" clip-rule="evenodd" d="M389.68 578.217C389.67 578.787 389.63 579.337 389.54 579.867C387.89 580.177 386.12 580.337 384.27 580.337C376.36 580.337 369.77 577.337 368.28 573.347C369.95 572.097 371.92 570.837 374.47 569.547C381.61 565.947 384.05 566.847 384.87 567.238C388.43 568.917 389.76 574.357 389.68 578.217" fill="black"/><path id="Fill 133" fill-rule="evenodd" clip-rule="evenodd" d="M319.243 788.467H309.05C309.138 787.592 309.236 786.717 309.334 785.842C311.117 784.049 312.987 782.014 314.89 779.706C316.181 780.724 317.439 782.135 318.292 784.071C318.981 785.656 319.222 787.177 319.243 788.467" fill="black"/><path id="Fill 134" fill-rule="evenodd" clip-rule="evenodd" d="M347.055 788.467H336.862C336.95 787.592 337.048 786.717 337.146 785.842C338.929 784.049 340.799 782.014 342.702 779.706C343.992 780.724 345.25 782.135 346.103 784.071C346.793 785.656 347.033 787.177 347.055 788.467" fill="black"/><path id="Fill 135" fill-rule="evenodd" clip-rule="evenodd" d="M375.407 788.467H365.214C367.253 784.575 368.459 782.037 370.045 778.864C371.336 779.882 373.602 782.135 374.455 784.071C375.144 785.656 375.385 787.177 375.407 788.467" fill="black"/><path id="Fill 136" fill-rule="evenodd" clip-rule="evenodd" d="M533.236 274.999C531.434 274.581 529.54 274.08 527.569 273.479C526.143 273.044 524.782 272.588 523.486 272.121C523.632 273.78 524.24 276.529 525.429 278.723C527.403 282.361 529.986 283.991 531.381 285.325C532.307 280.506 532.312 279.26 533.236 274.999" fill="black"/><path id="Stroke 137" fill-rule="evenodd" clip-rule="evenodd" d="M524.11 279.437C522.96 277.314 522.189 274.488 521.992 272.252C521.896 271.161 522.964 270.338 523.995 270.71C525.314 271.185 526.649 271.63 528.007 272.044C529.875 272.614 531.732 273.11 533.575 273.537C534.374 273.723 534.876 274.515 534.702 275.317C534.337 277.001 534.111 278.217 533.849 279.826L533.434 282.392C533.339 282.965 533.261 283.418 533.179 283.874L532.854 285.608C532.63 286.774 531.203 287.23 530.345 286.409C530.225 286.295 530.091 286.173 529.918 286.023L528.692 284.977C527.827 284.229 527.133 283.562 526.451 282.788C525.565 281.783 524.787 280.685 524.11 279.437ZM526.081 274.586L525.39 274.36L525.513 274.829C525.823 275.957 526.246 277.081 526.748 278.007C527.313 279.05 527.961 279.964 528.701 280.804C528.941 281.077 529.329 281.46 529.765 281.872L530.383 282.446L530.977 278.806C531.124 277.927 531.266 277.139 531.434 276.295L531.469 276.114L530.6 275.894C529.832 275.694 529.062 275.482 528.291 275.258L527.132 274.913C526.78 274.806 526.43 274.697 526.081 274.586Z" fill="black"/></g></g></svg>