<svg viewBox="89.42500000000007 173.43820224719093 843.1500000000002 612.1348314606741" fill="none" xmlns="http://www.w3.org/2000/svg" xmlns:xlink="http://www.w3.org/1999/xlink" overflow="visible" width="843.1500000000002px" height="612.1348314606741px"><g id="Master/Scenes/Media"><g id="Background" transform="translate(272 173) scale(1 1)"><g id="Background/1"><path id="Fill 3" fill-rule="evenodd" clip-rule="evenodd" d="M401.585 21.6223C324.481 -31.5289 222.87 16.9322 174.633 129.863L174.597 129.947C172.327 135.265 168.47 139.362 163.384 141.797C138.795 153.569 115.027 169.313 93.1804 188.984C-8.18827 280.257 -29.8672 421.435 44.7573 504.314C119.382 587.193 262.052 580.389 363.421 489.117C415.428 442.289 446.46 382.325 454.271 323.837C454.585 321.484 455.157 319.254 455.993 317.194C501.368 205.349 477.522 73.9681 401.585 21.6223" fill="black" fill-opacity="0.04"/></g></g><g id="Group 80"><path id="Fill 4" fill-rule="evenodd" clip-rule="evenodd" d="M623.27 269.242C616.477 267.002 609.063 266.256 601.435 267.034C592.83 267.911 586.736 271.218 578.598 274.068C571.64 276.505 561.613 276.324 555.428 280.709C552.428 282.836 547.596 287.459 547.292 295.965C547.088 301.685 549.804 308.058 554.603 310.815C565.27 316.944 577.682 306.718 582.724 297.886C591.598 303.687 596.637 312.503 594.822 323.154C593.966 328.171 592.304 333.073 592.113 338.158C591.78 347.036 596.326 355.944 603.709 360.884C605.78 362.268 608.089 363.393 609.713 365.283C612.281 368.27 612.614 372.503 613.099 376.412C614.034 383.945 616.084 391.625 620.451 397.935C624.8 404.223 632.851 406.944 636.571 413.623C639.951 419.692 638.444 427.306 639.944 433.885C641.615 441.215 643.926 448.402 647.819 454.88C652.367 462.447 659.168 468.88 667.493 471.824C677.185 475.251 687.791 473.234 695.272 466.168C699.043 462.604 701.939 458.048 703.2 453.015C704.79 446.667 703.726 439.888 701.393 433.773C695.082 417.23 672.815 404.482 664.709 388.919C654.917 370.116 658.811 348.351 658.697 328.085C658.624 314.975 655.037 300.615 648.271 289.347C642.261 279.34 633.466 272.606 623.27 269.242" fill="black"/><path id="Stroke 6" d="M561.029 311.586C561.851 311.694 562.429 312.448 562.32 313.269C560.958 323.599 560.941 332.918 561.855 341.596L561.968 342.618C562.951 351.141 564.578 355.485 567.942 358.841C570.296 361.186 573.173 362.751 576.379 363.683C578.529 364.308 580.285 364.542 582.288 364.645C588.862 365.019 595 362.608 600.554 358.235C601.205 357.722 602.148 357.834 602.661 358.485C603.173 359.136 603.061 360.079 602.41 360.592C596.326 365.382 589.508 368.061 582.126 367.641C579.919 367.527 577.955 367.265 575.542 366.563C571.882 365.499 568.564 363.695 565.824 360.965C561.744 356.895 559.908 351.734 558.871 341.91C557.934 333.007 557.952 323.454 559.346 312.877C559.448 312.104 560.122 311.546 560.885 311.574L561.029 311.586Z" fill="black"/><path id="Stroke 8" d="M583.904 364.691C584.717 364.532 585.506 365.062 585.665 365.875C586.466 369.972 587.132 374.166 587.653 378.463C589.196 391.222 589.284 403.559 588.217 415.576C588.187 415.905 588.05 416.215 587.827 416.458C580.059 424.907 572.494 433.802 565.175 443.157C560.893 448.632 556.424 454.979 551.573 462.373L550.582 463.89C548.428 467.201 546.218 470.683 543.76 474.625L535.809 487.492C535.373 488.197 534.449 488.414 533.744 487.978C533.04 487.542 532.822 486.618 533.258 485.914L540.641 473.959L541.78 472.132C544.211 468.243 546.408 464.792 548.567 461.487L549.065 460.727C553.958 453.269 558.473 446.857 562.812 441.309C569.69 432.518 576.783 424.13 584.057 416.135L585.271 414.806L585.336 414.043C586.235 403.05 586.146 391.784 584.832 380.166L584.674 378.823C584.162 374.6 583.508 370.477 582.72 366.451C582.561 365.638 583.091 364.85 583.904 364.691Z" fill="black"/><path id="Stroke 10" d="M663.228 467.959C664.053 467.885 664.783 468.493 664.857 469.318C666.296 485.244 668.938 501.768 673.16 518.884C677.347 535.881 682.661 551.747 689.302 567.984L690.019 569.726C692.98 576.877 695.559 582.697 699.706 591.67L706.065 605.378C709.107 611.991 710.64 615.531 712.212 619.557L712.738 620.925C718.101 635.111 718.517 644.274 713.114 651.854C707.53 659.688 696.887 663.857 682.985 665.29C678.017 665.802 672.911 665.927 667.877 665.76C664.567 665.65 661.866 665.441 659.688 665.204C655.759 664.77 652.619 664.115 649.197 663.073L648.509 662.86C646.749 662.303 639.706 659.802 637.795 659.168C632.589 657.442 627.129 655.907 620.207 654.315L618.667 653.964C608.15 651.588 603.066 650.906 593.549 650.161L592.158 650.054C588.301 649.761 586.547 649.445 584.549 648.511C583.497 648.02 582.463 647.366 581.337 646.484C576.845 642.964 574.145 638.406 572.621 632.203L572.496 631.682C571.419 627.035 571.005 622.496 570.649 612.966L570.423 606.476C569.792 589.055 569.022 579.895 566.618 566.639L566.497 565.973C563.516 549.686 559.086 535.361 553.663 522.049C553.351 521.282 553.719 520.406 554.487 520.094C555.254 519.781 556.129 520.15 556.442 520.917C561.937 534.408 566.426 548.925 569.448 565.432L569.691 566.775C571.991 579.622 572.769 588.78 573.388 605.48L573.666 613.349C574.01 622.34 574.416 626.68 575.419 631.004C576.773 636.845 579.15 640.958 583.187 644.122C584.143 644.871 584.987 645.405 585.819 645.794L586.156 645.944C587.616 646.568 589.121 646.815 592.385 647.062L594.432 647.221C603.9 647.977 609.139 648.714 620.105 651.214L620.88 651.391C627.309 652.87 632.51 654.304 637.41 655.886L638.739 656.321C640.699 656.971 647.714 659.462 649.413 659.999C652.925 661.109 656.027 661.781 660.015 662.222L660.829 662.307C662.788 662.501 665.152 662.668 667.976 662.762C672.883 662.925 677.856 662.803 682.678 662.306C695.803 660.953 705.71 657.072 710.671 650.112C715.409 643.466 714.961 635.098 709.729 621.453L708.933 619.42C707.212 615.105 705.33 610.899 701.226 602.063L696.978 592.918C692.818 583.915 690.226 578.067 687.247 570.873C680.216 553.894 674.622 537.363 670.247 519.602C665.987 502.331 663.322 485.659 661.869 469.588C661.795 468.763 662.403 468.034 663.228 467.959Z" fill="black"/><path id="Stroke 12" d="M582.171 643.378C582.577 644.1 582.321 645.014 581.599 645.42L547.62 664.549C506.308 687.859 497.497 693.333 483.324 704.752C482.514 705.403 481.673 706.05 480.783 706.709L480.019 707.269C479.245 707.831 478.429 708.407 477.503 709.047L473.388 711.861L472.41 712.539C465.395 717.445 461.838 720.962 459.175 726.4L458.995 726.774C458.603 727.589 458.246 728.389 457.838 729.425C456.455 732.921 455.454 736.788 455.118 740.895C454.668 746.414 455.495 751.782 457.898 756.818C460.357 761.978 463.925 765.844 468.06 768.809L468.549 769.153H645.352L645.352 714.253C645.352 713.473 645.947 712.833 646.708 712.76L646.852 712.753C647.632 712.753 648.273 713.348 648.346 714.109L648.352 714.253V770.653C648.352 771.433 647.758 772.074 646.997 772.146L646.852 772.153H468.083C467.784 772.153 467.492 772.064 467.244 771.896C462.336 768.582 458.078 764.17 455.19 758.109C452.545 752.566 451.638 746.672 452.128 740.651C452.491 736.221 453.564 732.074 455.048 728.324C455.43 727.352 455.773 726.569 456.133 725.806L456.288 725.48C459.304 719.126 463.285 715.212 471.18 709.74L475.331 706.901C476.751 705.924 477.897 705.112 478.998 704.298C479.857 703.662 480.666 703.04 481.442 702.415L483.174 701.028C496.567 690.378 506.374 684.378 546.138 661.941L580.128 642.806C580.85 642.4 581.765 642.656 582.171 643.378Z" fill="black"/><path id="Stroke 14" d="M694.707 660.822C694.907 660.018 695.721 659.528 696.525 659.728C697.329 659.928 697.819 660.741 697.619 661.545C693.609 677.682 686.127 691.646 674.161 702.03L673.361 702.713C673.206 702.84 673.015 702.99 672.608 703.307C670.33 705.001 666.905 706.94 662.646 708.998L662.152 709.246C661.853 709.393 661.508 709.557 660.973 709.81L659.505 710.493C657.76 711.295 655.899 712.115 653.921 712.957L651.322 714.052C650.289 714.483 649.203 714.925 647.953 715.427L647.407 715.646C643.263 717.295 639.071 718.859 635.737 720.023L633.739 720.695C633.464 720.785 633.232 720.859 633.028 720.922L632.908 720.959C614.357 726.578 596.821 729.398 579.778 730.37C578.951 730.417 578.242 729.785 578.195 728.958C578.147 728.131 578.78 727.422 579.607 727.375C596.016 726.439 612.888 723.767 630.7 718.489L632.037 718.088C632.576 717.925 633.354 717.666 634.759 717.187L635.952 716.766C638.814 715.748 642.191 714.482 645.571 713.147L646.295 712.86C647.765 712.272 649 711.77 650.169 711.282L651.035 710.919C653.926 709.71 656.572 708.551 658.978 707.432L660.422 706.75C660.774 706.582 661.022 706.459 661.31 706.312L662.326 705.816C665.982 704.007 668.894 702.331 670.79 700.921L671.434 700.413C671.509 700.352 671.57 700.301 671.643 700.239C683.413 690.255 690.774 676.651 694.707 660.822Z" fill="black"/><path id="Stroke 16" d="M480.223 614.128C480.234 612.921 481.595 612.222 482.584 612.915C495.059 621.659 508.166 629.954 521.969 637.726C533.868 644.434 545.852 650.505 557.925 656.008C558.679 656.352 559.011 657.241 558.668 657.995C558.324 658.749 557.434 659.081 556.681 658.738C544.531 653.2 532.471 647.091 520.497 640.34C507.995 633.301 496.061 625.835 484.647 617.998L483.189 616.991L483.181 617.689C483.052 627.103 482.766 636.49 482.317 645.88L482.141 649.401C481.093 669.547 479.329 689.371 476.901 708.848C476.799 709.671 476.049 710.254 475.227 710.151C474.405 710.049 473.822 709.299 473.924 708.477C476.344 689.071 478.1 669.319 479.145 649.245C479.756 637.549 480.109 625.863 480.223 614.128Z" fill="black"/><path id="Stroke 18" d="M443.047 571.012C451.457 555.088 470.779 549.515 491.34 553.977C518.651 559.889 545.792 569.599 571.212 582.505C571.951 582.88 572.246 583.783 571.871 584.522C571.496 585.26 570.593 585.555 569.854 585.18C544.662 572.389 517.764 562.766 490.705 556.909C471.321 552.702 453.376 557.878 445.699 572.413C442.299 578.848 440.637 586.239 439.737 596.614C438.036 616.124 437.341 634.183 437.757 651.348L438.177 667C438.336 673.35 438.42 677.729 438.483 682.865L438.516 685.961C438.584 693.616 438.542 700.648 438.372 707.428L438.345 708.433L473.543 708.434C474.323 708.434 474.964 709.028 475.036 709.789L475.043 709.934C475.043 710.713 474.448 711.354 473.688 711.427L473.543 711.434H436.803C435.957 711.434 435.278 710.734 435.304 709.889C435.543 701.889 435.599 693.593 435.5 684.367L435.407 677.683C435.338 673.616 435.242 669.412 435.087 663.543L434.804 653.147C434.293 635.347 434.981 616.622 436.749 596.354L436.881 594.908C437.842 584.914 439.586 577.563 443.047 571.012Z" fill="black"/><path id="Stroke 20" d="M437.405 709.274C437.74 708.588 438.549 708.255 439.279 708.528C440.009 708.802 440.4 709.584 440.202 710.321L440.158 710.456L428.784 740.803C428.66 741.146 428.415 741.431 428.098 741.606L427.958 741.674L386.969 759.054C382.902 760.779 380.201 764.66 379.969 769.03L379.964 769.153L475.413 769.153C476.193 769.153 476.833 769.748 476.906 770.509L476.913 770.653C476.913 771.433 476.318 772.074 475.557 772.146L475.413 772.153H378.453C377.673 772.153 377.032 771.558 376.96 770.798L376.953 770.653V769.643C376.953 763.933 380.301 758.77 385.49 756.427L385.797 756.292L426.191 739.165L430.528 727.624L437.349 709.404L437.405 709.274Z" fill="black"/><path id="Stroke 22" d="M426.368 738.72C426.591 737.922 427.418 737.455 428.216 737.678C431.662 738.64 435.268 739.322 439.002 739.669C443.951 740.13 448.763 739.969 453.406 739.289C454.225 739.169 454.987 739.736 455.107 740.555C455.227 741.375 454.66 742.137 453.841 742.257C448.968 742.971 443.918 743.14 438.724 742.656C434.806 742.292 431.025 741.577 427.41 740.568C426.612 740.345 426.146 739.518 426.368 738.72Z" fill="black"/><path id="Stroke 24" d="M650.404 711.415C650.894 710.747 651.833 710.603 652.501 711.093C656.858 714.29 661.12 717.574 665.553 721.134L666.889 722.21C669.979 724.71 673.076 727.277 676.773 730.392L685.688 737.926C707.428 756.29 710.922 759.026 724.777 768.975C725.961 769.825 725.36 771.694 723.902 771.694L718.169 771.707C714.547 771.726 711.939 771.77 709.142 771.847L704.265 771.995C700.828 772.093 697.854 772.138 693.022 772.15L689.993 772.154C685.668 772.154 682.705 769.905 679.119 765.148L678.696 764.58C678.251 763.973 677.35 762.732 677.147 762.456C672.132 755.679 665.002 751.081 654.854 747.356L653.698 746.941C653.41 746.84 653.115 746.739 652.778 746.626L649.12 745.417C648.002 745.042 647.173 744.746 646.31 744.411C645.538 744.112 645.154 743.243 645.454 742.47C645.753 741.698 646.622 741.315 647.395 741.614L647.84 741.784C648.659 742.093 649.513 742.389 650.714 742.786L653.746 743.786C654.298 743.971 654.744 744.127 655.229 744.301C666.011 748.172 673.724 753.008 679.231 760.236L679.8 761.001C680.192 761.538 680.881 762.488 681.191 762.908L681.265 763.009C684.45 767.304 686.802 769.154 689.993 769.154L694.882 769.143C698.864 769.124 701.551 769.075 704.733 768.98L708.531 768.863C711.3 768.783 713.82 768.736 717.199 768.713L719.265 768.701L715.757 766.146C707.209 759.867 701.554 755.248 685.11 741.365L675.462 733.21C671.71 730.044 668.59 727.453 665.514 724.958L665.002 724.543C660.12 720.593 655.479 716.999 650.726 713.512C650.058 713.022 649.914 712.083 650.404 711.415Z" fill="black"/><path id="Stroke 26" d="M694.744 769.153C695.572 769.153 696.244 769.825 696.244 770.653C696.244 771.433 695.649 772.074 694.888 772.146L694.744 772.153H646.853C646.024 772.153 645.353 771.482 645.353 770.653C645.353 769.874 645.948 769.233 646.708 769.16L646.853 769.153H694.744Z" fill="black"/><path id="Stroke 28" d="M550.329 477.772C551.013 477.304 551.946 477.479 552.414 478.163C556.353 483.922 559.975 490.088 563.213 496.721C566.291 503.022 568.636 508.801 570.634 514.871C570.893 515.658 570.465 516.506 569.678 516.765C568.891 517.023 568.043 516.595 567.784 515.808C565.829 509.867 563.536 504.216 560.517 498.038C557.345 491.539 553.797 485.499 549.938 479.856C549.47 479.173 549.645 478.239 550.329 477.772Z" fill="black"/><path id="Stroke 30" d="M363.759 400.229C360.821 396.032 365.915 390.601 370.161 393.546C370.335 393.665 370.497 393.794 370.642 393.93C377.546 400.339 383.382 407.89 387.844 416.185L388.461 417.349C389.72 419.761 390.848 422.164 392.493 425.878L394.789 431.106C400.037 442.981 403.095 448.379 408.263 453.677L408.527 453.947C413.862 459.341 420.315 463.784 430.367 469.429L432.38 470.55C434.06 471.477 440.518 474.981 442.038 475.82L443.198 476.462C443.76 476.775 444.299 477.077 444.82 477.372L449.473 480.03C451.158 480.981 452.878 481.927 455.481 483.335L465.704 488.841C476.346 494.596 482.467 498.189 489.221 502.824C492.708 505.218 497.19 505.544 500.951 503.688L501.263 503.528L575.578 464.644C576.312 464.26 577.219 464.544 577.603 465.278C577.964 465.969 577.734 466.812 577.094 467.229L576.969 467.303L502.662 506.182C497.857 508.736 492.026 508.388 487.523 505.297L486.332 504.486C480.133 500.301 474.191 496.842 464.265 491.473L452.93 485.365C450.561 484.078 448.949 483.185 447.243 482.215L443.85 480.271C443.011 479.793 442.128 479.298 441.172 478.768L437.096 476.54C434.732 475.253 431.956 473.742 430.931 473.177L429.55 472.41C418.897 466.463 412.088 461.814 406.394 456.056L405.845 455.493C400.517 449.956 397.351 444.327 392.048 432.325L389.957 427.561C388.025 423.186 386.821 420.637 385.354 417.891L385.202 417.606C381.045 409.877 375.65 402.817 369.282 396.769L368.597 396.124C368.56 396.09 368.516 396.056 368.459 396.016C367.017 395.016 365.159 396.997 366.216 398.508L366.53 398.949C366.673 399.148 366.826 399.357 367.002 399.593L368.324 401.354C370.145 403.799 371.01 405.171 371.776 407.021L372.056 407.71C373.873 412.297 374.785 416.758 375.745 424.417L376.246 428.562C377.955 442.506 379.773 448.618 385.33 454.839L385.574 455.11C388.933 458.801 392.435 461.514 399.112 465.895L403.118 468.497L403.923 469.026C408.063 471.767 411.913 474.68 417.589 479.252L422.427 483.171C438.703 496.353 454.374 509.242 469.579 521.961L474.371 525.976C479.923 530.638 485.345 535.224 490.66 539.755C493.912 542.527 498.403 543.289 502.363 541.761L502.674 541.635L581.316 508.632C582.08 508.312 582.959 508.671 583.28 509.435C583.581 510.154 583.281 510.975 582.608 511.336L582.477 511.399L503.835 544.402C498.756 546.533 492.911 545.617 488.714 542.038C481.887 536.219 474.884 530.309 467.654 524.262C453.412 512.348 438.758 500.284 423.581 487.969L415.714 481.594C410.104 477.075 406.316 474.209 402.268 471.528L397.439 468.385C390.574 463.88 386.925 461.052 383.355 457.129C379.74 453.156 377.346 448.555 375.765 443.013L375.521 442.133C374.632 438.836 374.114 435.768 373.431 430.273L372.84 425.361C371.86 417.41 370.969 413.015 369.14 408.5L369.005 408.17C368.385 406.673 367.652 405.489 366.109 403.404L364.532 401.299C364.238 400.902 364.002 400.575 363.759 400.229Z" fill="black"/><path id="Stroke 32" d="M620.822 399.615C621.442 399.066 622.39 399.123 622.939 399.743C623.489 400.363 623.432 401.311 622.812 401.86C618.905 405.324 613.515 408.778 607.062 411.917L606.352 412.256C601.07 414.732 596.64 415.711 587.582 416.661C586.758 416.747 586.02 416.149 585.934 415.325C585.848 414.501 586.446 413.763 587.269 413.677L588.96 413.493C596.759 412.611 600.668 411.649 605.417 409.379L605.75 409.219C611.972 406.193 617.136 402.883 620.822 399.615Z" fill="black"/><path id="Stroke 46" fill-rule="evenodd" clip-rule="evenodd" d="M151.952 547.967L178.741 455.417C178.972 454.621 179.803 454.162 180.599 454.393L273.15 481.181C273.946 481.411 274.404 482.243 274.174 483.039L247.385 575.59C247.155 576.385 246.323 576.844 245.527 576.613L152.976 549.824C152.18 549.594 151.722 548.762 151.952 547.967ZM270.875 483.645L181.205 457.691L155.25 547.359L244.92 573.314L270.875 483.645Z" fill="black"/><path id="Stroke 47" d="M193.622 497.769C194.299 497.403 195.134 497.611 195.565 498.23L195.641 498.35L210.852 525.249C211.26 525.97 211.006 526.886 210.285 527.293C209.606 527.677 208.755 527.475 208.318 526.848L208.241 526.726L193.753 501.108L163.432 517.491C162.746 517.862 161.9 517.643 161.474 517.009L161.4 516.885C161.029 516.199 161.248 515.352 161.883 514.927L162.006 514.852L193.622 497.769Z" fill="black"/><path id="Stroke 48" d="M227.167 514.764C227.843 514.398 228.678 514.606 229.109 515.224L229.185 515.345L245.358 543.94C245.766 544.661 245.512 545.576 244.791 545.984C244.113 546.368 243.262 546.166 242.824 545.539L242.747 545.417L227.298 518.102L181.213 543.004C180.527 543.375 179.68 543.156 179.255 542.521L179.18 542.397C178.809 541.711 179.028 540.865 179.663 540.439L179.787 540.365L227.167 514.764Z" fill="black"/><path id="Fill 49" fill-rule="evenodd" clip-rule="evenodd" d="M250.727 500.038C249.408 504.596 244.643 507.221 240.085 505.901C235.527 504.583 232.901 499.818 234.221 495.26C235.54 490.702 240.305 488.076 244.863 489.395C249.421 490.715 252.046 495.479 250.727 500.038" fill="black"/><path id="Stroke 50" d="M367.285 293.469C368.039 293.271 368.81 293.684 369.074 294.401L369.117 294.539L398.768 407.374C398.979 408.175 398.5 408.995 397.699 409.206C396.945 409.404 396.174 408.991 395.91 408.274L395.867 408.136L366.596 296.751L256.663 325.64L285.552 435.574L356.401 416.956C357.155 416.758 357.926 417.171 358.19 417.888L358.233 418.026C358.431 418.78 358.019 419.551 357.302 419.814L357.164 419.858L284.864 438.857C284.11 439.055 283.339 438.642 283.075 437.925L283.032 437.787L253.381 324.952C253.183 324.198 253.595 323.427 254.312 323.164L254.45 323.12L367.285 293.469Z" fill="black"/><path id="Stroke 51" fill-rule="evenodd" clip-rule="evenodd" d="M315.997 391.704L304.743 348.875C304.45 347.758 305.475 346.743 306.589 347.047L349.307 358.715C350.421 359.019 350.788 360.415 349.967 361.228L318.503 392.389C317.683 393.201 316.291 392.821 315.997 391.704ZM346.011 360.924L308.304 350.625L318.238 388.429L346.011 360.924Z" fill="black"/><path id="Fill 52" fill-rule="evenodd" clip-rule="evenodd" d="M210.648 386.924C210.648 397.491 202.081 406.059 191.513 406.059C180.945 406.059 172.378 397.491 172.378 386.924C172.378 376.356 180.945 367.789 191.513 367.789C202.081 367.789 210.648 376.356 210.648 386.924" fill="black"/><path id="Fill 53" fill-rule="evenodd" clip-rule="evenodd" d="M356.454 522.403C356.454 529.239 350.912 534.781 344.077 534.781C337.241 534.781 331.699 529.239 331.699 522.403C331.699 515.567 337.241 510.026 344.077 510.026C350.912 510.026 356.454 515.567 356.454 522.403" fill="black"/><path id="Fill 54" fill-rule="evenodd" clip-rule="evenodd" d="M477.346 355.675C477.346 363.639 470.889 370.095 462.925 370.095C454.961 370.095 448.505 363.639 448.505 355.675C448.505 347.71 454.961 341.254 462.925 341.254C470.889 341.254 477.346 347.71 477.346 355.675" fill="black"/><path id="Stroke 55" d="M417.317 529.569C418.008 529.208 418.851 529.44 419.267 530.081L419.34 530.206L428.84 548.444C429.223 549.179 428.937 550.084 428.203 550.467C427.511 550.827 426.668 550.596 426.252 549.955L426.179 549.83L417.372 532.922L353.09 566.408L386.575 630.691L415.578 615.584C416.269 615.223 417.112 615.455 417.528 616.096L417.601 616.221C417.961 616.912 417.73 617.755 417.089 618.171L416.964 618.244L386.631 634.045C385.939 634.405 385.096 634.174 384.68 633.533L384.607 633.408L349.736 566.464C349.376 565.772 349.608 564.929 350.249 564.513L350.374 564.441L417.317 529.569Z" fill="black"/><path id="Stroke 56" d="M380.482 582.033C381.174 581.673 382.017 581.904 382.433 582.545L382.505 582.67L390.108 597.266C390.491 598.001 390.206 598.907 389.471 599.289C388.779 599.65 387.936 599.418 387.52 598.777L387.448 598.652L379.845 584.056C379.462 583.321 379.747 582.415 380.482 582.033Z" fill="black"/><path id="Stroke 57" d="M386.024 571.93C386.715 571.57 387.558 571.802 387.974 572.443L388.047 572.568L401.563 598.515C401.946 599.249 401.661 600.155 400.926 600.538C400.234 600.898 399.391 600.667 398.975 600.025L398.903 599.901L385.387 573.954C385.004 573.219 385.289 572.313 386.024 571.93Z" fill="black"/><path id="Stroke 58" d="M397.48 573.179C398.171 572.819 399.014 573.051 399.43 573.692L399.503 573.817L407.106 588.412C407.489 589.146 407.203 590.052 406.469 590.435C405.777 590.795 404.934 590.564 404.518 589.923L404.445 589.798L396.842 575.203C396.459 574.468 396.745 573.562 397.48 573.179Z" fill="black"/><path id="Stroke 59" d="M403.022 563.076C403.713 562.716 404.556 562.947 404.972 563.588L405.045 563.713L418.561 589.66C418.944 590.395 418.658 591.301 417.924 591.683C417.232 592.044 416.389 591.812 415.973 591.171L415.9 591.046L402.384 565.099C402.001 564.364 402.287 563.458 403.022 563.076Z" fill="black"/><path id="Stroke 60" d="M414.477 564.325C415.168 563.965 416.011 564.196 416.427 564.837L416.5 564.962L424.103 579.558C424.486 580.293 424.2 581.199 423.466 581.581C422.774 581.942 421.931 581.71 421.515 581.069L421.442 580.944L413.839 566.348C413.457 565.613 413.742 564.707 414.477 564.325Z" fill="black"/><path id="Fill 61" fill-rule="evenodd" clip-rule="evenodd" d="M468.083 770.653H378.453V769.643C378.453 764.423 381.573 759.713 386.383 757.673L427.373 740.293C427.503 739.932 427.653 739.543 427.813 739.123C431.073 740.033 434.783 740.783 438.863 741.163C444.343 741.673 449.323 741.403 453.623 740.773C453.213 745.802 453.763 751.632 456.543 757.463C459.883 764.472 465.093 768.632 468.083 770.653" fill="black"/><path id="Fill 62" fill-rule="evenodd" clip-rule="evenodd" d="M723.903 770.193C703.744 770.193 709.143 770.653 689.994 770.653C684.454 770.653 681.263 765.503 678.353 761.563C672.433 753.563 663.914 749.012 654.723 745.713C652.133 744.783 649.433 744.012 646.853 743.012V714.253C648.403 713.632 650.004 712.983 651.614 712.302C676.803 730.783 693.013 748.012 723.903 770.193" fill="black"/><path id="Stroke 70" d="M926.744 769.153C927.573 769.153 928.244 769.825 928.244 770.653C928.244 771.433 927.649 772.074 926.889 772.146L926.744 772.153H95.5002C94.6718 772.153 94.0002 771.482 94.0002 770.653C94.0002 769.874 94.5951 769.233 95.3558 769.16L95.5002 769.153H926.744Z" fill="black"/><path id="Stroke 71" fill-rule="evenodd" clip-rule="evenodd" d="M131.249 649.511H323.946C324.774 649.511 325.446 650.183 325.446 651.011V770.653C325.446 771.481 324.774 772.153 323.946 772.153H131.249C130.421 772.153 129.749 771.481 129.749 770.653V651.011C129.749 650.183 130.421 649.511 131.249 649.511ZM322.445 769.153V652.511H132.748V769.153H322.445Z" fill="black"/><path id="Stroke 72" d="M191.513 649.512C192.293 649.512 192.934 650.107 193.006 650.868L193.013 651.012V770.653C193.013 771.482 192.342 772.153 191.513 772.153C190.734 772.153 190.093 771.558 190.02 770.798L190.013 770.653V651.012C190.013 650.184 190.685 649.512 191.513 649.512Z" fill="black"/><path id="Stroke 73" fill-rule="evenodd" clip-rule="evenodd" d="M111.249 615.585H171.513C172.044 615.585 172.536 615.866 172.806 616.323L192.806 650.25C193.395 651.25 192.674 652.512 191.513 652.512H131.249C130.718 652.512 130.227 652.231 129.957 651.774L109.957 617.847C109.368 616.847 110.089 615.585 111.249 615.585ZM188.888 649.511L170.656 618.584H113.874L132.105 649.511H188.888Z" fill="black"/><path id="Stroke 74" fill-rule="evenodd" clip-rule="evenodd" d="M283.564 615.585H343.828C344.989 615.585 345.71 616.847 345.12 617.847L325.12 651.774C324.851 652.231 324.359 652.512 323.828 652.512H263.564C262.403 652.512 261.683 651.25 262.272 650.25L282.272 616.323C282.542 615.866 283.033 615.585 283.564 615.585ZM322.971 649.511L341.202 618.584H284.421L266.189 649.511H322.971Z" fill="black"/><path id="Fill 75" fill-rule="evenodd" clip-rule="evenodd" d="M131.249 770.653H191.513V651.011H131.249V770.653Z" fill="black"/><path id="Stroke 76" fill-rule="evenodd" clip-rule="evenodd" d="M244.052 649.513H269.694C270.523 649.513 271.194 650.185 271.194 651.013V679.829C271.194 680.919 270.069 681.645 269.076 681.196L256.873 675.676L244.671 681.196C243.717 681.627 242.642 680.975 242.558 679.958L242.552 679.829V651.013C242.552 650.185 243.224 649.513 244.052 649.513ZM268.194 677.504V652.512H245.552V677.504L256.255 672.664C256.599 672.509 256.987 672.489 257.342 672.606L257.492 672.664L268.194 677.504Z" fill="black"/><path id="Stroke 77" fill-rule="evenodd" clip-rule="evenodd" d="M244.052 739.931H269.694C270.522 739.931 271.194 740.603 271.194 741.431V770.246C271.194 771.074 270.522 771.746 269.694 771.746H244.052C243.224 771.746 242.552 771.074 242.552 770.246V741.431C242.552 740.603 243.224 739.931 244.052 739.931ZM268.193 768.746V742.931H245.551V768.746H268.193Z" fill="black"/><path id="Fill 78" fill-rule="evenodd" clip-rule="evenodd" d="M584.193 366.163C586.771 366.059 590.625 365.69 594.618 363.67C598.146 361.885 602.198 358.197 604.214 356.757C604.214 360.027 602.428 366.183 598.854 370.593C594.069 376.498 588.108 378.363 586.407 378.82C585.579 373.625 586.075 376.394 585.515 373.279C584.993 370.369 584.975 369.698 584.193 366.163" fill="black"/><path id="Stroke 79" fill-rule="evenodd" clip-rule="evenodd" d="M602.998 355.794L603.342 355.536C604.335 354.827 605.714 355.537 605.714 356.757C605.714 360.952 603.438 367.319 600.019 371.537C596.028 376.462 591.285 379.062 586.796 380.269C585.936 380.5 585.065 379.935 584.925 379.056C584.739 377.886 584.606 377.038 584.514 376.425L584.375 375.482L583.86 372.526L583.482 370.266C583.35 369.493 583.216 368.781 583.036 367.919L582.728 366.487C582.526 365.575 583.198 364.702 584.132 364.664C587.774 364.517 590.831 363.905 593.94 362.331C594.574 362.011 595.262 361.605 596.004 361.117C596.818 360.581 597.682 359.958 598.642 359.224C598.92 359.011 599.574 358.492 600.314 357.906C601.279 357.14 602.389 356.26 602.998 355.794ZM602.15 360.557L602.237 360.209L600.756 361.38L600.037 361.931C599.191 362.569 598.408 363.127 597.652 363.624C596.821 364.17 596.038 364.632 595.295 365.008C592.358 366.494 589.491 367.225 586.309 367.526L586.023 367.55L586.152 368.194C586.257 368.728 586.348 369.23 586.439 369.757L586.902 372.511L587.286 374.673L587.616 376.864L587.863 376.774C588.638 376.481 589.457 376.117 590.318 375.667L590.752 375.434C593.317 374.028 595.679 372.127 597.688 369.648C599.742 367.114 601.347 363.627 602.15 360.557Z" fill="black"/></g><g id="Element" transform="translate(714 369) scale(1 1)"><g id="Element/Plant"><g id="Group"><path id="Stroke 34" fill-rule="evenodd" clip-rule="evenodd" d="M68 223.677H185.5C186.328 223.677 187 224.348 187 225.177V402.428C187 403.256 186.328 403.928 185.5 403.928H68C67.1716 403.928 66.5 403.256 66.5 402.428V225.177C66.5 224.348 67.1716 223.677 68 223.677ZM184 400.927V226.676H69.5V400.927H184Z" fill="black"/><path id="Fill 36" fill-rule="evenodd" clip-rule="evenodd" d="M68 351.172H185.5V324.536H68V351.172Z" fill="black"/><path id="Fill 37" fill-rule="evenodd" clip-rule="evenodd" d="M68 303.068H185.5V276.433H68V303.068Z" fill="black"/><path id="Fill 38" fill-rule="evenodd" clip-rule="evenodd" d="M94.5848 376.8C94.5848 380.438 91.6358 383.387 87.9968 383.387C84.3588 383.387 81.4098 380.438 81.4098 376.8C81.4098 373.162 84.3588 370.213 87.9968 370.213C91.6358 370.213 94.5848 373.162 94.5848 376.8" fill="black"/><path id="Fill 39" fill-rule="evenodd" clip-rule="evenodd" d="M120.42 376.8C120.42 380.438 117.471 383.387 113.832 383.387C110.194 383.387 107.245 380.438 107.245 376.8C107.245 373.162 110.194 370.213 113.832 370.213C117.471 370.213 120.42 373.162 120.42 376.8" fill="black"/><path id="Fill 40" fill-rule="evenodd" clip-rule="evenodd" d="M146.255 376.8C146.255 380.438 143.306 383.387 139.667 383.387C136.029 383.387 133.08 380.438 133.08 376.8C133.08 373.162 136.029 370.213 139.667 370.213C143.306 370.213 146.255 373.162 146.255 376.8" fill="black"/><path id="Fill 41" fill-rule="evenodd" clip-rule="evenodd" d="M172.09 376.8C172.09 380.438 169.141 383.387 165.502 383.387C161.864 383.387 158.915 380.438 158.915 376.8C158.915 373.162 161.864 370.213 165.502 370.213C169.141 370.213 172.09 373.162 172.09 376.8" fill="black"/><path id="Fill 42" fill-rule="evenodd" clip-rule="evenodd" d="M94.5848 250.805C94.5848 254.443 91.6358 257.392 87.9968 257.392C84.3588 257.392 81.4098 254.443 81.4098 250.805C81.4098 247.166 84.3588 244.217 87.9968 244.217C91.6358 244.217 94.5848 247.166 94.5848 250.805" fill="black"/><path id="Fill 43" fill-rule="evenodd" clip-rule="evenodd" d="M120.42 250.805C120.42 254.443 117.471 257.392 113.832 257.392C110.194 257.392 107.245 254.443 107.245 250.805C107.245 247.166 110.194 244.217 113.832 244.217C117.471 244.217 120.42 247.166 120.42 250.805" fill="black"/><path id="Fill 44" fill-rule="evenodd" clip-rule="evenodd" d="M146.255 250.805C146.255 254.443 143.306 257.392 139.667 257.392C136.029 257.392 133.08 254.443 133.08 250.805C133.08 247.166 136.029 244.217 139.667 244.217C143.306 244.217 146.255 247.166 146.255 250.805" fill="black"/><path id="Fill 45" fill-rule="evenodd" clip-rule="evenodd" d="M172.09 250.805C172.09 254.443 169.141 257.392 165.502 257.392C161.864 257.392 158.915 254.443 158.915 250.805C158.915 247.166 161.864 244.217 165.502 244.217C169.141 244.217 172.09 247.166 172.09 250.805" fill="black"/><path id="Fill 63" fill-rule="evenodd" clip-rule="evenodd" d="M126.087 76.6426C128.851 69.3936 132.162 62.3526 136.016 55.6196C139.665 49.2426 143.591 42.6886 148.951 37.5926C153.385 33.3786 162.291 27.4316 168.752 30.2176C172.383 31.7836 173.654 36.2166 173.606 39.8546C173.462 50.5176 163.849 58.7276 155.62 64.0916C148.576 68.6846 140.679 72.4406 132.642 74.8996C131.817 75.1516 126.301 76.0806 126.087 76.6426" fill="black"/><path id="Fill 64" fill-rule="evenodd" clip-rule="evenodd" d="M126.087 147.312C129.22 139.095 132.974 131.114 137.342 123.481C141.479 116.252 145.929 108.823 152.005 103.047C157.03 98.2706 167.127 91.5296 174.449 94.6866C178.566 96.4606 180.007 101.488 179.951 105.611C179.789 117.699 168.892 127.004 159.565 133.085C151.58 138.292 142.627 142.549 133.517 145.336C132.582 145.623 126.33 146.674 126.087 147.312" fill="black"/><path id="Fill 65" fill-rule="evenodd" clip-rule="evenodd" d="M127.413 147.312C124.279 139.095 120.525 131.114 116.157 123.481C112.02 116.252 107.57 108.823 101.495 103.047C96.469 98.2706 86.373 91.5296 79.05 94.6866C74.934 96.4606 73.493 101.488 73.548 105.611C73.711 117.699 84.607 127.004 93.934 133.085C101.92 138.292 110.872 142.549 119.983 145.336C120.917 145.623 127.17 146.674 127.413 147.312" fill="black"/><path id="Fill 66" fill-rule="evenodd" clip-rule="evenodd" d="M126.087 200.674C129.22 192.458 132.974 184.477 137.342 176.844C141.479 169.615 145.929 162.186 152.005 156.41C157.03 151.633 167.127 144.892 174.449 148.05C178.566 149.824 180.007 154.85 179.951 158.973C179.789 171.061 168.892 180.367 159.565 186.448C151.58 191.654 142.627 195.911 133.517 198.698C132.582 198.985 126.33 200.037 126.087 200.674" fill="black"/><path id="Fill 67" fill-rule="evenodd" clip-rule="evenodd" d="M127.413 200.674C124.279 192.458 120.525 184.477 116.157 176.844C112.02 169.615 107.57 162.186 101.495 156.41C96.469 151.633 86.373 144.892 79.05 148.05C74.934 149.824 73.493 154.85 73.548 158.973C73.711 171.061 84.607 180.367 93.934 186.448C101.92 191.654 110.872 195.911 119.983 198.698C120.917 198.985 127.17 200.037 127.413 200.674" fill="black"/><path id="Fill 68" fill-rule="evenodd" clip-rule="evenodd" d="M126.087 97.5596C123.479 90.7196 120.354 84.0746 116.717 77.7196C113.273 71.7026 109.567 65.5166 104.509 60.7076C100.325 56.7316 91.9198 51.1196 85.8228 53.7476C82.3968 55.2256 81.1958 59.4096 81.2418 62.8416C81.3778 72.9056 90.4498 80.6536 98.2148 85.7156C104.863 90.0506 112.316 93.5946 119.901 95.9146C120.679 96.1536 125.885 97.0296 126.087 97.5596" fill="black"/><path id="Stroke 69" d="M126.087 24.5C126.866 24.5 127.507 25.0949 127.58 25.8555L127.587 26V225.246C127.587 226.074 126.915 226.746 126.087 226.746C125.307 226.746 124.666 226.151 124.594 225.39L124.587 225.246V26C124.587 25.1716 125.258 24.5 126.087 24.5Z" fill="black"/></g></g></g></g></svg>