<svg viewBox="114.97499999999991 109.67415730337086 792.0500000000002 688.6516853932586" fill="none" xmlns="http://www.w3.org/2000/svg" xmlns:xlink="http://www.w3.org/1999/xlink" overflow="visible" width="792.0500000000002px" height="688.6516853932586px"><g id="Master/Scenes/Communication"><g id="Background" transform="translate(271 160.525) scale(1 1)"><g id="Background/1"><path id="Fill 3" fill-rule="evenodd" clip-rule="evenodd" d="M401.585 21.6223C324.481 -31.5289 222.87 16.9322 174.633 129.863L174.597 129.947C172.327 135.265 168.47 139.362 163.384 141.797C138.795 153.569 115.027 169.313 93.1804 188.984C-8.18827 280.257 -29.8672 421.435 44.7573 504.314C119.382 587.193 262.052 580.389 363.421 489.117C415.428 442.289 446.46 382.325 454.271 323.837C454.585 321.484 455.157 319.254 455.993 317.194C501.368 205.349 477.522 73.9681 401.585 21.6223" fill="black" fill-opacity="0.04"/></g></g><g id="Group 88"><path id="Fill 1" fill-rule="evenodd" clip-rule="evenodd" d="M501.342 245.228C500.018 244.84 498.584 244.708 497.099 244.889C492.632 245.431 488.914 248.923 488.138 253.356C487.508 256.953 488.723 260.292 490.993 262.584C491.933 263.533 492.181 264.964 491.571 266.152C488.411 272.316 483.589 280.226 478.573 291.622C463.924 324.901 454.02 360.589 413.578 369.874C378.523 377.923 355.31 344.434 371.707 313.424C385.675 287.009 415.543 280.884 434.347 259.909C451.478 240.798 453.936 211.331 478.498 197.976C485.587 194.122 493.88 192.77 501.66 194.912C519.925 199.939 522.545 219.391 513.98 233.584C510.81 238.837 507.329 242.408 504.644 244.535C503.714 245.271 502.482 245.562 501.342 245.228" fill="black"/><path id="Stroke 3" d="M514.382 216.427C515.042 215.927 515.983 216.058 516.483 216.719L517.899 218.572L520.74 222.25C524.429 227.055 526.304 229.727 528.243 233.086C531.402 238.553 533.836 244.619 535.547 251.123C535.856 252.3 536.143 253.498 536.408 254.72C538.221 263.087 538.031 268.617 534.018 272.447C530.678 275.636 524.418 278.048 516.001 279.902C511.676 280.855 507.053 281.596 502.431 282.152L501.074 282.309C500.189 282.408 499.346 282.496 498.551 282.572L496.932 282.717L496.253 282.77C495.427 282.828 494.71 282.206 494.652 281.379C494.594 280.553 495.217 279.836 496.043 279.778L496.916 279.708C497.155 279.688 497.413 279.665 497.69 279.64L498.859 279.528C499.863 279.427 500.938 279.309 502.072 279.173C506.605 278.628 511.137 277.902 515.356 276.972L516.422 276.732C523.791 275.024 529.251 272.85 531.946 270.277C534.912 267.447 535.074 262.728 533.476 255.356C533.22 254.176 532.944 253.02 532.645 251.886C531.001 245.632 528.666 239.815 525.645 234.586L525.326 234.04C523.519 230.972 521.647 228.346 518.029 223.646L515.342 220.169C514.994 219.716 514.687 219.316 514.388 218.922L514.09 218.528C513.59 217.867 513.721 216.926 514.382 216.427Z" fill="black"/><path id="Stroke 5" d="M510.416 278.93C510.566 278.116 511.349 277.577 512.163 277.728C512.93 277.87 513.452 278.571 513.385 279.332L513.366 279.476L508.32 306.76C508.169 307.574 507.386 308.113 506.572 307.962C505.805 307.82 505.283 307.119 505.35 306.357L505.37 306.214L510.416 278.93Z" fill="black"/><path id="Stroke 7" d="M612.246 201.645C612.745 201.018 613.64 200.899 614.282 201.35L614.399 201.441L629.606 214.516C630.151 214.984 630.282 215.766 629.939 216.382L629.859 216.511L583.252 283.386C583.189 283.477 583.116 283.56 583.034 283.634L582.906 283.739L516.924 331.958C516.255 332.447 515.317 332.301 514.828 331.632C514.368 331.003 514.47 330.134 515.042 329.627L515.154 329.536L580.932 281.466L626.622 215.906L613.625 204.731L570.168 259.462C570.036 259.628 569.871 259.763 569.685 259.86L569.54 259.926L524.749 277.479C523.978 277.781 523.108 277.401 522.806 276.629C522.521 275.904 522.841 275.09 523.523 274.745L523.655 274.686L568.07 257.279L612.246 201.645Z" fill="black"/><path id="Stroke 9" d="M627.223 169.256C627.588 168.279 628.802 167.975 629.583 168.623L629.686 168.718L632.285 171.304C634.443 173.453 635.316 176.568 634.605 179.513L634.528 179.807L632.622 186.65L633.859 187.762C638.446 191.886 639.247 198.757 635.78 203.818L635.593 204.083L627.83 214.802C627.344 215.473 626.406 215.623 625.735 215.137C625.104 214.679 624.934 213.822 625.321 213.163L625.4 213.042L633.163 202.323C635.888 198.561 635.401 193.38 632.065 190.19L631.853 189.993L629.925 188.258C629.537 187.909 629.361 187.386 629.452 186.878L629.483 186.74L631.638 179.002C632.169 177.099 631.674 175.062 630.346 173.615L630.168 173.43L629.219 172.486L617.065 205.029C616.793 205.759 616.011 206.151 615.273 205.953L615.135 205.909C614.405 205.636 614.013 204.855 614.211 204.117L614.255 203.979L627.223 169.256Z" fill="black"/><path id="Stroke 11" d="M479.788 301.339C485.119 299.873 489.093 299.413 494.231 300.358L494.749 300.462C495.369 300.595 496.052 300.766 496.877 301.012C498.48 301.488 500.135 302.114 501.793 302.914C506.221 305.052 510.008 308.094 512.728 312.211L513.015 312.656C513.147 312.866 513.364 313.239 513.637 313.754C514.086 314.599 514.533 315.548 514.951 316.58C515.655 318.324 516.203 320.13 516.532 321.963L516.621 322.489C517.924 330.756 516.488 348.415 513.13 372.384C512.068 379.97 510.869 387.762 509.606 395.463L509.061 398.756C508.796 400.342 508.537 401.875 508.284 403.347L507.4 408.434L507.105 410.096L593.026 418.482C593.69 418.547 594.232 419.043 594.355 419.699C595.354 425.033 595.255 430.809 593.113 437.075C590.824 443.734 587.066 448.55 582.695 452.208C582.469 452.397 582.192 452.516 581.899 452.549L572.614 453.596C559.004 455.142 545.34 456.747 530.431 458.571L495.925 462.866C488.983 463.715 484.501 464.215 480.927 464.526L479.339 464.656C471.553 465.251 467.855 464.846 464.126 463.089L463.811 462.937C454.3 458.248 449.507 447.765 448.086 431.304L447.977 429.95C447.115 418.615 447.558 408.319 449.589 383.523L450.822 368.6C450.998 366.402 451.147 364.461 451.29 362.511L451.381 361.254C451.884 354.257 452.221 348.154 452.401 342.407C452.427 341.579 453.119 340.929 453.947 340.955C454.775 340.981 455.426 341.673 455.4 342.501L455.333 344.445C455.153 349.342 454.862 354.523 454.456 360.305L454.22 363.568C454.002 366.506 453.763 369.508 453.435 373.471L452.526 384.414C450.556 408.562 450.131 418.696 450.968 429.723L451.026 430.458C452.305 446.324 456.681 456.078 465.135 460.245L465.405 460.375C468.582 461.872 471.821 462.225 479.148 461.662L480.67 461.537C483.247 461.313 486.316 460.988 490.471 460.5L525.966 456.096L534.105 455.1C548.138 453.395 561.136 451.876 574.132 450.404L581.11 449.618L581.142 449.592C584.846 446.401 588.041 442.26 590.075 436.666L590.275 436.102C592.032 430.962 592.281 426.177 591.649 421.723L591.593 421.356L505.195 412.924C504.321 412.839 503.707 412.025 503.865 411.162L504.405 408.144L505.029 404.573C505.373 402.586 505.732 400.476 506.102 398.262C507.561 389.523 508.949 380.609 510.159 371.968L510.575 368.956C513.651 346.378 514.894 329.756 513.58 322.496C513.289 320.879 512.801 319.267 512.169 317.704C511.855 316.928 511.523 316.204 511.188 315.547L510.987 315.16C510.75 314.713 510.57 314.404 510.476 314.255C508.067 310.432 504.602 307.602 500.488 305.616C498.983 304.889 497.478 304.32 496.022 303.887C495.067 303.603 494.336 303.432 493.678 303.306C489.085 302.462 485.517 302.875 480.578 304.233C478.073 304.912 475.631 305.847 473.271 307.006C472.527 307.372 471.629 307.065 471.263 306.321C470.898 305.578 471.204 304.679 471.948 304.314C474.476 303.071 477.097 302.068 479.788 301.339Z" fill="black"/><path id="Stroke 13" d="M621.228 408.397C621.997 407.669 623.242 407.951 623.64 408.902L623.687 409.03L625.219 413.824C626.624 418.233 625.473 423.047 622.248 426.339L622.014 426.572L617.832 430.624C616.48 431.934 615.408 433.502 614.679 435.232L614.517 435.634C612.386 441.162 607.344 445.021 601.473 445.648L601.228 445.671L585.678 448.962C584.915 449.123 584.165 448.674 583.937 447.945L583.9 447.805C583.739 447.042 584.188 446.292 584.917 446.064L585.057 446.027L600.69 442.719L600.874 442.692C605.64 442.289 609.771 439.259 611.597 434.858L611.718 434.556C612.546 432.403 613.806 430.444 615.418 428.795L615.745 428.469L619.927 424.417C622.435 421.988 623.396 418.383 622.452 415.039L622.361 414.736L621.555 412.215L612.253 421.011C612.071 421.184 611.849 421.307 611.609 421.371L611.462 421.402L593.679 424.281C592.861 424.414 592.091 423.858 591.959 423.04C591.834 422.271 592.319 421.543 593.058 421.35L593.2 421.32L610.525 418.515L621.228 408.397Z" fill="black"/><path id="Stroke 15" d="M383.094 365.768C383.384 364.992 384.247 364.597 385.024 364.886C385.754 365.158 386.147 365.94 385.95 366.678L385.906 366.816L345.087 476.382C341.309 486.521 346.728 497.785 356.989 501.078C377.638 507.7 399.475 511.192 420.986 509.707C448.881 507.783 473.613 497.576 493.839 477.343L494.647 476.525L494.648 461.33C494.648 460.55 495.243 459.909 496.004 459.837L496.148 459.83C496.928 459.83 497.568 460.425 497.641 461.185L497.648 461.33V477.137C497.648 477.527 497.496 477.902 497.224 478.182C476.229 499.807 450.36 510.688 421.192 512.7C399.257 514.214 377.057 510.664 356.073 503.934C344.297 500.156 338.028 487.332 342.147 475.687L342.275 475.334L383.094 365.768Z" fill="black"/><path id="Stroke 17" d="M348.587 498.637C348.801 497.837 349.623 497.361 350.423 497.575C351.224 497.789 351.699 498.611 351.485 499.411C347.891 512.863 347.958 526.624 353.385 539.698C359.859 555.309 372.395 565.974 388.863 572.583C394.818 574.973 400.931 576.676 406.92 577.802C409.128 578.217 411.2 578.53 413.102 578.756L414.21 578.88C415.02 578.964 415.708 579.021 416.263 579.056C425.474 579.646 432.995 578.518 446.213 574.896C473.973 567.285 502.901 555.811 533.949 538.485C534.958 537.923 536.197 538.663 536.18 539.818L535.915 556.039C535.663 570.25 535.348 584.772 534.872 604.548L533.181 672.793C532.651 694.712 532.317 710.197 532.05 725.678L531.845 738.334L556.803 751.741L557.034 750.294C559.841 732.694 562.661 716.156 565.843 698.434L568.534 683.656C571.353 668.319 575.437 646.294 575.64 645.187L576.875 638.421C579.994 621.244 582.416 607.139 584.769 592.231C584.899 591.413 585.667 590.854 586.485 590.984C587.303 591.113 587.862 591.881 587.733 592.699L587.187 596.133C584.815 610.964 582.327 625.287 579.094 642.98L569.5 695.053L569.436 695.406C565.778 715.661 562.613 734.202 559.436 754.298C559.274 755.318 558.154 755.874 557.244 755.384L529.623 740.545C529.17 740.302 528.876 739.846 528.837 739.34L528.832 739.201L529.097 722.974C529.407 705.539 529.81 687.638 530.49 660.131L532.043 597.329C532.495 578.188 532.787 563.992 533.03 549.301L533.14 542.363L532.531 542.699C502.828 559 475.026 569.999 448.298 577.432L447.006 577.789L445.527 578.19C432.913 581.576 425.316 582.642 416.072 582.05L415.402 582.003C413.093 581.825 410.016 581.437 406.366 580.75C400.194 579.59 393.895 577.835 387.745 575.367C370.588 568.481 357.432 557.29 350.614 540.847C344.906 527.095 344.836 512.678 348.587 498.637Z" fill="black"/><path id="Stroke 19" d="M568.179 451.153C568.891 450.836 569.718 451.12 570.093 451.786L570.158 451.915L656.354 646.025C656.66 646.713 656.407 647.512 655.781 647.904L655.659 647.973L629.303 661.274C628.655 661.601 627.874 661.415 627.439 660.851L627.357 660.733L515.973 483.396L495.672 476.603C494.933 476.356 494.514 475.588 494.687 474.844L494.726 474.705C494.973 473.965 495.741 473.547 496.485 473.719L496.624 473.758L517.433 480.721C517.715 480.816 517.962 480.991 518.143 481.225L518.228 481.346L629.171 657.98L653.033 645.937L567.416 453.133C567.1 452.42 567.384 451.593 568.049 451.218L568.179 451.153Z" fill="black"/><path id="Stroke 21" d="M609.985 375.46C610.335 374.946 610.96 374.706 611.556 374.841L611.693 374.879L637.13 383.235C638.017 383.526 638.415 384.54 637.995 385.349L637.925 385.469L619.74 413.871C619.294 414.568 618.366 414.772 617.668 414.325C617.012 413.905 616.793 413.058 617.142 412.378L617.214 412.253L634.354 385.48L611.829 378.08L583.528 419.646C583.089 420.291 582.237 420.485 581.567 420.117L581.444 420.042C580.799 419.603 580.605 418.751 580.973 418.081L581.048 417.958L609.985 375.46Z" fill="black"/><path id="Stroke 23" d="M630.665 146.204C644.812 146.204 656.28 157.672 656.28 171.819C656.28 180.247 652.177 187.989 645.42 192.76C644.743 193.238 643.807 193.077 643.329 192.4C642.852 191.723 643.013 190.787 643.69 190.309C649.659 186.095 653.28 179.262 653.28 171.819C653.28 159.329 643.155 149.204 630.665 149.204C618.175 149.204 608.05 159.329 608.05 171.819C608.05 175.668 609.012 179.375 610.822 182.675C611.22 183.402 610.954 184.313 610.228 184.712C609.502 185.11 608.59 184.844 608.192 184.118C606.14 180.378 605.05 176.176 605.05 171.819C605.05 157.672 616.518 146.204 630.665 146.204Z" fill="black"/><path id="Fill 25" fill-rule="evenodd" clip-rule="evenodd" d="M530.332 737.446L529.174 762.352L583.763 788.359L584.228 784.512C585.266 775.937 581.337 767.517 574.1 762.803L557.954 752.286L530.332 737.446Z" fill="black"/><path id="Stroke 27" fill-rule="evenodd" clip-rule="evenodd" d="M527.676 762.282L528.834 737.376C528.885 736.274 530.069 735.602 531.042 736.125L558.664 750.965L558.773 751.029L574.919 761.546C582.635 766.573 586.824 775.55 585.717 784.692L585.252 788.539C585.129 789.557 584.044 790.154 583.118 789.713L528.529 763.706C527.984 763.447 527.648 762.886 527.676 762.282ZM557.187 753.577L531.719 739.894L530.718 761.426L582.523 786.107L582.739 784.332C583.692 776.459 580.161 768.724 573.617 764.283L573.281 764.06L557.187 753.577Z" fill="black"/><path id="Fill 29" fill-rule="evenodd" clip-rule="evenodd" d="M628.053 660.403L638.075 675.831L693.584 649.226C688.594 641.325 678.746 638.007 669.992 641.278L654.408 647.102L628.053 660.403Z" fill="black"/><path id="Stroke 31" fill-rule="evenodd" clip-rule="evenodd" d="M653.732 645.763L653.883 645.697L669.467 639.873C678.886 636.353 689.483 639.923 694.852 648.425C695.331 649.184 695.041 650.191 694.232 650.579L638.723 677.184C638.043 677.509 637.227 677.28 636.817 676.648L626.795 661.22C626.308 660.471 626.58 659.466 627.377 659.064L653.732 645.763ZM638.614 673.909L691.343 648.636L691.245 648.507C686.391 642.314 678.019 639.88 670.517 642.683L655.01 648.478L630.221 660.988L638.614 673.909Z" fill="black"/><path id="Stroke 33" d="M578.14 476.482C578.333 475.727 579.068 475.253 579.823 475.371L579.965 475.4L591.138 478.252C605.326 481.872 614.154 495.971 611.275 510.275L611.185 510.709L606.173 533.725C605.996 534.534 605.197 535.047 604.388 534.871C603.626 534.705 603.126 533.988 603.217 533.229L603.241 533.086L608.253 510.07C611.028 497.326 603.319 484.672 590.777 481.259L590.396 481.159L579.223 478.307C578.42 478.102 577.936 477.285 578.14 476.482Z" fill="black"/><path id="Stroke 35" d="M382.622 441.534C383.445 441.44 384.189 442.031 384.283 442.854C385.026 449.342 387.226 455.853 391.923 461.964C396.106 467.405 401.432 471.263 407.454 473.81C411.453 475.502 414.979 476.35 418.229 476.777C419.05 476.885 419.628 477.639 419.52 478.46C419.412 479.282 418.659 479.86 417.837 479.752C414.342 479.292 410.565 478.384 406.285 476.573C399.811 473.835 394.065 469.673 389.545 463.793C384.471 457.192 382.102 450.18 381.303 443.195C381.208 442.372 381.799 441.629 382.622 441.534Z" fill="black"/><path id="Stroke 37" d="M397.764 407.918C398.013 407.128 398.855 406.689 399.645 406.938C400.436 407.188 400.874 408.03 400.625 408.82C398.661 415.047 398.019 421.891 399.822 429.385C401.426 436.058 404.72 441.75 409.183 446.529C412.146 449.702 415.021 451.912 417.816 453.626C418.522 454.06 418.743 454.983 418.31 455.689C417.877 456.396 416.953 456.617 416.247 456.184C413.241 454.34 410.162 451.973 406.99 448.576C402.193 443.439 398.639 437.298 396.905 430.087C394.958 421.993 395.65 414.622 397.764 407.918Z" fill="black"/><path id="Fill 39" fill-rule="evenodd" clip-rule="evenodd" d="M316.297 611.342H505.992V579.772H316.297V611.342Z" fill="black"/><path id="Stroke 41" d="M630.666 129.498C654.038 129.498 672.987 148.445 672.987 171.819C672.987 187.018 664.906 200.815 652.031 208.359C651.316 208.778 650.397 208.538 649.978 207.823C649.559 207.108 649.799 206.189 650.514 205.77C662.479 198.759 669.987 185.942 669.987 171.819C669.987 150.102 652.381 132.498 630.666 132.498C608.949 132.498 591.344 150.102 591.344 171.819C591.344 180.295 594.031 188.362 598.937 195.05C599.427 195.718 599.283 196.657 598.615 197.147C597.947 197.637 597.008 197.493 596.518 196.825C591.237 189.626 588.344 180.938 588.344 171.819C588.344 148.445 607.292 129.498 630.666 129.498Z" fill="black"/><g id="Group"><path id="Stroke 42" fill-rule="evenodd" clip-rule="evenodd" d="M177.324 242.838H200.382C230.937 242.838 255.706 267.607 255.706 298.161V351.985C255.706 352.814 255.034 353.485 254.206 353.485H177.324C146.77 353.485 122 328.716 122 298.161C122 267.607 146.769 242.838 177.324 242.838ZM252.706 298.161C252.706 269.553 229.746 246.307 201.247 245.845L200.382 245.838H177.324C148.426 245.838 125 269.264 125 298.161C125 327.059 148.426 350.485 177.324 350.485L252.705 350.485L252.706 298.161Z" fill="black"/><path id="Stroke 43" d="M209.744 281.902C210.572 281.902 211.244 282.574 211.244 283.402C211.244 284.182 210.649 284.823 209.888 284.895L209.744 284.902H167.962C167.133 284.902 166.462 284.231 166.462 283.402C166.462 282.623 167.057 281.982 167.817 281.909L167.962 281.902H209.744Z" fill="black"/><path id="Stroke 44" d="M209.744 307.831C210.572 307.831 211.244 308.503 211.244 309.331C211.244 310.111 210.649 310.752 209.888 310.824L209.744 310.831H167.962C167.133 310.831 166.462 310.159 166.462 309.331C166.462 308.551 167.057 307.911 167.817 307.838L167.962 307.831H209.744Z" fill="black"/><path id="Fill 45" fill-rule="evenodd" clip-rule="evenodd" d="M200.229 431.546H277.111C306.837 431.546 330.935 407.448 330.935 377.722C330.935 347.996 306.837 323.899 277.111 323.899H254.053C224.327 323.899 200.229 347.996 200.229 377.722V431.546Z" fill="black"/><path id="Fill 46" fill-rule="evenodd" clip-rule="evenodd" d="M250.369 377.722C250.369 381.613 247.215 384.767 243.324 384.767C239.433 384.767 236.279 381.613 236.279 377.722C236.279 373.831 239.433 370.677 243.324 370.677C247.215 370.677 250.369 373.831 250.369 377.722" fill="white"/><path id="Fill 47" fill-rule="evenodd" clip-rule="evenodd" d="M272.627 377.722C272.627 381.613 269.474 384.767 265.582 384.767C261.691 384.767 258.538 381.613 258.538 377.722C258.538 373.831 261.691 370.677 265.582 370.677C269.474 370.677 272.627 373.831 272.627 377.722" fill="white"/><path id="Fill 48" fill-rule="evenodd" clip-rule="evenodd" d="M294.886 377.722C294.886 381.613 291.732 384.767 287.841 384.767C283.95 384.767 280.796 381.613 280.796 377.722C280.796 373.831 283.95 370.677 287.841 370.677C291.732 370.677 294.886 373.831 294.886 377.722" fill="white"/></g><path id="Stroke 49" fill-rule="evenodd" clip-rule="evenodd" d="M713.095 244.188H779.827C788.149 244.188 794.895 250.934 794.895 259.256C794.895 267.577 788.149 274.324 779.827 274.324H713.095C704.773 274.324 698.026 267.578 698.026 259.256C698.026 250.934 704.773 244.188 713.095 244.188ZM779.827 247.188H713.095C706.429 247.188 701.026 252.591 701.026 259.256C701.026 265.921 706.43 271.324 713.095 271.324H779.827C786.492 271.324 791.895 265.921 791.895 259.256C791.895 252.591 786.492 247.188 779.827 247.188Z" fill="black"/><path id="Stroke 50" fill-rule="evenodd" clip-rule="evenodd" d="M713.095 406.554H779.827C788.149 406.554 794.895 413.301 794.895 421.623C794.895 429.945 788.149 436.691 779.827 436.691H713.095C704.773 436.691 698.026 429.945 698.026 421.623C698.026 413.301 704.773 406.554 713.095 406.554ZM779.827 409.554H713.095C706.43 409.554 701.026 414.958 701.026 421.623C701.026 428.288 706.43 433.691 713.095 433.691H779.827C786.492 433.691 791.895 428.288 791.895 421.623C791.895 414.958 786.492 409.554 779.827 409.554Z" fill="black"/><path id="Fill 51" fill-rule="evenodd" clip-rule="evenodd" d="M847.113 272.824H825.46C817.967 272.824 811.892 266.749 811.892 259.256C811.892 251.762 817.967 245.688 825.46 245.688H847.113C854.607 245.688 860.681 251.762 860.681 259.256C860.681 266.749 854.607 272.824 847.113 272.824" fill="black"/><path id="Stroke 52" fill-rule="evenodd" clip-rule="evenodd" d="M825.46 244.188H847.113C855.436 244.188 862.181 250.934 862.181 259.256C862.181 267.578 855.435 274.324 847.113 274.324H825.46C817.139 274.324 810.392 267.577 810.392 259.256C810.392 250.934 817.139 244.188 825.46 244.188ZM847.113 247.188H825.46C818.795 247.188 813.392 252.591 813.392 259.256C813.392 265.921 818.796 271.324 825.46 271.324H847.113C853.779 271.324 859.181 265.921 859.181 259.256C859.181 252.59 853.779 247.188 847.113 247.188Z" fill="black"/><path id="Fill 53" fill-rule="evenodd" clip-rule="evenodd" d="M808.133 381.068H713.095C705.602 381.068 699.527 374.994 699.527 367.501C699.527 360.006 705.602 353.932 713.095 353.932H808.133C815.626 353.932 821.701 360.006 821.701 367.501C821.701 374.994 815.626 381.068 808.133 381.068" fill="black"/><path id="Stroke 54" fill-rule="evenodd" clip-rule="evenodd" d="M713.095 352.432H808.133C816.455 352.432 823.201 359.178 823.201 367.501C823.201 375.822 816.454 382.568 808.133 382.568H713.095C704.773 382.568 698.027 375.822 698.027 367.501C698.027 359.178 704.773 352.432 713.095 352.432ZM808.133 355.432H713.095C706.43 355.432 701.027 360.835 701.027 367.501C701.027 374.165 706.43 379.568 713.095 379.568H808.133C814.798 379.568 820.201 374.165 820.201 367.501C820.201 360.835 814.798 355.432 808.133 355.432Z" fill="black"/><path id="Stroke 55" fill-rule="evenodd" clip-rule="evenodd" d="M799.572 298.31H884.65C892.972 298.31 899.718 305.056 899.718 313.378C899.718 321.7 892.972 328.446 884.65 328.446H799.572C791.25 328.446 784.504 321.7 784.504 313.378C784.504 305.056 791.25 298.31 799.572 298.31ZM884.65 301.31H799.572C792.907 301.31 787.504 306.712 787.504 313.378C787.504 320.044 792.907 325.446 799.572 325.446H884.65C891.315 325.446 896.718 320.043 896.718 313.378C896.718 306.713 891.315 301.31 884.65 301.31Z" fill="black"/><path id="Fill 56" fill-rule="evenodd" clip-rule="evenodd" d="M750.896 326.946H710.896C703.403 326.946 697.328 320.872 697.328 313.378C697.328 305.884 703.403 299.81 710.896 299.81H750.896C758.389 299.81 764.463 305.884 764.463 313.378C764.463 320.872 758.389 326.946 750.896 326.946" fill="black"/><path id="Stroke 57" fill-rule="evenodd" clip-rule="evenodd" d="M710.896 298.31H750.896C759.217 298.31 765.963 305.056 765.963 313.378C765.963 321.7 759.217 328.446 750.896 328.446H710.896C702.574 328.446 695.828 321.7 695.828 313.378C695.828 305.056 702.574 298.31 710.896 298.31ZM750.896 301.31H710.896C704.231 301.31 698.828 306.713 698.828 313.378C698.828 320.043 704.231 325.446 710.896 325.446H750.896C757.56 325.446 762.963 320.043 762.963 313.378C762.963 306.713 757.56 301.31 750.896 301.31Z" fill="black"/><path id="Stroke 58" d="M532.469 150.464C532.993 148.973 535.133 149.216 535.364 150.715L535.38 150.859L537.05 175.162L542.501 162.997C542.886 162.136 543.952 161.85 544.712 162.369L544.824 162.453L549.734 166.502H558.517L564.456 152.378C565.02 151.035 566.943 151.217 567.289 152.574L567.319 152.718L570.938 174.979L576.093 165.396C576.462 164.71 577.289 164.427 577.994 164.723L578.124 164.786C578.811 165.155 579.093 165.983 578.797 166.687L578.735 166.817L571.488 180.291C570.831 181.511 569.041 181.255 568.714 179.959L568.686 179.822L565.196 158.358L560.897 168.584C560.681 169.098 560.2 169.446 559.653 169.496L559.515 169.503H549.197C548.898 169.503 548.608 169.414 548.361 169.249L548.242 169.16L544.433 166.019L537.336 181.866C536.717 183.247 534.708 182.936 534.486 181.498L534.47 181.356L532.886 158.32L529.308 168.5C529.113 169.055 528.614 169.44 528.038 169.496L527.893 169.503H516.058C515.229 169.503 514.558 168.831 514.558 168.003C514.558 167.223 515.153 166.582 515.913 166.51L516.058 166.503L526.83 166.502L532.469 150.464Z" fill="black"/><path id="Stroke 59" d="M723.911 149.972C724.339 148.466 726.463 148.557 726.81 150.017L726.838 150.163L729.823 170.385L730.721 167.55C730.905 166.971 731.417 166.565 732.012 166.509L732.151 166.503H740.02C740.849 166.503 741.52 167.175 741.52 168.003C741.52 168.783 740.925 169.424 740.165 169.496L740.02 169.503L733.249 169.502L730.719 177.492C730.254 178.96 728.178 178.842 727.834 177.406L727.805 177.258L724.889 157.502L721.788 168.413C721.618 169.012 721.098 169.439 720.487 169.496L720.345 169.503L716.594 169.502L713.898 177.517C713.444 178.866 711.571 178.868 711.08 177.591L711.033 177.449L706.652 162.016L705.134 168.353C704.983 168.982 704.447 169.439 703.813 169.497L703.675 169.503H697.01C696.394 169.503 695.845 169.127 695.619 168.564L695.572 168.43L692.289 157.382L689.451 177.251C689.261 178.584 687.568 178.992 686.78 177.958L686.699 177.842L680.973 168.806C680.53 168.106 680.738 167.179 681.437 166.736C682.096 166.319 682.956 166.478 683.424 167.082L683.507 167.2L687.056 172.801L690.289 150.17C690.51 148.626 692.616 148.423 693.164 149.815L693.212 149.955L698.128 166.502H702.492L705.072 155.745C705.419 154.294 707.412 154.205 707.925 155.542L707.973 155.685L712.597 171.973L714.094 167.525C714.285 166.958 714.792 166.563 715.379 166.509L715.516 166.503L719.212 166.502L723.911 149.972Z" fill="black"/><path id="Fill 60" fill-rule="evenodd" clip-rule="evenodd" d="M642.131 344.768C642.131 354.611 634.152 362.59 624.309 362.59C614.466 362.59 606.486 354.611 606.486 344.768C606.486 334.925 614.466 326.946 624.309 326.946C634.152 326.946 642.131 334.925 642.131 344.768" fill="black"/><path id="Fill 61" fill-rule="evenodd" clip-rule="evenodd" d="M634.837 340.964C634.837 344.677 631.826 347.688 628.113 347.688C624.4 347.688 621.39 344.677 621.39 340.964C621.39 337.251 624.4 334.24 628.113 334.24C631.826 334.24 634.837 337.251 634.837 340.964" fill="white"/><path id="Fill 62" fill-rule="evenodd" clip-rule="evenodd" d="M760.613 522.932L730.944 552.601L701.275 522.932L730.944 493.262L760.613 522.932Z" fill="black"/><path id="Stroke 63" fill-rule="evenodd" clip-rule="evenodd" d="M700.215 521.871L729.884 492.201C730.47 491.615 731.419 491.615 732.005 492.201L761.674 521.871C762.26 522.457 762.26 523.407 761.674 523.992L732.005 553.661C731.419 554.247 730.47 554.247 729.884 553.661L700.215 523.992C699.629 523.407 699.629 522.457 700.215 521.871ZM758.492 522.931L730.944 495.383L703.395 522.931L730.944 550.48L758.492 522.931Z" fill="black"/><path id="Fill 64" fill-rule="evenodd" clip-rule="evenodd" d="M790.283 522.932L760.613 552.601L730.944 522.932L760.613 493.262L790.283 522.932Z" fill="white"/><path id="Stroke 65" fill-rule="evenodd" clip-rule="evenodd" d="M729.884 521.871L759.553 492.201C760.138 491.615 761.088 491.615 761.674 492.201L791.344 521.871C791.93 522.457 791.93 523.407 791.344 523.992L761.674 553.661C761.088 554.247 760.138 554.247 759.553 553.661L729.884 523.992C729.298 523.407 729.298 522.457 729.884 521.871ZM788.161 522.931L760.613 495.383L733.064 522.931L760.613 550.48L788.161 522.931Z" fill="black"/><path id="Fill 66" fill-rule="evenodd" clip-rule="evenodd" d="M819.952 522.932L790.283 552.601L760.613 522.932L790.283 493.262L819.952 522.932Z" fill="white"/><path id="Stroke 67" fill-rule="evenodd" clip-rule="evenodd" d="M759.552 521.871L789.222 492.201C789.808 491.615 790.758 491.615 791.344 492.201L821.013 521.871C821.598 522.457 821.598 523.407 821.013 523.992L791.344 553.661C790.758 554.247 789.808 554.247 789.222 553.661L759.552 523.992C758.967 523.407 758.967 522.457 759.552 521.871ZM817.831 522.931L790.282 495.383L762.734 522.931L790.282 550.48L817.831 522.931Z" fill="black"/><path id="Fill 68" fill-rule="evenodd" clip-rule="evenodd" d="M648.782 385.025C648.782 391.151 643.816 396.117 637.69 396.117C631.564 396.117 626.598 391.151 626.598 385.025C626.598 378.899 631.564 373.933 637.69 373.933C643.816 373.933 648.782 378.899 648.782 385.025" fill="black"/><path id="Fill 69" fill-rule="evenodd" clip-rule="evenodd" d="M645.13 382.921C645.13 384.577 643.787 385.92 642.131 385.92C640.474 385.92 639.131 384.577 639.131 382.921C639.131 381.264 640.474 379.921 642.131 379.921C643.787 379.921 645.13 381.264 645.13 382.921" fill="white"/><path id="Fill 70" fill-rule="evenodd" clip-rule="evenodd" d="M596.473 363.995C596.473 367.912 593.298 371.088 589.38 371.088C585.463 371.088 582.288 367.912 582.288 363.995C582.288 360.078 585.463 356.902 589.38 356.902C593.298 356.902 596.473 360.078 596.473 363.995" fill="black"/><path id="Fill 71" fill-rule="evenodd" clip-rule="evenodd" d="M588.369 362.221C588.369 363.201 587.574 363.995 586.594 363.995C585.614 363.995 584.819 363.201 584.819 362.221C584.819 361.241 585.614 360.447 586.594 360.447C587.574 360.447 588.369 361.241 588.369 362.221" fill="white"/><path id="Stroke 72" fill-rule="evenodd" clip-rule="evenodd" d="M175.689 439.97C175.095 439.392 174.145 439.405 173.568 439.999C148.833 465.42 135.843 501.464 140.794 534.462L140.953 535.474C143.871 553.334 152.853 569.725 165.535 581.854L165.839 582.141L165.749 583.074C163.044 612.927 174.889 645.066 197.542 671.279C229.214 707.927 280.014 725.23 331.031 718.632C370.698 713.501 408.305 693.202 435.555 662.656C436.106 662.038 436.052 661.09 435.434 660.539C434.816 659.987 433.868 660.041 433.316 660.659C406.54 690.673 369.588 710.62 330.646 715.656C280.59 722.13 230.797 705.17 199.812 669.317L198.909 668.262C177.979 643.573 166.815 613.742 168.552 585.848L168.632 584.666L169.221 585.17C179.555 593.911 191.969 599.943 205.369 601.972C222.919 604.629 242.094 598.883 256.537 587.014C271.636 574.605 279.703 557.156 277.63 538.724C276.231 526.271 268.789 517.1 257.284 512.172C247.001 507.767 234.181 507.167 222.882 510.379C202.756 516.103 185.215 531.38 174.912 551.303L174.347 552.417C170.264 560.609 167.625 569.274 166.326 578.188L166.296 578.399L166.203 578.307C154.505 566.549 146.3 550.936 143.761 534.016C138.954 501.986 151.613 466.865 175.718 442.091C176.295 441.497 176.282 440.548 175.689 439.97ZM223.703 513.265C234.356 510.236 246.469 510.803 256.103 514.93C266.657 519.45 273.376 527.73 274.649 539.059C276.601 556.424 268.984 572.902 254.632 584.696C240.829 596.04 222.502 601.531 205.818 599.006L204.88 598.857C191.765 596.672 179.647 590.468 169.673 581.59L168.99 580.974L169.123 579.903C170.356 570.447 173.132 561.278 177.577 552.681C187.514 533.466 204.408 518.752 223.703 513.265Z" fill="black"/><path id="Stroke 73" d="M769.465 627.895C784.719 627.895 798.458 636.44 805.345 649.756C808.278 655.428 809.828 661.729 809.828 668.257C809.828 671.75 809.384 675.188 808.515 678.51C808.305 679.312 807.485 679.791 806.684 679.582C805.882 679.372 805.403 678.552 805.612 677.751C806.417 674.676 806.828 671.494 806.828 668.257C806.828 662.212 805.394 656.382 802.68 651.134C796.304 638.804 783.586 630.895 769.465 630.895C749.033 630.895 732.43 647.29 732.1 667.639L732.096 668.49L732.102 668.687C732.142 669.514 731.504 670.218 730.676 670.258C729.849 670.298 729.145 669.66 729.105 668.832L729.1 668.684L729.096 668.469L729.095 668.257C729.095 645.966 747.17 627.895 769.465 627.895Z" fill="black"/><path id="Stroke 74" d="M808.51 648.59C825.089 648.59 838.529 662.032 838.529 678.608C838.529 695.186 825.089 708.628 808.51 708.628C807.681 708.628 807.01 707.957 807.01 707.128C807.01 706.3 807.681 705.628 808.51 705.628C823.432 705.628 835.529 693.529 835.529 678.608C835.529 663.689 823.432 651.59 808.51 651.59C807.085 651.59 805.664 651.704 804.245 651.926C803.427 652.055 802.659 651.495 802.531 650.677C802.402 649.858 802.962 649.091 803.78 648.962C805.351 648.716 806.927 648.59 808.51 648.59Z" fill="black"/><path id="Stroke 75" d="M730.503 667.263C731.329 667.207 732.044 667.832 732.1 668.659C732.156 669.485 731.531 670.201 730.705 670.256C721.448 670.881 714.217 678.588 714.217 687.915C714.217 697.701 722.141 705.628 731.922 705.628C732.75 705.628 733.422 706.299 733.422 707.128C733.422 707.956 732.75 708.628 731.922 708.628C720.484 708.628 711.217 699.358 711.217 687.915C711.217 677.007 719.673 667.994 730.503 667.263Z" fill="black"/><path id="Stroke 76" d="M751.457 696.64C752.237 696.64 752.877 697.235 752.95 697.995L752.957 698.14V720.662C752.957 721.49 752.285 722.162 751.457 722.162C750.677 722.162 750.037 721.567 749.964 720.806L749.957 720.662V698.14C749.957 697.311 750.629 696.64 751.457 696.64Z" fill="black"/><path id="Stroke 77" d="M770.277 696.64C771.057 696.64 771.698 697.235 771.77 697.995L771.777 698.14V734.855C771.777 735.683 771.106 736.355 770.277 736.355C769.498 736.355 768.857 735.76 768.784 734.999L768.777 734.855V698.14C768.777 697.311 769.449 696.64 770.277 696.64Z" fill="black"/><path id="Stroke 78" d="M789.098 696.64C789.877 696.64 790.518 697.235 790.591 697.995L790.598 698.14V720.662C790.598 721.49 789.926 722.162 789.098 722.162C788.318 722.162 787.677 721.567 787.605 720.806L787.598 720.662V698.14C787.598 697.311 788.269 696.64 789.098 696.64Z" fill="black"/><path id="Stroke 79" d="M319.603 144.992C322.068 144.992 324.471 145.356 326.753 146.068C327.544 146.315 327.984 147.157 327.737 147.947C327.49 148.738 326.649 149.179 325.858 148.932C323.867 148.31 321.766 147.992 319.603 147.992C307.893 147.992 298.401 157.486 298.401 169.204C298.401 180.915 307.897 190.416 319.603 190.416C320.432 190.416 321.103 191.088 321.103 191.916C321.103 192.745 320.432 193.416 319.603 193.416C306.24 193.416 295.401 182.571 295.401 169.204C295.401 155.83 306.236 144.992 319.603 144.992Z" fill="black"/><path id="Stroke 80" d="M381.628 154.025C381.883 153.237 382.729 152.805 383.517 153.06C391.976 155.801 397.816 163.708 397.816 172.738C397.816 184.159 388.558 193.416 377.138 193.416C371.893 193.416 366.951 191.456 363.165 187.985C362.554 187.425 362.513 186.476 363.073 185.866C363.633 185.255 364.582 185.214 365.192 185.774C368.43 188.742 372.651 190.416 377.138 190.416C386.901 190.416 394.816 182.502 394.816 172.738C394.816 165.018 389.822 158.257 382.592 155.914C381.804 155.659 381.372 154.813 381.628 154.025Z" fill="black"/><path id="Stroke 81" d="M354.905 119C371.549 119 385.054 132.505 385.054 149.15C385.054 151.046 384.876 152.932 384.528 154.766C384.374 155.58 383.589 156.115 382.776 155.961C381.962 155.807 381.427 155.022 381.581 154.208C381.894 152.557 382.054 150.858 382.054 149.15C382.054 134.162 369.892 122 354.905 122C340.495 122 328.617 133.263 327.803 147.585C327.756 148.412 327.048 149.045 326.221 148.998C325.394 148.951 324.761 148.242 324.808 147.415C325.712 131.507 338.902 119 354.905 119Z" fill="black"/><path id="Stroke 82" d="M323.513 190.413C324.342 190.413 325.013 191.085 325.013 191.913C325.013 192.693 324.419 193.334 323.658 193.406L323.513 193.413H319.607C318.779 193.413 318.107 192.742 318.107 191.913C318.107 191.133 318.702 190.493 319.463 190.42L319.607 190.413H323.513Z" fill="black"/><path id="Stroke 83" d="M335.539 174.328C336.319 174.328 336.96 174.923 337.032 175.684L337.039 175.828V213.487C337.039 214.316 336.367 214.987 335.539 214.987C334.759 214.987 334.119 214.392 334.046 213.632L334.039 213.487V175.828C334.039 175 334.711 174.328 335.539 174.328Z" fill="black"/><path id="Stroke 84" d="M351.896 161.088C352.675 161.088 353.316 161.683 353.389 162.443L353.396 162.588V200.247C353.396 201.075 352.724 201.747 351.896 201.747C351.116 201.747 350.475 201.152 350.402 200.391L350.396 200.247V162.588C350.396 161.759 351.067 161.088 351.896 161.088Z" fill="black"/><path id="Stroke 85" d="M609.164 388.092C609.418 387.355 610.189 386.942 610.932 387.121L611.071 387.161L622.56 391.111C623.343 391.381 623.76 392.234 623.49 393.018C623.237 393.755 622.466 394.168 621.723 393.989L621.584 393.949L610.095 389.999C609.312 389.729 608.895 388.876 609.164 388.092Z" fill="black"/><path id="Stroke 86" d="M603.419 396.058C603.673 395.321 604.444 394.908 605.187 395.087L605.326 395.127L616.815 399.078C617.598 399.348 618.015 400.201 617.745 400.985C617.492 401.722 616.721 402.134 615.978 401.956L615.839 401.915L604.35 397.964C603.567 397.695 603.15 396.841 603.419 396.058Z" fill="black"/></g></g></svg>