<svg viewBox="140.52499999999998 109.67415730337086 740.95 688.6516853932586" fill="none" xmlns="http://www.w3.org/2000/svg" xmlns:xlink="http://www.w3.org/1999/xlink" overflow="visible" width="740.95px" height="688.6516853932586px"><g id="Master/Scenes/Virtual Reality"><g id="Background" transform="translate(271 173) scale(1 1)"><g id="Background/1"><path id="Fill 3" fill-rule="evenodd" clip-rule="evenodd" d="M401.585 21.6223C324.481 -31.5289 222.87 16.9322 174.633 129.863L174.597 129.947C172.327 135.265 168.47 139.362 163.384 141.797C138.795 153.569 115.027 169.313 93.1804 188.984C-8.18827 280.257 -29.8672 421.435 44.7573 504.314C119.382 587.193 262.052 580.389 363.421 489.117C415.428 442.289 446.46 382.325 454.271 323.837C454.585 321.484 455.157 319.254 455.993 317.194C501.368 205.349 477.522 73.9681 401.585 21.6223" fill="black" fill-opacity="0.04"/></g></g><g id="Group 148"><path id="Fill 3" fill-rule="evenodd" clip-rule="evenodd" d="M522.985 776.447L547.163 784.198C552.491 785.028 556.42 789.616 556.42 795.008H502.253L502.435 776.461L522.985 776.447Z" fill="black"/><path id="Fill 5" fill-rule="evenodd" clip-rule="evenodd" d="M424.999 775.384L447.177 783.135C452.504 783.965 456.433 788.553 456.433 793.945H402.266L402.449 775.398L424.999 775.384Z" fill="black"/><path id="Stroke 7" d="M465.414 319.05C465.88 318.425 466.741 318.268 467.393 318.666L467.513 318.747L522.799 360.078L587.984 368.438C588.685 368.528 589.222 369.094 589.286 369.786L589.293 369.926V384.971C589.293 385.775 588.662 386.427 587.875 386.469L587.735 386.47L512.539 383.555C512.356 383.548 512.176 383.507 512.008 383.436L511.884 383.376L453.054 351.624C452.325 351.231 452.053 350.321 452.447 349.592C452.817 348.906 453.645 348.624 454.349 348.922L454.479 348.984L513.002 380.57L586.292 383.412V371.245L522.025 363.004C521.82 362.978 521.623 362.909 521.446 362.804L521.318 362.717L465.717 321.149C465.053 320.653 464.917 319.713 465.414 319.05Z" fill="black"/><path id="Stroke 9" d="M435.077 416.232L433.603 434.352C433.01 441.709 432.57 447.695 432.203 453.61L432.111 455.103L529.142 454.678L529.044 454.243C525.993 440.748 523.563 428.549 522.238 418.496L522.13 417.664C520.847 407.641 519.913 396.382 519.626 382.418C519.609 381.59 520.266 380.905 521.094 380.887C521.923 380.87 522.608 381.528 522.625 382.356L522.677 384.578C523.002 397.039 523.853 407.294 525.004 416.476L525.106 417.284C526.459 427.918 529.125 441.156 532.483 455.836C532.687 456.73 532.05 457.585 531.156 457.664L531.027 457.67L430.527 458.11C429.662 458.114 428.973 457.387 429.023 456.523L429.161 454.2C429.491 448.783 429.88 443.358 430.388 436.93L432.086 416L432.32 412.907C432.652 408.426 432.894 404.624 433.066 401.078L433.094 400.49C433.582 390.068 433.44 381.802 432.536 374.466L432.233 372.139C431.919 369.914 431.468 367.976 428.156 353.544L427.297 349.738C425.228 340.471 423.954 333.913 423.03 327.279L422.858 326.01C420.68 309.429 421.867 298.062 427.738 292.313C432.913 287.221 444.413 283.176 453.64 282.391C454.466 282.32 455.193 282.934 455.262 283.76C455.91 291.496 462.378 297.643 470.047 297.769C478.03 297.906 484.878 291.472 485.358 283.399C485.402 282.662 485.974 282.073 486.695 281.997L486.832 281.988L594.217 280.35L647.783 251.478C648.47 251.107 649.319 251.328 649.743 251.966L649.817 252.091L655.658 263.008C655.988 263.625 655.845 264.381 655.331 264.837L655.215 264.93L600.783 304.342C600.625 304.457 600.446 304.539 600.257 304.585L600.113 304.612L527.339 314.888L527.176 315.897C525.617 325.688 524.436 335.62 523.662 345.732L523.503 347.902C523.193 352.23 522.963 356.573 522.807 360.912C522.778 361.74 522.083 362.387 521.255 362.357C520.427 362.328 519.78 361.632 519.809 360.804C519.966 356.431 520.198 352.052 520.51 347.69C521.334 336.01 522.698 324.57 524.555 313.313C524.654 312.712 525.105 312.236 525.689 312.098L525.826 312.072L599.326 301.693L652.394 263.268L647.881 254.832L595.319 283.165C595.15 283.256 594.964 283.314 594.774 283.335L594.63 283.344L488.215 284.968L488.179 285.223C486.849 293.995 479.232 300.757 470.327 300.772L469.997 300.769C461.333 300.626 453.985 294.131 452.487 285.662L452.464 285.527L452.021 285.583C443.938 286.64 434.477 290.119 430.092 294.212L429.84 294.454C424.815 299.374 423.749 310.223 425.914 326.231L426.001 326.865C426.984 333.921 428.375 340.923 430.729 351.327L434.1 366.102C435.096 370.568 435.116 371.019 435.424 373.394C436.432 381.101 436.601 389.72 436.091 400.63L435.97 403.033C435.762 406.905 435.472 411.138 435.077 416.232Z" fill="black"/><path id="Stroke 11" d="M602.334 349.427C606.479 349.427 609.444 353.395 608.322 357.343L608.256 357.558L608.132 357.942L618.826 352.337C622.451 350.438 626.646 353.517 625.99 357.499L625.953 357.699L624.106 366.739C624.053 366.999 623.932 367.24 623.756 367.437L623.644 367.55L608.584 381.194C608.437 381.327 608.265 381.43 608.079 381.496L607.936 381.539L588.152 386.428C587.348 386.626 586.535 386.136 586.336 385.331C586.149 384.574 586.573 383.81 587.294 383.557L587.433 383.515L606.848 378.717L621.264 365.656L623.014 357.098C623.331 355.547 621.764 354.313 620.35 354.931L620.218 354.994L606.278 362.302C605.128 362.905 603.832 361.866 604.118 360.641L604.154 360.514L605.401 356.638C606.053 354.615 604.604 352.546 602.514 352.432L602.412 352.429L589.004 370.81C588.545 371.439 587.687 371.606 587.029 371.217L586.909 371.137C586.279 370.678 586.112 369.82 586.501 369.162L586.581 369.041L600.44 350.043C600.691 349.699 601.074 349.48 601.493 349.436L601.652 349.427H602.334Z" fill="black"/><path id="Stroke 13" d="M670.258 223.515C672.87 221.421 676.742 222.456 677.983 225.523L678.059 225.721L681.39 235.022C681.509 235.356 681.507 235.719 681.385 236.048L681.326 236.186L673.929 251.337C673.842 251.516 673.72 251.675 673.572 251.805L673.455 251.898L655.079 265.083C654.406 265.566 653.469 265.412 652.986 264.739C652.532 264.105 652.641 263.238 653.217 262.735L653.33 262.645L671.398 249.681L678.352 235.438L675.235 226.732C674.794 225.501 673.31 225.04 672.254 225.766L672.134 225.855L656.116 238.697C655.494 239.196 654.599 239.117 654.072 238.541L653.978 238.427L649.471 232.42C648.546 231.187 646.853 230.854 645.538 231.617L645.356 231.731L649.83 252.633C649.993 253.396 649.545 254.147 648.817 254.377L648.677 254.414C647.914 254.577 647.163 254.129 646.933 253.401L646.896 253.261L642.21 231.362C642.091 230.807 642.297 230.236 642.731 229.884L642.845 229.8L643.712 229.222C646.301 227.495 649.764 228.031 651.716 230.421L651.871 230.619L655.448 235.387L670.258 223.515Z" fill="black"/><path id="Stroke 15" d="M530.82 454.683C531.593 454.582 532.305 455.089 532.476 455.833L532.502 455.976L553.764 618.64C553.777 618.744 553.78 618.85 553.771 618.955L553.75 619.111L524.1 776.724C523.976 777.386 523.428 777.878 522.769 777.94L522.626 777.947H504.058C503.223 777.947 502.558 777.267 502.558 776.449L502.564 776.311L517.015 617.467L484.71 517.145L466.849 618.072L466.825 618.183L426.44 775.789C426.282 776.409 425.75 776.854 425.123 776.911L424.987 776.917H404.063C403.185 776.917 402.505 776.169 402.567 775.312L402.583 775.176L429.547 609.509L429.019 456.616C429.017 455.837 429.609 455.194 430.37 455.118L430.514 455.111C431.294 455.108 431.937 455.701 432.012 456.461L432.019 456.606L432.547 609.626L432.543 609.749L432.528 609.872L405.826 773.917H423.823L463.905 617.493L482.809 510.673C483.073 509.182 485.098 508.996 485.663 510.335L485.714 510.474L519.965 616.839C520.011 616.983 520.036 617.133 520.037 617.284L520.031 617.435L505.701 774.947H521.382L550.757 618.793L529.527 456.365C529.426 455.591 529.933 454.879 530.677 454.708L530.82 454.683Z" fill="black"/><path id="Stroke 17" d="M484.679 271.118C485.447 270.983 486.181 271.458 486.384 272.195L486.416 272.336L488.328 283.229C488.471 284.045 487.926 284.822 487.11 284.965C486.342 285.1 485.608 284.625 485.405 283.888L485.373 283.747L483.461 272.854C483.318 272.038 483.863 271.261 484.679 271.118Z" fill="black"/><path id="Stroke 19" d="M455.811 259.946C456.588 260.012 457.176 260.659 457.184 261.424L457.178 261.568L455.261 284.014C455.191 284.84 454.465 285.451 453.639 285.381C452.862 285.315 452.275 284.667 452.267 283.903L452.272 283.759L454.189 261.313C454.256 260.536 454.903 259.948 455.667 259.94L455.811 259.946Z" fill="black"/><path id="Stroke 21" d="M507.671 216.46C508.465 216.223 509.301 216.674 509.538 217.468C515.459 237.294 511.589 259.313 499.909 267.889C498.566 268.876 497.14 269.752 495.642 270.525C492.075 272.366 488.268 273.549 484.463 274.211C483.132 274.442 481.894 274.592 480.779 274.677L480.354 274.706C479.89 274.736 479.543 274.747 479.325 274.747C474.101 274.761 469.502 273.628 465.35 271.806C464.591 271.473 464.246 270.588 464.579 269.83C464.912 269.071 465.796 268.726 466.555 269.059C470.187 270.652 474.189 271.669 478.699 271.743L479.317 271.747C479.526 271.747 479.948 271.731 480.551 271.685C481.573 271.608 482.717 271.469 483.95 271.255C487.473 270.642 490.994 269.548 494.266 267.859C495.628 267.157 496.92 266.362 498.134 265.471C508.619 257.772 512.259 237.063 506.663 218.327C506.426 217.533 506.877 216.697 507.671 216.46Z" fill="black"/><path id="Fill 23" fill-rule="evenodd" clip-rule="evenodd" d="M454.929 230.093C458.179 230.908 464.727 232.484 469.509 227.702C472.669 224.541 474.652 219.646 478.197 218.722C482.971 217.477 485.45 221.166 491.642 222.686C497.666 224.163 506.765 223.48 512.156 217.86C516.945 212.865 517.511 204.898 515.854 198.466C514.494 193.188 510.399 186.233 506.379 182.552C503.063 179.516 498.561 177.045 493.93 178.045C490.459 178.794 487.789 181.286 484.835 183.078C481.38 185.175 477.35 185.788 473.357 185.996C469.031 186.221 464.696 185.864 460.366 185.952C455.857 186.045 451.296 186.642 447.149 188.412C443.346 190.037 438.192 195.13 436.462 199.029C434.4 203.675 434.677 209.062 433.992 213.925C433.317 218.728 430.523 223.129 428.438 227.508C421.855 241.342 430.774 259.912 444.411 265.533C447.191 266.68 450.382 267.385 453.364 266.67C456.465 265.926 457.377 263.153 457.447 260.211C457.537 256.36 456.351 252.565 454.605 249.131C453.271 246.508 451.614 244.07 449.895 241.687C448.242 239.397 446.614 236.748 447.893 233.846C449.06 231.2 451.957 229.631 454.929 230.093" fill="black"/><path id="Stroke 25" d="M444.067 455.047C444.845 455.086 445.456 455.712 445.49 456.476L445.49 456.62L444.459 477.283C444.445 477.56 444.355 477.826 444.2 478.053L444.1 478.185L431.767 492.576C431.228 493.205 430.281 493.278 429.652 492.739C429.062 492.233 428.961 491.369 429.395 490.745L429.489 490.624L441.488 476.621L442.494 456.471C442.533 455.692 443.159 455.082 443.922 455.047L444.067 455.047Z" fill="black"/><g id="Group"><path id="Stroke 49" fill-rule="evenodd" clip-rule="evenodd" d="M614.148 637.808C619.114 631.028 625.553 627.412 632.284 625.569C633.191 625.321 634.1 625.958 634.175 626.895L635.05 637.739L635.297 637.787C635.517 637.833 635.742 637.888 635.974 637.953L636.325 638.058C637.734 638.506 639.04 639.248 640.157 640.351C640.771 640.957 641.264 641.603 641.658 642.274L641.789 642.508L642.19 642.351C644.567 641.446 648.182 640.489 650.109 640.314L650.318 640.297C653.007 640.123 655.335 640.386 656.717 641.091C657.128 641.3 657.42 641.687 657.508 642.139C657.83 643.786 656.796 648.944 656.005 651.382C655.086 654.203 652.092 659.908 650.461 661.885L650.394 661.964L650.355 662.103C649.046 666.754 648.931 670.782 650.334 676.288L650.479 676.844C651.177 679.448 652.143 681.531 653.661 683.874C654.35 684.938 656.846 688.369 658.183 690.207C658.476 690.609 658.713 690.935 658.863 691.143L659.541 692.107C667.232 703.209 672.674 715.77 675.515 728.98C677.012 735.942 677.816 743.152 677.935 750.497C677.951 751.49 677.931 752.32 677.85 753.763L677.625 757.369C677.585 758.014 677.557 758.531 677.535 759.028L677.495 760.132C677.381 764.296 677.783 767.187 678.96 769.357C679.314 770.01 679.552 770.407 679.888 770.855C680.519 771.695 681.165 772.193 681.77 772.289C683.524 772.567 685.76 770.122 688.238 766.041L688.611 765.417C691.497 760.526 693.293 754.321 694.051 743.305L694.088 742.749C694.263 740.036 694.283 738.251 694.209 735.935L694.116 732.996C694.061 730.74 694.073 728.725 694.176 725.929L694.244 724.267C694.635 715.477 694.977 711.554 696.064 706.111L696.22 705.341C699.514 689.408 706.613 679.477 719.672 677.103C720.485 676.955 721.265 677.493 721.415 678.306C722.159 682.322 720.737 685.264 716.621 690.673L716.31 691.082C715.734 691.84 715.425 692.247 715.184 692.575L714.447 693.61C708.923 701.62 707.647 710.415 707.995 727.454L708.122 733.426C708.182 736.642 708.186 738.587 708.135 740.867L708.11 741.79C707.809 751.059 706.055 761.409 702.935 770.097C698.832 781.525 692.654 789.566 684.266 792.837C679.883 794.546 674.95 795.471 670.297 795.444C664.411 795.408 659.301 795.343 651.938 795.207L629.545 794.754C618.505 794.535 610.615 794.423 603.015 794.402L597.753 794.4C596.716 794.392 596.127 794.31 595.411 793.986C593.204 792.985 592.46 790.13 593.411 787.851C594.068 786.277 595.067 785.279 597.127 783.72C598.488 782.691 599.515 781.206 600.239 779.256C601.985 774.551 602.065 768.713 600.929 761.583L600.733 760.321C598.561 746.028 598.23 732.191 599.916 718.999C600.935 711.022 602.4 704.07 604.537 697.784C604.633 697.503 604.727 697.227 604.825 696.943L606.983 690.755C608.762 685.587 609.654 682.58 610.343 679.207L610.521 678.304C610.788 676.896 610.992 675.533 611.132 674.201C611.469 670.981 611.342 668.278 610.73 663.077L610.258 659.15C609.785 655.034 609.658 652.781 609.821 650.212L609.86 649.656C610.204 645.236 611.526 641.388 614.148 637.808ZM632.159 639.205L631.334 628.986C625.833 630.797 620.636 634.026 616.568 639.58C612.604 644.994 612.142 649.485 613.394 660.113L613.589 661.723C614.286 667.448 614.482 670.438 614.179 673.865L614.116 674.514C613.967 675.932 613.75 677.376 613.468 678.864C612.7 682.902 611.757 686.126 609.671 692.164L607.519 698.335L607.123 699.513C605.195 705.389 603.846 711.911 602.892 719.379C601.195 732.663 601.587 746.641 603.892 761.111L603.995 761.778C605.095 769.075 604.958 775.163 603.051 780.3C602.139 782.757 600.784 784.715 598.937 786.112C597.288 787.36 596.566 788.082 596.18 789.007C595.801 789.914 596.083 790.997 596.649 791.254C596.901 791.368 597.229 791.402 598.014 791.4L600.796 791.398C607.832 791.402 614.873 791.482 624.2 791.652L649.26 792.156C655.493 792.276 660.113 792.35 664.587 792.397L670.315 792.444C674.587 792.469 679.143 791.614 683.176 790.042C696.936 784.677 704.639 763.225 705.136 740.801L705.141 740.534C705.183 738.499 705.179 736.679 705.129 733.839L704.971 726.157C704.705 709.16 706.177 700.124 712.219 691.56C712.398 691.306 712.537 691.111 712.698 690.891L714.763 688.154C717.314 684.731 718.475 682.579 718.58 680.46L718.582 680.403L718.26 680.486C708.011 683.176 702.198 691.724 699.265 705.438L699.158 705.949C698.118 710.981 697.73 714.496 697.374 721.571L697.241 724.401C697.062 728.424 697.048 730.777 697.138 733.771L697.222 736.314C697.285 738.657 697.246 740.57 697.044 743.511C696.255 754.974 694.329 761.631 691.195 766.941C689.924 769.097 688.987 770.514 687.712 771.971C685.647 774.329 683.545 775.608 681.3 775.252C679.777 775.011 678.543 774.06 677.489 772.656C677.041 772.059 676.742 771.561 676.323 770.787C674.782 767.946 674.336 764.467 674.512 759.557C674.535 758.89 674.565 758.273 674.613 757.472L674.772 754.959C674.904 752.873 674.947 751.891 674.939 750.847L674.908 749.285C674.725 742.569 673.952 735.98 672.582 729.61C669.762 716.495 664.299 704.039 656.563 693.083C656.486 692.975 656.216 692.603 655.831 692.074C654.648 690.448 652.388 687.343 651.411 685.906L651.143 685.505C649.462 682.91 648.365 680.544 647.582 677.621C645.828 671.086 645.98 666.305 647.613 660.785C647.688 660.532 647.827 660.304 648.018 660.122L648.107 660.032C649.251 658.796 652.32 653.008 653.152 650.454C653.658 648.895 654.388 645.44 654.554 643.659L654.566 643.497L654.431 643.467C653.537 643.28 652.266 643.2 650.824 643.273L650.512 643.291C649.538 643.354 647.585 643.788 645.584 644.378C643.782 644.909 642.206 645.511 642.046 645.654C641.245 646.366 639.978 646.033 639.63 645.019C639.322 644.119 638.825 643.252 638.049 642.486C637.291 641.737 636.396 641.229 635.417 640.918C634.741 640.703 634.141 640.611 633.578 640.582C632.826 640.544 632.22 639.955 632.159 639.205Z" fill="black"/><path id="Stroke 51" d="M651.054 720.722C651.814 720.392 652.697 720.74 653.027 721.5C653.357 722.26 653.008 723.144 652.248 723.473C645.249 726.512 638.739 731.529 634.371 739.894C630.828 746.677 629.845 753.921 630.79 761.233C631.136 763.91 631.725 766.444 632.476 768.786C632.977 770.344 633.456 771.552 633.902 772.528C634.248 773.284 633.913 774.177 633.155 774.519L612.532 783.823C611.777 784.164 610.888 783.828 610.548 783.072C610.207 782.317 610.543 781.429 611.298 781.088L630.581 772.388L630.485 772.147C630.25 771.547 630.01 770.886 629.767 770.152L629.62 769.703C628.815 767.195 628.185 764.485 627.815 761.618C626.796 753.732 627.861 745.877 631.711 738.505C636.452 729.426 643.482 724.009 651.054 720.722Z" fill="black"/><path id="Stroke 53" d="M617.096 714.506C617.876 714.532 618.496 715.148 618.543 715.911L618.545 716.055L617.158 757.094C617.13 757.922 616.436 758.571 615.608 758.543C614.829 758.516 614.208 757.9 614.162 757.138L614.16 756.993L615.547 715.954C615.575 715.126 616.268 714.478 617.096 714.506Z" fill="black"/><path id="Stroke 55" d="M598.531 643.666C598.893 642.976 599.717 642.685 600.425 642.974L600.556 643.035L623.511 655.073C624.244 655.457 624.527 656.364 624.143 657.098C623.78 657.788 622.956 658.079 622.249 657.791L622.118 657.73L599.163 645.692C598.429 645.307 598.146 644.4 598.531 643.666Z" fill="black"/><path id="Stroke 57" d="M622.814 661.502C623.643 661.502 624.314 662.173 624.314 663.002C624.314 663.781 623.719 664.422 622.959 664.495L622.814 664.502H592.597C591.769 664.502 591.097 663.83 591.097 663.002C591.097 662.222 591.692 661.581 592.453 661.509L592.597 661.502H622.814Z" fill="black"/><path id="Stroke 59" d="M666.476 657.17C667.304 657.17 667.976 657.841 667.976 658.67C667.976 659.449 667.381 660.09 666.62 660.163L666.476 660.17H636.826C635.998 660.17 635.326 659.498 635.326 658.67C635.326 657.89 635.921 657.249 636.681 657.177L636.826 657.17H666.476Z" fill="black"/><path id="Stroke 61" d="M634.958 664.847C635.224 664.114 636.001 663.714 636.741 663.905L636.879 663.948L667.444 675.014C668.223 675.296 668.626 676.156 668.344 676.935C668.079 677.668 667.301 678.068 666.561 677.877L666.423 677.834L635.858 666.768C635.079 666.486 634.676 665.626 634.958 664.847Z" fill="black"/><path id="Stroke 63" d="M663.799 757.544C664.626 757.492 665.338 758.12 665.39 758.947C665.513 760.901 665.431 763.019 664.958 765.479C664.261 769.104 662.826 772.601 660.473 775.797C656.876 780.684 652.43 783.413 647.836 784.927C647.049 785.187 646.201 784.759 645.941 783.972C645.682 783.185 646.11 782.337 646.896 782.078C650.952 780.741 654.886 778.326 658.057 774.018C660.131 771.202 661.396 768.119 662.012 764.913C662.432 762.73 662.504 760.856 662.396 759.135C662.344 758.308 662.972 757.595 663.799 757.544Z" fill="black"/></g><path id="Stroke 65" d="M833.296 792.444C834.124 792.444 834.796 793.116 834.796 793.944C834.796 794.724 834.201 795.365 833.44 795.437L833.296 795.444H174.958C174.129 795.444 173.458 794.773 173.458 793.944C173.458 793.164 174.053 792.524 174.813 792.451L174.958 792.444H833.296Z" fill="black"/><path id="Stroke 76" fill-rule="evenodd" clip-rule="evenodd" d="M203.976 260.527H286.601C287.43 260.527 288.101 261.198 288.101 262.027V296.115C288.101 296.943 287.43 297.615 286.601 297.615H203.976C203.148 297.615 202.476 296.943 202.476 296.115V262.027C202.476 261.198 203.148 260.527 203.976 260.527ZM285.101 294.615V263.527H205.476V294.615H285.101Z" fill="black"/><path id="Stroke 77" fill-rule="evenodd" clip-rule="evenodd" d="M286.601 260.454H369.226C370.055 260.454 370.726 261.125 370.726 261.954V296.042C370.726 296.87 370.055 297.542 369.226 297.542H286.601C285.773 297.542 285.101 296.87 285.101 296.042V261.954C285.101 261.125 285.773 260.454 286.601 260.454ZM367.726 294.541V263.453H288.101V294.541H367.726Z" fill="black"/><path id="Stroke 78" d="M404.583 260.454C405.411 260.454 406.083 261.125 406.083 261.954C406.083 262.734 405.488 263.374 404.727 263.447L404.583 263.454L370.726 263.453V294.541L387.395 294.542C388.175 294.542 388.815 295.137 388.888 295.897L388.895 296.042C388.895 296.822 388.3 297.462 387.539 297.535L387.395 297.542H369.227C368.447 297.542 367.806 296.947 367.734 296.186L367.727 296.042V261.954C367.727 261.174 368.322 260.533 369.082 260.461L369.227 260.454H404.583Z" fill="black"/><path id="Stroke 79" fill-rule="evenodd" clip-rule="evenodd" d="M245.289 294.515H327.914C328.742 294.515 329.414 295.186 329.414 296.015V330.103C329.414 330.931 328.742 331.603 327.914 331.603H245.289C244.461 331.603 243.789 330.931 243.789 330.103V296.015C243.789 295.186 244.461 294.515 245.289 294.515ZM326.414 328.602V297.514H246.788V328.602H326.414Z" fill="black"/><path id="Stroke 80" fill-rule="evenodd" clip-rule="evenodd" d="M245.289 226.439H327.914C328.742 226.439 329.414 227.111 329.414 227.939V262.027C329.414 262.855 328.742 263.527 327.914 263.527H245.289C244.461 263.527 243.789 262.855 243.789 262.027V227.939C243.789 227.111 244.461 226.439 245.289 226.439ZM326.414 260.526V229.438H246.788V260.526H326.414Z" fill="black"/><path id="Stroke 81" d="M203.976 294.615C204.804 294.615 205.476 295.287 205.476 296.115C205.476 296.895 204.881 297.535 204.12 297.608L203.976 297.615H146.5C145.671 297.615 145 296.943 145 296.115C145 295.335 145.595 294.695 146.355 294.622L146.5 294.615H203.976Z" fill="black"/><path id="Stroke 82" d="M207.554 260.527C208.383 260.527 209.054 261.199 209.054 262.027C209.054 262.807 208.46 263.448 207.699 263.52L207.554 263.527H184.219C183.391 263.527 182.719 262.856 182.719 262.027C182.719 261.247 183.314 260.607 184.075 260.534L184.219 260.527H207.554Z" fill="black"/><path id="Stroke 83" d="M286.601 196.899C287.381 196.899 288.022 197.494 288.094 198.255L288.101 198.399V227.939C288.101 228.768 287.43 229.439 286.601 229.439C285.822 229.439 285.181 228.844 285.108 228.084L285.101 227.939V198.399C285.101 197.571 285.773 196.899 286.601 196.899Z" fill="black"/><path id="Stroke 84" d="M307.612 196.899C308.44 196.899 309.112 197.571 309.112 198.399C309.112 199.179 308.517 199.82 307.756 199.892L307.612 199.899H257.894C257.065 199.899 256.394 199.228 256.394 198.399C256.394 197.619 256.989 196.979 257.749 196.906L257.894 196.899H307.612Z" fill="black"/><path id="Stroke 85" d="M387.018 226.439C387.846 226.439 388.518 227.111 388.518 227.939C388.518 228.719 387.923 229.36 387.162 229.432L387.018 229.439H327.914C327.085 229.439 326.414 228.768 326.414 227.939C326.414 227.16 327.009 226.519 327.769 226.446L327.914 226.439H387.018Z" fill="black"/><path id="Stroke 86" d="M245.288 328.603C246.117 328.603 246.788 329.275 246.788 330.103C246.788 330.883 246.193 331.524 245.433 331.596L245.288 331.603H221.223C220.395 331.603 219.723 330.932 219.723 330.103C219.723 329.324 220.318 328.683 221.079 328.61L221.223 328.603H245.288Z" fill="black"/><path id="Stroke 87" d="M351.386 328.603C352.214 328.603 352.886 329.275 352.886 330.103C352.886 330.883 352.291 331.524 351.53 331.596L351.386 331.603H327.914C327.085 331.603 326.414 330.932 326.414 330.103C326.414 329.324 327.009 328.683 327.769 328.61L327.914 328.603H351.386Z" fill="black"/><path id="Stroke 88" fill-rule="evenodd" clip-rule="evenodd" d="M669.18 544.716H751.805C752.633 544.716 753.305 545.388 753.305 546.216V580.304C753.305 581.132 752.633 581.804 751.805 581.804H669.18C668.352 581.804 667.68 581.132 667.68 580.304V546.216C667.68 545.388 668.352 544.716 669.18 544.716ZM750.305 578.803V547.715H670.68V578.803H750.305Z" fill="black"/><path id="Stroke 89" fill-rule="evenodd" clip-rule="evenodd" d="M751.805 544.641H834.43C835.259 544.641 835.93 545.312 835.93 546.141V580.229C835.93 581.057 835.259 581.729 834.43 581.729H751.805C750.977 581.729 750.305 581.057 750.305 580.229V546.141C750.305 545.312 750.977 544.641 751.805 544.641ZM832.93 578.729V547.641H753.305V578.729H832.93Z" fill="black"/><path id="Stroke 90" d="M869.787 544.641C870.616 544.641 871.287 545.313 871.287 546.141C871.287 546.921 870.693 547.562 869.932 547.634L869.787 547.641L835.93 547.641V578.729L852.599 578.729C853.379 578.729 854.02 579.324 854.093 580.085L854.099 580.229C854.099 581.009 853.505 581.65 852.744 581.722L852.599 581.729H834.43C833.651 581.729 833.01 581.134 832.937 580.374L832.93 580.229V546.141C832.93 545.362 833.525 544.721 834.286 544.648L834.43 544.641H869.787Z" fill="black"/><path id="Stroke 91" d="M793.118 578.729C793.898 578.729 794.538 579.324 794.611 580.085L794.618 580.229V614.317C794.618 615.146 793.946 615.817 793.118 615.817C792.338 615.817 791.697 615.222 791.625 614.462L791.618 614.317V580.229C791.618 579.401 792.289 578.729 793.118 578.729Z" fill="black"/><path id="Stroke 92" d="M793.118 510.627C793.898 510.627 794.538 511.222 794.611 511.983L794.618 512.127L794.617 544.715L875.744 544.715C876.524 544.715 877.164 545.31 877.237 546.071L877.244 546.215C877.244 546.995 876.649 547.636 875.888 547.709L875.744 547.715H793.118C792.338 547.715 791.697 547.121 791.625 546.36L791.618 546.215V512.127C791.618 511.299 792.289 510.627 793.118 510.627Z" fill="black"/><path id="Stroke 93" d="M669.18 578.803C670.009 578.803 670.68 579.475 670.68 580.303C670.68 581.083 670.086 581.724 669.325 581.797L669.18 581.803H633.19C632.362 581.803 631.69 581.132 631.69 580.303C631.69 579.524 632.285 578.883 633.046 578.81L633.19 578.803H669.18Z" fill="black"/><path id="Stroke 94" d="M672.759 544.716C673.587 544.716 674.259 545.387 674.259 546.216C674.259 546.995 673.664 547.636 672.903 547.709L672.759 547.716H649.424C648.595 547.716 647.924 547.044 647.924 546.216C647.924 545.436 648.518 544.795 649.279 544.722L649.424 544.716H672.759Z" fill="black"/><path id="Stroke 100" fill-rule="evenodd" clip-rule="evenodd" d="M739.568 792.851C727.651 787.402 722.407 773.325 727.854 761.408C733.303 749.49 747.379 744.245 759.296 749.693C771.213 755.141 776.459 769.219 771.01 781.136C765.563 793.053 751.486 798.298 739.568 792.851ZM768.282 779.889C773.041 769.478 768.459 757.18 758.049 752.422L757.719 752.274C747.38 747.759 735.292 752.354 730.582 762.655C725.824 773.066 730.405 785.363 740.816 790.122C751.226 794.881 763.523 790.299 768.282 779.889Z" fill="black"/><path id="Stroke 101" d="M742.603 748.566C743.356 748.221 744.247 748.551 744.592 749.303C747.454 755.533 747.52 762.713 744.614 769.069C741.709 775.426 736.235 780.074 729.653 781.985C728.857 782.216 728.025 781.758 727.794 780.963C727.563 780.167 728.02 779.335 728.816 779.104C734.569 777.433 739.347 773.376 741.886 767.822C744.425 762.268 744.367 756.001 741.866 750.556C741.52 749.803 741.85 748.912 742.603 748.566Z" fill="black"/><path id="Stroke 102" d="M769.222 760.562C770.018 760.331 770.85 760.789 771.081 761.585C771.312 762.38 770.854 763.212 770.058 763.443C764.304 765.114 759.527 769.171 756.988 774.725C754.45 780.281 754.507 786.549 757.008 791.992C757.354 792.744 757.024 793.635 756.271 793.981C755.519 794.327 754.628 793.997 754.282 793.244C751.421 787.016 751.355 779.836 754.26 773.478C757.165 767.122 762.638 762.474 769.222 760.562Z" fill="black"/><path id="Fill 103" fill-rule="evenodd" clip-rule="evenodd" d="M660.126 163.292C660.126 191.067 637.609 213.584 609.834 213.584C582.058 213.584 559.541 191.067 559.541 163.292C559.541 135.517 582.058 113 609.834 113C637.609 113 660.126 135.517 660.126 163.292" fill="black"/><path id="Stroke 104" d="M595.21 175.13C596.5 164.515 605.93 156.106 615.44 159.572C622.692 162.215 626.521 168.43 627.112 176.822C627.599 183.733 625.773 191.777 622.615 197.897C622.362 198.388 621.759 198.581 621.268 198.327C620.777 198.074 620.584 197.471 620.838 196.98C623.834 191.175 625.577 183.493 625.117 176.962C624.578 169.297 621.188 163.795 614.755 161.451C606.644 158.495 598.347 165.894 597.195 175.371C596.379 182.095 597.947 189.551 601.408 195.228C601.696 195.7 601.547 196.315 601.075 196.603C600.603 196.89 599.988 196.741 599.701 196.269C596.003 190.205 594.34 182.296 595.21 175.13Z" fill="#F5F5F5"/><path id="Stroke 105" d="M593.285 139.467C594.438 139.37 595.586 139.529 596.688 139.96C598.581 140.705 600.231 142.058 601.902 144.024C605.24 147.965 607.258 152.245 609.776 159.637C609.954 160.159 609.675 160.728 609.152 160.906C608.629 161.084 608.061 160.804 607.883 160.281L607.491 159.145C605.228 152.669 603.341 148.816 600.377 145.318C598.901 143.581 597.491 142.425 595.957 141.821C595.147 141.505 594.305 141.388 593.442 141.46C592.182 141.553 590.872 142.055 589.606 142.902C588.707 143.507 587.931 144.334 587.348 145.31C586.409 146.86 586.032 148.652 586.324 150.276C586.703 152.347 588.094 154.289 590.344 156.188L591.524 157.163C591.935 157.497 592.384 157.857 592.932 158.292L595.712 160.493C598.11 162.4 599.42 163.501 600.903 164.88C601.308 165.256 601.331 165.888 600.955 166.293C600.579 166.697 599.946 166.72 599.541 166.344L598.83 165.693C597.586 164.573 596.305 163.516 594.155 161.81L590.819 159.164C590.161 158.636 589.633 158.202 589.056 157.718C586.483 155.546 584.834 153.245 584.356 150.633C583.975 148.509 584.455 146.226 585.634 144.279C586.363 143.058 587.343 142.014 588.492 141.241C590.031 140.211 591.664 139.586 593.285 139.467Z" fill="#F5F5F5"/><path id="Stroke 106" d="M622.871 149.754C627.275 145.899 632.929 144.534 638.023 146.465C642.795 148.287 645.737 152.916 644.263 157.521C643.606 159.584 642.167 161.308 639.938 163.085C637.65 164.895 635.07 166.386 632.3 167.516C629.736 168.563 627.019 169.299 624.252 169.699C623.706 169.778 623.199 169.399 623.12 168.852C623.041 168.305 623.42 167.798 623.966 167.719C626.572 167.343 629.132 166.649 631.544 165.664C634.143 164.604 636.559 163.207 638.694 161.519C640.639 159.968 641.845 158.524 642.358 156.913C643.473 153.428 641.172 149.808 637.312 148.334C632.957 146.683 628.067 147.864 624.187 151.259C621.231 153.841 618.844 157.494 617.498 161.433C617.319 161.956 616.751 162.235 616.228 162.056C615.705 161.878 615.427 161.309 615.605 160.787C617.063 156.522 619.644 152.571 622.871 149.754Z" fill="#F5F5F5"/><path id="Stroke 107" d="M588.666 175.759C588.894 175.3 589.428 175.094 589.899 175.264L590.007 175.309L596.429 178.504C596.923 178.75 597.125 179.351 596.879 179.845C596.65 180.304 596.116 180.511 595.645 180.341L595.538 180.295L589.116 177.1C588.621 176.854 588.42 176.254 588.666 175.759Z" fill="#F5F5F5"/><path id="Stroke 108" d="M630.843 182.976C631.309 182.679 631.927 182.815 632.225 183.28C632.501 183.712 632.404 184.276 632.016 184.592L631.922 184.661L625.712 188.635C625.246 188.933 624.628 188.797 624.33 188.332C624.054 187.9 624.151 187.336 624.539 187.019L624.633 186.95L630.843 182.976Z" fill="#F5F5F5"/><path id="Stroke 109" d="M585.058 148.385C585.603 148.293 586.119 148.661 586.21 149.205C586.295 149.711 585.985 150.192 585.504 150.331L585.39 150.357L576.111 151.919C575.566 152.011 575.051 151.644 574.959 151.099C574.874 150.594 575.184 150.113 575.665 149.973L575.779 149.947L585.058 148.385Z" fill="#F5F5F5"/><path id="Stroke 110" d="M575.029 139.777C575.234 139.307 575.757 139.074 576.236 139.221L576.346 139.261L586.889 143.871C587.395 144.093 587.626 144.682 587.404 145.188C587.199 145.658 586.676 145.891 586.197 145.744L586.087 145.704L575.544 141.094C575.038 140.872 574.808 140.283 575.029 139.777Z" fill="#F5F5F5"/><path id="Stroke 111" d="M583.216 131.429C583.666 131.183 584.222 131.318 584.512 131.727L584.574 131.826L589.925 141.592C590.19 142.076 590.013 142.684 589.528 142.949C589.079 143.196 588.523 143.06 588.233 142.652L588.171 142.553L582.82 132.787C582.555 132.303 582.732 131.695 583.216 131.429Z" fill="#F5F5F5"/><path id="Stroke 112" d="M594.918 128.784C595.43 128.807 595.835 129.212 595.87 129.711L595.872 129.828L595.391 140.504C595.366 141.056 594.899 141.483 594.347 141.458C593.834 141.435 593.43 141.03 593.394 140.531L593.393 140.414L593.874 129.738C593.899 129.186 594.366 128.759 594.918 128.784Z" fill="#F5F5F5"/><path id="Fill 113" fill-rule="evenodd" clip-rule="evenodd" d="M599.509 152.536C599.509 153.911 598.394 155.026 597.018 155.026C595.643 155.026 594.528 153.911 594.528 152.536C594.528 151.16 595.643 150.045 597.018 150.045C598.394 150.045 599.509 151.16 599.509 152.536" fill="#F5F5F5"/><path id="Fill 114" fill-rule="evenodd" clip-rule="evenodd" d="M608.298 173.715C608.298 175.09 607.183 176.205 605.808 176.205C604.432 176.205 603.317 175.09 603.317 173.715C603.317 172.339 604.432 171.224 605.808 171.224C607.183 171.224 608.298 172.339 608.298 173.715" fill="#F5F5F5"/><path id="Fill 115" fill-rule="evenodd" clip-rule="evenodd" d="M633.014 156.363C633.014 157.738 631.899 158.853 630.523 158.853C629.148 158.853 628.033 157.738 628.033 156.363C628.033 154.987 629.148 153.872 630.523 153.872C631.899 153.872 633.014 154.987 633.014 156.363" fill="#F5F5F5"/><path id="Fill 116" fill-rule="evenodd" clip-rule="evenodd" d="M619.244 181.088C619.244 182.464 618.129 183.579 616.754 183.579C615.378 183.579 614.263 182.464 614.263 181.088C614.263 179.712 615.378 178.597 616.754 178.597C618.129 178.597 619.244 179.712 619.244 181.088" fill="#F5F5F5"/><path id="Fill 117" fill-rule="evenodd" clip-rule="evenodd" d="M611.305 189.952C611.305 191.328 610.19 192.443 608.814 192.443C607.439 192.443 606.324 191.328 606.324 189.952C606.324 188.577 607.439 187.462 608.814 187.462C610.19 187.462 611.305 188.577 611.305 189.952" fill="#F5F5F5"/><path id="Stroke 118" d="M631.079 166.048C631.356 165.617 631.91 165.471 632.359 165.691L632.461 165.749L637.025 168.686C637.489 168.984 637.623 169.603 637.325 170.068C637.047 170.499 636.494 170.645 636.044 170.425L635.943 170.367L631.379 167.43C630.914 167.132 630.78 166.513 631.079 166.048Z" fill="#F5F5F5"/><path id="Stroke 119" d="M631.083 138.261C631.59 138.341 631.948 138.788 631.927 139.288L631.916 139.405L630.68 147.26C630.594 147.805 630.082 148.178 629.537 148.092C629.03 148.012 628.672 147.565 628.693 147.065L628.704 146.949L629.94 139.094C630.02 138.587 630.467 138.23 630.967 138.25L631.083 138.261Z" fill="#F5F5F5"/><path id="Stroke 120" d="M647.053 148.017C647.55 147.778 648.148 147.986 648.388 148.484C648.611 148.946 648.446 149.494 648.024 149.762L647.921 149.819L642.959 152.211C642.462 152.451 641.864 152.242 641.624 151.744C641.402 151.282 641.566 150.734 641.989 150.466L642.091 150.409L647.053 148.017Z" fill="#F5F5F5"/><path id="Stroke 121" d="M606.296 142.572C606.551 142.082 607.155 141.892 607.645 142.147C608.1 142.384 608.296 142.921 608.118 143.389L608.07 143.495L605.006 149.38C604.751 149.87 604.147 150.061 603.657 149.806C603.202 149.569 603.006 149.031 603.184 148.563L603.232 148.457L606.296 142.572Z" fill="#F5F5F5"/><path id="Stroke 122" d="M593.56 159.494C594.06 159.26 594.656 159.476 594.89 159.976C595.107 160.441 594.937 160.987 594.511 161.25L594.408 161.306L588.489 164.076C587.989 164.31 587.393 164.094 587.159 163.594C586.942 163.13 587.112 162.583 587.538 162.32L587.641 162.264L593.56 159.494Z" fill="#F5F5F5"/><path id="Fill 123" fill-rule="evenodd" clip-rule="evenodd" d="M389.764 405.767C389.764 431.965 368.526 453.204 342.327 453.204C316.129 453.204 294.89 431.965 294.89 405.767C294.89 379.569 316.129 358.33 342.327 358.33C368.526 358.33 389.764 379.569 389.764 405.767" fill="black"/><path id="Stroke 124" d="M346.889 425.577C347.355 425.282 347.973 425.42 348.269 425.887C348.543 426.32 348.443 426.884 348.054 427.199L347.929 427.286C347.827 427.351 347.562 427.52 347.452 427.588C347.198 427.748 346.948 427.9 346.682 428.055C345.98 428.466 345.245 428.855 344.457 429.221C340.216 431.193 335.719 431.964 331.137 430.845C327.749 430.016 324.977 428.432 322.661 426.432C322.177 426.013 322.205 425.254 322.718 424.873C323.856 424.027 324.802 422.965 325.424 421.574C325.918 420.464 326.206 419.12 326.235 417.797C326.248 417.245 326.705 416.807 327.257 416.819C327.809 416.832 328.247 417.289 328.235 417.841C328.2 419.423 327.855 421.029 327.251 422.388C326.679 423.667 325.898 424.713 324.974 425.588L324.888 425.666L324.992 425.746C326.749 427.073 328.775 428.134 331.136 428.779L331.612 428.903C335.694 429.899 339.751 429.203 343.614 427.407C344.342 427.069 345.022 426.709 345.673 426.328L346.035 426.113L346.529 425.806L346.889 425.577Z" fill="#F5F5F5"/><path id="Stroke 125" d="M314.115 395.527C314.616 394.849 315.66 395.065 315.879 395.843L315.944 396.155C315.994 396.386 316.082 396.718 316.215 397.122C316.515 398.028 316.933 398.935 317.487 399.775C318.91 401.933 320.957 403.286 323.813 403.5C324.364 403.541 324.777 404.021 324.736 404.572C324.694 405.122 324.215 405.535 323.664 405.494C320.148 405.231 317.562 403.523 315.817 400.876C315.324 400.127 314.924 399.341 314.607 398.546L314.57 398.451L314.438 398.677C313.193 400.848 312.324 403.353 312.087 406.291L312.055 406.759C311.886 409.733 312.447 412.522 313.549 415.094C313.922 415.965 314.32 416.739 314.737 417.441L314.826 417.586L314.883 417.432L315.034 417.059C315.675 415.549 316.64 414.203 317.995 413.135C318.606 412.655 319.356 412.158 320.231 411.734C321.621 411.061 322.975 410.759 324.242 411.006C324.784 411.112 325.138 411.637 325.032 412.179C324.934 412.683 324.474 413.024 323.975 412.985L323.859 412.969C323.092 412.82 322.139 413.032 321.103 413.534C320.376 413.886 319.739 414.308 319.232 414.706C318.16 415.551 317.391 416.623 316.875 417.84C316.524 418.666 316.342 419.406 316.245 420.104C316.123 420.98 315.007 421.278 314.465 420.579C313.465 419.292 312.531 417.8 311.71 415.882C310.493 413.039 309.87 409.946 310.058 406.645C310.316 402.117 311.909 398.509 314.115 395.527Z" fill="#F5F5F5"/><path id="Stroke 126" d="M347.424 387.85C358.902 387.85 368.865 394.005 371.67 402.731C371.839 403.257 371.55 403.82 371.024 403.989C370.498 404.158 369.935 403.869 369.766 403.343C367.247 395.509 358.088 389.85 347.424 389.85C334.664 389.85 324.402 397.876 324.402 407.636C324.402 417.398 334.662 425.421 347.424 425.421C353.425 425.421 359.057 423.638 363.306 420.504C363.75 420.176 364.376 420.27 364.704 420.715C365.032 421.159 364.937 421.785 364.493 422.113C359.894 425.506 353.845 427.421 347.424 427.421C333.651 427.421 322.402 418.626 322.402 407.636C322.402 396.648 333.652 387.85 347.424 387.85Z" fill="#F5F5F5"/><path id="Stroke 127" d="M327.895 382.122C332.655 379.709 336.776 379.734 342.22 380.938C347.895 382.188 352.541 385.227 356.255 389.27C356.628 389.677 356.601 390.309 356.195 390.683C355.788 391.057 355.155 391.03 354.782 390.623C351.325 386.859 347.019 384.043 341.789 382.891C336.758 381.778 333.04 381.756 328.799 383.905C326.792 384.923 325.173 386.255 323.841 387.786L323.597 388.072L323.795 388.257C325.207 389.612 326.437 391.265 327.355 393.332L327.547 393.781C327.975 394.826 328.282 395.888 328.481 396.962C328.581 397.505 328.222 398.026 327.679 398.127C327.136 398.227 326.614 397.868 326.514 397.325C326.34 396.384 326.071 395.454 325.696 394.54C324.714 392.145 323.261 390.356 321.585 388.964C321.175 388.622 321.104 388.019 321.426 387.593C323.07 385.411 325.156 383.51 327.895 382.122Z" fill="#F5F5F5"/><path id="Stroke 128" fill-rule="evenodd" clip-rule="evenodd" d="M358.84 402.615C360.219 401.422 361.637 400.549 363.066 400.164C367.593 398.946 373.287 402.403 376.793 408.39C376.937 408.636 376.969 408.933 376.881 409.204C375.756 412.666 374.032 416.069 371.42 419.313C369.403 421.817 367.169 423.826 364.796 425.473C364.134 425.932 363.229 425.46 363.226 424.655C363.216 422.277 362.748 419.821 361.527 417.325C359.856 413.912 357.419 411.651 354.724 410.1C354.291 409.85 354.108 409.319 354.297 408.856C354.887 407.404 355.693 405.997 356.818 404.654C356.916 404.537 357.034 404.401 357.173 404.248L357.478 403.918C357.895 403.479 358.351 403.038 358.84 402.615ZM374.834 409.015L374.687 408.777C371.581 403.88 366.955 401.189 363.586 402.096C362.499 402.388 361.32 403.114 360.149 404.127C359.386 404.788 358.771 405.435 358.352 405.937C357.665 406.758 357.114 407.606 356.667 408.478L356.492 408.832L356.714 408.974C359.217 410.605 361.464 412.85 363.112 416.026L363.323 416.446C364.311 418.466 364.859 420.459 365.091 422.412L365.125 422.742L365.529 422.421C366.906 421.298 368.221 420.02 369.454 418.554L369.862 418.059C372.309 415.02 373.924 411.831 374.979 408.586L374.834 409.015Z" fill="#F5F5F5"/><path id="Fill 129" fill-rule="evenodd" clip-rule="evenodd" d="M367.771 407.291C367.771 408.332 366.927 409.177 365.886 409.177C364.844 409.177 364 408.332 364 407.291C364 406.25 364.844 405.405 365.886 405.405C366.927 405.405 367.771 406.25 367.771 407.291" fill="#F5F5F5"/><path id="Stroke 130" d="M344.246 399.732C344.796 399.689 345.278 400.1 345.321 400.651C345.364 401.201 344.953 401.683 344.402 401.726C341.079 401.988 338.425 404.564 338.216 407.574C337.969 411.121 341.139 414.388 345.063 414.358C345.616 414.354 346.067 414.798 346.071 415.351C346.075 415.903 345.631 416.354 345.078 416.358C340.004 416.397 335.892 412.16 336.22 407.435C336.5 403.42 339.951 400.07 344.246 399.732Z" fill="#F5F5F5"/><path id="Fill 131" fill-rule="evenodd" clip-rule="evenodd" d="M379.977 397.478C379.977 398.899 378.824 400.052 377.402 400.052C375.981 400.052 374.828 398.899 374.828 397.478C374.828 396.056 375.981 394.903 377.402 394.903C378.824 394.903 379.977 396.056 379.977 397.478" fill="#F5F5F5"/><path id="Fill 132" fill-rule="evenodd" clip-rule="evenodd" d="M373.595 388.484C373.595 389.36 372.885 390.07 372.008 390.07C371.132 390.07 370.422 389.36 370.422 388.484C370.422 387.607 371.132 386.897 372.008 386.897C372.885 386.897 373.595 387.607 373.595 388.484" fill="#F5F5F5"/><path id="Fill 133" fill-rule="evenodd" clip-rule="evenodd" d="M754.928 446.753C754.928 483.782 724.909 513.8 687.88 513.8C650.851 513.8 620.833 483.782 620.833 446.753C620.833 409.724 650.851 379.705 687.88 379.705C724.909 379.705 754.928 409.724 754.928 446.753" fill="black"/><path id="Fill 134" fill-rule="evenodd" clip-rule="evenodd" d="M732.99 448.556C730.078 444.655 726.966 440.902 724.21 436.885C721.985 433.645 720.452 430.118 719.705 426.211C718.458 419.695 712.839 414.797 706.248 414.139C702.604 413.775 699.074 414.298 695.541 415.081C690.248 416.255 684.895 416.611 679.506 415.91C676.915 415.575 674.463 414.749 672.016 413.803C664.941 411.066 658.264 411.582 652.384 416.792C649.935 418.962 648.346 421.765 647.016 424.717C646.822 425.15 646.886 425.563 647.184 425.95C647.764 426.706 648.405 427.407 649.115 428.038C649.455 428.34 649.59 428.659 649.584 429.114C649.561 430.964 649.566 432.815 649.58 434.665C649.585 435.418 649.931 435.815 650.517 435.813C651.098 435.81 651.447 435.406 651.483 434.673C651.496 434.431 651.486 434.187 651.486 433.943V430.09C652.581 430.794 653.552 431.428 654.535 432.046C654.803 432.214 654.749 432.458 654.749 432.692C654.753 434.324 654.751 435.955 654.751 437.587C654.751 437.757 654.735 437.93 654.753 438.098C654.812 438.675 655.106 439.066 655.706 439.115C656.238 439.159 656.643 438.701 656.652 438.042C656.67 436.679 656.683 435.314 656.648 433.952C656.633 433.333 656.752 433.166 657.344 433.493C658.133 433.929 658.964 434.288 659.827 434.548C660.272 434.682 660.424 434.912 660.415 435.383C660.386 437.014 660.403 438.646 660.404 440.278C660.404 440.472 660.397 440.668 660.415 440.862C660.467 441.428 660.779 441.776 661.348 441.785C661.887 441.793 662.2 441.452 662.281 440.937C662.329 440.627 662.311 440.306 662.312 439.99C662.315 438.675 662.33 437.36 662.304 436.045C662.296 435.559 662.385 435.405 662.908 435.567C663.765 435.832 664.642 436.05 665.524 436.221C666.019 436.318 666.213 436.495 666.2 437.026C666.165 438.609 666.186 440.192 666.189 441.775C666.189 441.993 666.188 442.215 666.226 442.428C666.32 442.947 666.627 443.269 667.172 443.256C667.718 443.244 668.007 442.91 668.077 442.386C668.105 442.17 668.102 441.95 668.102 441.731C668.104 440.269 668.113 438.808 668.097 437.347C668.094 436.934 668.141 436.706 668.654 436.803C669.731 437.007 670.819 437.141 671.918 437.155C672.334 437.16 672.437 437.355 672.433 437.746C672.415 439.354 672.426 440.96 672.426 442.568C672.426 442.739 672.408 442.911 672.431 443.078C672.51 443.654 672.807 444.059 673.423 444.031C674.027 444.002 674.328 443.608 674.329 443.006C674.334 441.35 674.36 439.694 674.318 438.038C674.302 437.422 674.488 437.254 675.092 437.276C676.867 437.338 678.645 437.226 680.421 437.396C681.645 437.514 682.872 437.711 683.921 438.337C686.312 439.763 688.679 439.576 691.117 438.524C694.094 437.239 696.937 435.693 699.764 434.118C700.397 433.765 700.592 433.221 700.309 432.735C700.03 432.251 699.461 432.125 698.831 432.468C696.266 433.864 693.719 435.297 691.03 436.448C690.338 436.743 689.626 437.001 688.906 437.221C687.77 437.567 686.651 437.523 685.575 436.962C683.247 435.75 680.735 435.359 678.151 435.392C674.004 435.446 669.876 435.298 665.812 434.364C662.791 433.667 659.855 432.706 657.095 431.281C654.207 429.789 651.534 427.992 649.308 425.581C648.977 425.223 648.945 424.959 649.158 424.514C650.751 421.174 652.892 418.289 656.078 416.317C660.084 413.837 664.394 413.571 668.885 414.672C670.275 415.013 671.492 415.738 672.811 416.23C677.03 417.804 681.413 418.218 685.878 418.146C690.311 418.074 694.616 417.183 698.935 416.302C702.611 415.553 706.294 415.531 709.856 416.951C713.219 418.29 715.515 420.73 716.973 424.006C717.451 425.078 717.776 426.194 718.004 427.345C718.879 431.785 720.943 435.666 723.632 439.252C726.245 442.739 728.859 446.225 731.476 449.71C732.111 450.556 732.649 450.767 733.136 450.372C733.619 449.98 733.559 449.318 732.99 448.556" fill="#F5F5F5"/><path id="Stroke 135" fill-rule="evenodd" clip-rule="evenodd" d="M646.902 424.666C648.499 421.122 650.105 418.645 652.301 416.699L652.606 416.434C658.206 411.646 664.719 410.847 672.061 413.687L672.582 413.886C675.318 414.921 677.386 415.51 679.522 415.787C684.736 416.465 690.056 416.17 695.514 414.96L696.11 414.83C700.042 413.994 703.15 413.705 706.26 414.015C712.97 414.685 718.582 419.678 719.828 426.188L719.949 426.788C720.717 430.376 722.173 433.698 724.313 436.815C725.377 438.365 726.325 439.663 727.855 441.664L731.973 447.003L733.09 448.482C733.697 449.295 733.758 450.029 733.215 450.47C732.658 450.922 732.046 450.679 731.376 449.786L723.532 439.328C720.585 435.398 718.701 431.531 717.881 427.37L717.787 426.921C717.557 425.887 717.253 424.942 716.859 424.057C715.364 420.698 713.04 418.354 709.81 417.068C706.526 415.758 702.979 415.606 698.96 416.425L696.614 416.899C691.942 417.823 689.058 418.22 685.88 418.272C680.828 418.353 676.645 417.794 672.767 416.348C672.492 416.245 672.252 416.147 671.915 415.999L670.612 415.417C670.003 415.152 669.589 414.995 669.152 414.872L668.855 414.794C664.094 413.627 659.907 414.094 656.144 416.424C653.201 418.246 651.007 420.929 649.271 424.569C649.078 424.971 649.106 425.179 649.4 425.497C651.453 427.72 653.98 429.531 657.152 431.17C659.731 432.502 662.58 433.491 665.84 434.243C669.429 435.068 673.142 435.333 678.149 435.268C681.002 435.231 683.447 435.714 685.633 436.852C686.643 437.379 687.721 437.452 688.869 437.102C689.593 436.881 690.3 436.624 690.981 436.334C692.518 435.676 693.785 435.052 695.868 433.936L698.771 432.359C699.446 431.992 700.096 432.116 700.417 432.673C700.743 433.232 700.506 433.848 699.825 434.228C696.372 436.152 694.123 437.328 691.802 438.361L691.167 438.639C688.477 439.8 686.129 439.8 683.857 438.445L683.664 438.335C682.819 437.879 681.846 437.66 680.409 437.521C679.954 437.477 679.484 437.451 678.955 437.436L678.288 437.424L676.882 437.422C676.418 437.423 676.08 437.422 675.786 437.418L674.978 437.399C674.532 437.401 674.43 437.536 674.443 438.035C674.457 438.595 674.464 439.094 674.466 439.723L674.454 443.007C674.453 443.693 674.085 444.125 673.429 444.156C672.783 444.186 672.402 443.784 672.307 443.096C672.299 443.038 672.295 442.978 672.295 442.908L672.301 442.569L672.299 439.037L672.308 437.745C672.312 437.386 672.231 437.284 671.916 437.281L671.467 437.268C670.563 437.231 669.629 437.115 668.631 436.926L668.546 436.912C668.312 436.878 668.242 436.928 668.226 437.162L668.222 437.346C668.223 437.465 668.224 437.581 668.225 437.696L668.226 441.995C668.224 442.159 668.217 442.279 668.201 442.403C668.12 443.01 667.764 443.369 667.175 443.382C666.586 443.396 666.212 443.052 666.103 442.451C666.078 442.311 666.068 442.167 666.065 441.979L666.055 439.017C666.055 438.518 666.058 438.07 666.064 437.646L666.075 437.023C666.086 436.577 665.96 436.434 665.5 436.344L664.832 436.205C664.167 436.058 663.511 435.885 662.871 435.687L662.784 435.661C662.513 435.585 662.442 435.618 662.43 435.867L662.429 436.043C662.436 436.383 662.44 436.695 662.442 437.045L662.439 440.452C662.438 440.657 662.428 440.804 662.404 440.957C662.31 441.555 661.929 441.919 661.346 441.911C660.725 441.901 660.35 441.517 660.291 440.874C660.288 440.843 660.285 440.812 660.284 440.78L660.278 440.571L660.275 436.692L660.29 435.381C660.298 434.96 660.176 434.784 659.791 434.668L659.365 434.531C658.658 434.289 657.962 433.978 657.284 433.603L657.195 433.555C656.805 433.35 656.76 433.421 656.773 433.949L656.791 434.952C656.797 435.548 656.796 436.185 656.789 436.961L656.777 438.044C656.767 438.77 656.307 439.291 655.696 439.24C655.06 439.188 654.697 438.778 654.629 438.112C654.623 438.055 654.62 437.996 654.62 437.927L654.626 437.588L654.626 434.367L654.624 432.693L654.628 432.486C654.626 432.302 654.591 432.229 654.468 432.152L651.61 430.319L651.611 433.988L651.614 434.303C651.615 434.385 651.615 434.451 651.614 434.51L651.608 434.68C651.569 435.471 651.174 435.935 650.517 435.939C649.848 435.941 649.46 435.474 649.455 434.666C649.443 433.088 649.44 431.747 649.447 430.494L649.459 429.113C649.465 428.69 649.342 428.407 649.032 428.132C648.331 427.509 647.683 426.806 647.085 426.027C646.756 425.6 646.691 425.138 646.902 424.666ZM654.136 431.646L654.601 431.941C654.842 432.091 654.887 432.254 654.876 432.595L654.876 437.59L654.869 437.929C654.87 437.987 654.872 438.038 654.877 438.086C654.934 438.64 655.208 438.949 655.716 438.991C656.17 439.028 656.519 438.632 656.527 438.041C656.544 436.736 656.55 435.805 656.541 434.955L656.523 433.956C656.505 433.21 656.749 433.022 657.404 433.384L657.806 433.597C658.478 433.94 659.166 434.219 659.863 434.429C660.358 434.578 660.55 434.855 660.54 435.386C660.532 435.826 660.527 436.229 660.525 436.694L660.529 440.673L660.539 440.851C660.587 441.372 660.862 441.653 661.35 441.661C661.801 441.667 662.082 441.4 662.157 440.918C662.184 440.744 662.191 440.573 662.189 440.289L662.193 438.275C662.195 437.621 662.194 437.15 662.189 436.708L662.179 436.048C662.169 435.446 662.364 435.268 662.945 435.448L663.583 435.636C664.227 435.815 664.883 435.97 665.548 436.099C666.123 436.212 666.339 436.455 666.325 437.029C666.309 437.741 666.304 438.481 666.305 439.401L666.315 441.976C666.317 442.151 666.327 442.283 666.349 442.406C666.437 442.892 666.71 443.143 667.169 443.132C667.629 443.121 667.888 442.86 667.953 442.37C667.971 442.229 667.977 442.09 667.977 441.863L667.981 439.648L667.972 437.348C667.968 436.783 668.129 436.577 668.677 436.681C669.828 436.899 670.892 437.017 671.919 437.031C672.386 437.036 672.563 437.262 672.558 437.748C672.553 438.159 672.551 438.578 672.549 439.038L672.551 442.571L672.544 442.908C672.545 442.965 672.548 443.015 672.555 443.062C672.633 443.633 672.915 443.93 673.417 443.907C673.933 443.882 674.203 443.565 674.204 443.006L674.216 440.401C674.217 439.912 674.216 439.508 674.212 439.133L674.193 438.042C674.175 437.359 674.415 437.127 675.096 437.152C675.424 437.163 675.714 437.169 676.101 437.171L678.053 437.172L678.963 437.186C679.497 437.201 679.972 437.228 680.433 437.272C682.015 437.425 683.055 437.675 683.985 438.23L684.229 438.37C686.35 439.539 688.544 439.499 691.067 438.41C693.191 437.493 695.161 436.503 697.935 434.986L699.703 434.009C700.27 433.693 700.45 433.226 700.201 432.798C699.953 432.368 699.454 432.272 698.891 432.578L696.604 433.824C694.35 435.042 693.017 435.716 691.514 436.375L691.079 436.564C690.39 436.857 689.674 437.118 688.942 437.341C687.733 437.71 686.588 437.632 685.517 437.073C683.371 435.956 680.967 435.482 678.153 435.518C673.127 435.583 669.396 435.317 665.784 434.486C662.504 433.73 659.637 432.734 657.038 431.393C653.841 429.741 651.291 427.913 649.216 425.666C648.852 425.273 648.809 424.954 649.045 424.461C650.8 420.781 653.024 418.061 656.012 416.211C659.837 413.844 664.091 413.369 668.915 414.551C669.541 414.705 670.036 414.888 670.92 415.279L672.173 415.838C672.427 415.948 672.629 416.029 672.855 416.113L673.358 416.296C677.063 417.595 681.072 418.099 685.876 418.022C688.783 417.974 691.447 417.636 695.482 416.865L696.567 416.654L697.633 416.44L698.754 416.212L699.395 416.085C703.261 415.366 706.702 415.56 709.902 416.835C713.195 418.146 715.566 420.538 717.087 423.956C717.546 424.985 717.883 426.092 718.127 427.321L718.234 427.835C719.096 431.762 720.928 435.439 723.732 439.178L731.576 449.636C732.173 450.43 732.638 450.615 733.057 450.275C733.475 449.936 733.426 449.35 732.89 448.631C732.558 448.187 732.249 447.777 731.905 447.326L728.349 442.718C726.8 440.707 725.809 439.382 724.858 438.036L724.107 436.956C721.829 433.638 720.319 430.088 719.582 426.235L719.516 425.911C718.17 419.669 712.724 414.912 706.236 414.264C703.001 413.941 699.762 414.274 695.568 415.204L694.821 415.364C689.597 416.445 684.495 416.686 679.49 416.035C677.197 415.738 674.987 415.086 671.971 413.92L671.569 413.768C664.342 411.093 657.96 412.019 652.467 416.886C650.302 418.804 648.714 421.254 647.13 424.769C646.958 425.154 647.009 425.518 647.283 425.874C647.872 426.642 648.509 427.333 649.198 427.945C649.563 428.269 649.716 428.622 649.709 429.116C649.698 430.022 649.693 430.945 649.693 431.949L649.705 434.665C649.71 435.344 649.997 435.69 650.516 435.689C651.027 435.686 651.325 435.336 651.358 434.667C651.361 434.612 651.363 434.561 651.364 434.504L651.361 430.091L651.554 429.985L654.136 431.646Z" fill="#F5F5F5"/><path id="Fill 136" fill-rule="evenodd" clip-rule="evenodd" d="M703.158 455.391C705.046 452.412 705.407 449.173 704.631 445.774C704.45 444.984 704.048 444.632 703.473 444.756C702.908 444.878 702.641 445.362 702.807 446.155C703.346 448.736 703.204 451.232 701.995 453.621C701.324 454.947 700.36 456.031 699.263 457.011C699.003 457.245 698.695 457.364 698.357 457.453C687.096 460.436 675.838 463.429 664.576 466.412C662.066 467.078 659.952 465.982 659.01 463.562C658.563 462.414 658.948 461.591 660.149 461.278C661.257 460.989 662.355 460.677 663.437 460.303C667.767 458.808 671.666 456.57 675.097 453.527C676.722 452.086 678.293 450.592 679.523 448.79C680.607 447.203 681.136 445.413 681.21 443.504C681.266 442.07 681.26 440.631 681.256 439.195C681.254 438.432 680.856 437.981 680.277 438.004C679.732 438.025 679.373 438.473 679.361 439.195C679.339 440.534 679.366 441.874 679.314 443.212C679.231 445.381 678.431 447.272 677.029 448.929C675.287 450.986 673.303 452.769 671.104 454.321C670.991 454.4 670.893 454.532 670.63 454.48C670.63 453.121 670.632 451.745 670.628 450.37C670.627 450.104 670.633 449.832 670.584 449.572C670.485 449.049 670.151 448.75 669.611 448.779C669.068 448.806 668.773 449.143 668.736 449.674C668.707 450.086 668.72 450.502 668.719 450.915C668.718 452.352 668.7 453.789 668.728 455.226C668.738 455.701 668.604 455.997 668.163 456.202C667.413 456.549 666.674 456.925 665.947 457.321C665.491 457.57 665.316 457.523 665.327 456.955C665.352 455.592 665.336 454.228 665.334 452.865C665.333 452.646 665.331 452.425 665.304 452.209C665.234 451.668 664.892 451.364 664.372 451.367C663.849 451.369 663.501 451.686 663.453 452.222C663.41 452.705 663.422 453.195 663.42 453.681C663.416 455.045 663.407 456.41 663.426 457.773C663.431 458.17 663.326 458.402 662.915 458.514C662.304 458.68 661.706 458.89 661.111 459.103C660.595 459.287 660.379 459.206 660.394 458.583C660.434 457.026 660.408 455.466 660.408 453.908C660.408 453.762 660.419 453.615 660.408 453.469C660.357 452.812 659.976 452.373 659.438 452.407C658.782 452.447 658.503 452.857 658.501 453.482C658.498 455.26 658.483 457.037 658.507 458.815C658.514 459.492 658.421 460.022 657.87 460.552C656.904 461.481 656.673 462.678 657.119 463.984C658.32 467.497 661.572 469.244 665.184 468.286C673.953 465.959 682.722 463.64 691.48 461.276C692.287 461.059 692.86 461.221 693.491 461.674C699.433 465.941 702.285 471.768 702.301 479.036C702.306 482.007 702.301 484.978 702.299 487.949C702.299 488.316 702.3 488.677 702.497 489.01C702.781 489.49 703.2 489.696 703.728 489.553C704.217 489.422 704.392 489.026 704.392 488.541C704.392 486.666 704.412 484.791 704.388 482.916C704.357 480.557 704.506 478.195 704.177 475.84C703.298 469.552 700.387 464.464 695.289 460.652C695.212 460.594 695.137 460.536 694.949 460.389C695.89 460.132 696.723 459.808 697.586 459.688C700.28 459.313 701.831 457.483 703.158 455.391" fill="#F5F5F5"/><path id="Stroke 137" fill-rule="evenodd" clip-rule="evenodd" d="M680.272 437.879L680.394 437.881C680.992 437.92 681.379 438.429 681.381 439.195L681.381 441.246C681.376 442.093 681.362 442.813 681.335 443.509C681.258 445.499 680.695 447.296 679.626 448.861C678.551 450.435 677.266 451.771 675.18 453.621C671.77 456.645 667.868 458.906 663.478 460.421C662.49 460.763 661.448 461.069 660.181 461.399C659.064 461.69 658.702 462.427 659.126 463.517C660.048 465.884 662.102 466.939 664.544 466.291L698.325 457.332C698.704 457.233 698.963 457.113 699.18 456.918C700.397 455.831 701.274 454.768 701.883 453.565C703.019 451.321 703.251 448.895 702.685 446.181C702.51 445.345 702.792 444.775 703.447 444.634C704.099 444.493 704.558 444.897 704.753 445.746C705.567 449.313 705.105 452.553 703.264 455.458C701.573 458.124 699.997 459.479 697.603 459.812L697.425 459.84C697.305 459.86 697.182 459.885 697.054 459.915L696.923 459.945C696.843 459.964 696.773 459.981 696.69 460.004L695.22 460.442L695.741 460.84C700.592 464.607 703.432 469.605 704.301 475.823C704.474 477.063 704.523 478.149 704.52 480.043L704.509 481.854L704.521 483.655L704.517 488.541C704.517 489.129 704.274 489.536 703.761 489.674C703.187 489.829 702.707 489.611 702.389 489.074C702.21 488.77 702.174 488.515 702.174 487.949L702.171 478.591C702.041 471.496 699.146 465.889 693.418 461.776C692.779 461.317 692.243 461.201 691.513 461.397L690.467 461.679L665.216 468.407C661.546 469.38 658.225 467.605 657.001 464.025C656.532 462.653 656.796 461.412 657.783 460.462L657.893 460.35C658.272 459.939 658.389 459.515 658.382 458.817C658.377 458.473 658.374 458.123 658.372 457.755L658.369 456.02L658.376 453.482C658.378 452.76 658.734 452.325 659.43 452.283C660.037 452.244 660.476 452.732 660.533 453.46C660.534 453.483 660.536 453.506 660.537 453.53L660.537 453.691L660.534 453.826L660.541 456.76C660.541 457.158 660.538 457.512 660.534 457.848L660.519 458.586C660.507 459.089 660.603 459.152 661.069 458.986L661.567 458.809C662.098 458.624 662.475 458.504 662.882 458.394C663.208 458.305 663.306 458.151 663.301 457.775C663.296 457.42 663.293 457.064 663.291 456.679L663.295 453.15C663.296 452.759 663.304 452.485 663.329 452.211C663.382 451.614 663.781 451.245 664.371 451.242C664.957 451.239 665.35 451.592 665.428 452.194C665.452 452.382 665.458 452.546 665.459 452.865L665.465 455.557C665.465 455.813 665.463 456.054 665.461 456.285L665.451 457.047C665.452 457.406 665.519 457.412 665.887 457.212L666.451 456.91C667.013 456.615 667.564 456.342 668.11 456.089C668.484 455.915 668.613 455.682 668.603 455.229C668.597 454.937 668.593 454.664 668.591 454.373L668.592 450.383C668.592 450.208 668.593 450.061 668.598 449.925L668.611 449.666C668.654 449.059 669.01 448.684 669.604 448.654C670.197 448.623 670.594 448.954 670.707 449.549C670.737 449.711 670.749 449.877 670.752 450.101L670.754 454.366L670.786 454.365C670.824 454.36 670.857 454.346 670.894 454.323L671.584 453.821C673.59 452.345 675.371 450.693 676.934 448.849C678.35 447.175 679.109 445.303 679.189 443.207C679.203 442.838 679.212 442.508 679.217 442.089L679.225 440.733L679.236 439.193C679.249 438.417 679.649 437.903 680.272 437.879ZM681.126 439.053C681.08 438.455 680.756 438.11 680.282 438.129L680.175 438.14C679.759 438.21 679.496 438.594 679.486 439.197L679.469 441.907C679.467 442.164 679.463 442.385 679.458 442.595L679.439 443.217C679.357 445.369 678.576 447.295 677.124 449.01C675.406 451.039 673.425 452.836 671.176 454.424L671.03 454.532C670.905 454.612 670.783 454.638 670.606 454.603L670.505 454.48L670.505 451.61L670.503 450.169L670.498 449.956C670.493 449.817 670.482 449.704 670.461 449.596C670.371 449.121 670.082 448.879 669.617 448.904C669.153 448.927 668.894 449.199 668.861 449.683C668.846 449.887 668.841 450.096 668.842 450.383L668.838 453.817L668.853 455.224C668.864 455.771 668.685 456.097 668.215 456.316C667.493 456.65 666.759 457.021 666.007 457.431C665.45 457.735 665.189 457.6 665.202 456.953C665.206 456.734 665.209 456.513 665.211 456.282L665.215 454.707L665.202 452.495C665.198 452.396 665.191 452.313 665.18 452.225C665.118 451.748 664.831 451.49 664.372 451.492C663.912 451.494 663.62 451.764 663.578 452.233C663.563 452.392 663.555 452.552 663.55 452.738L663.545 453.15L663.54 456.384L663.551 457.772C663.557 458.254 663.393 458.514 662.948 458.635C662.604 458.728 662.281 458.829 661.864 458.971L661.153 459.221C660.528 459.444 660.253 459.266 660.269 458.58C660.284 458.014 660.29 457.454 660.291 456.759L660.283 453.908L660.288 453.608L660.283 453.479C660.237 452.876 659.901 452.503 659.446 452.532C658.889 452.566 658.628 452.885 658.626 453.483L658.62 457.378L658.632 458.814C658.641 459.639 658.479 460.139 657.957 460.642L657.81 460.792C657.016 461.65 656.824 462.733 657.237 463.944C658.419 467.4 661.609 469.105 665.152 468.165L678.136 464.719L691.448 461.156C692.253 460.939 692.866 461.072 693.564 461.573C699.477 465.819 702.41 471.65 702.426 479.036L702.424 487.949C702.424 488.471 702.455 488.694 702.605 488.947C702.867 489.391 703.235 489.557 703.696 489.433C704.087 489.328 704.267 489.026 704.267 488.541L704.274 484.425L704.259 482.488L704.27 480.045C704.273 478.397 704.236 477.365 704.112 476.312L704.053 475.858C703.171 469.546 700.241 464.511 695.214 460.752L694.872 460.488L694.916 460.269C695.018 460.241 695.119 460.212 695.228 460.18L696.627 459.762C696.711 459.739 696.782 459.721 696.864 459.702L697.194 459.629C697.322 459.603 697.446 459.582 697.569 459.565L697.822 459.525C699.988 459.145 701.458 457.837 703.052 455.324C704.857 452.478 705.309 449.306 704.509 445.802C704.342 445.073 703.998 444.771 703.499 444.878C702.993 444.988 702.78 445.418 702.929 446.13L703.003 446.505C703.484 449.122 703.216 451.485 702.107 453.678C701.482 454.912 700.585 455.998 699.347 457.104C699.096 457.33 698.803 457.465 698.389 457.574L664.608 466.533C662.043 467.214 659.861 466.093 658.894 463.608C658.416 462.38 658.854 461.487 660.117 461.157C661.379 460.828 662.415 460.524 663.396 460.185C667.755 458.68 671.629 456.436 675.014 453.434C677.086 451.596 678.359 450.274 679.42 448.72C680.461 447.195 681.01 445.443 681.085 443.499C681.117 442.691 681.13 441.849 681.133 440.811L681.131 439.246L681.126 439.053Z" fill="#F5F5F5"/><path id="Fill 138" fill-rule="evenodd" clip-rule="evenodd" d="M658 418.202C656.883 418.142 654.858 420.139 654.884 421.394C654.897 421.627 655.007 421.975 655.362 422.09C655.793 422.227 656.282 422.198 656.544 421.779C657.056 420.957 657.695 420.306 658.546 419.831C658.917 419.624 658.965 419.201 658.829 418.794C658.698 418.398 658.392 418.223 658 418.202" fill="#F5F5F5"/><path id="Stroke 139" fill-rule="evenodd" clip-rule="evenodd" d="M654.759 421.397C654.732 420.093 656.794 418.012 658.006 418.077L658.142 418.091C658.538 418.149 658.82 418.37 658.947 418.754C659.115 419.255 659.011 419.715 658.607 419.94C657.801 420.39 657.169 421.012 656.65 421.845C656.378 422.28 655.871 422.383 655.323 422.209C654.964 422.092 654.779 421.765 654.759 421.397ZM658.71 418.833C658.603 418.51 658.362 418.347 657.993 418.327C656.928 418.27 654.985 420.231 655.009 421.387C655.024 421.658 655.155 421.892 655.4 421.971C655.849 422.114 656.236 422.035 656.438 421.713C656.978 420.845 657.641 420.193 658.485 419.722C658.768 419.564 658.843 419.232 658.71 418.833Z" fill="white"/><path id="Fill 140" fill-rule="evenodd" clip-rule="evenodd" d="M694.526 426.532C694.526 428.659 692.802 430.383 690.675 430.383C688.548 430.383 686.825 428.659 686.825 426.532C686.825 424.405 688.548 422.681 690.675 422.681C692.802 422.681 694.526 424.405 694.526 426.532" fill="#F5F5F5"/><g id="Group 143"><path id="Fill 141" fill-rule="evenodd" clip-rule="evenodd" d="M486.881 218.188L473.553 218.906C469.454 219.126 465.819 220.995 463.267 223.82C460.731 226.661 459.264 230.475 459.485 234.574C459.926 242.788 466.939 249.069 475.152 248.627L488.48 247.91" fill="black"/><path id="Stroke 142" d="M486.8 216.69C487.627 216.646 488.334 217.28 488.378 218.108C488.42 218.886 487.861 219.558 487.105 219.671L486.961 219.686L473.633 220.404C470.047 220.597 466.748 222.204 464.386 224.819C462.033 227.455 460.789 230.907 460.982 234.494C461.373 241.773 467.505 247.368 474.759 247.143L475.071 247.129L488.399 246.412C489.226 246.368 489.933 247.002 489.977 247.83C490.019 248.608 489.46 249.28 488.704 249.393L488.56 249.408L475.232 250.125C466.189 250.612 458.472 243.693 457.987 234.655C457.75 230.268 459.273 226.042 462.153 222.815C464.957 219.712 468.834 217.768 473.062 217.436L473.472 217.408L486.8 216.69Z" fill="black"/></g><path id="Fill 144" fill-rule="evenodd" clip-rule="evenodd" d="M514.454 244.374L511.668 241.873C510.049 240.419 507.558 240.553 506.105 242.172L503.603 244.958C502.307 246.401 500.49 247.271 498.553 247.376L487.314 247.98C487.19 247.987 487.056 247.994 486.931 247.989C478.894 248.22 472.089 242.002 471.654 233.92C471.433 229.816 472.897 226.018 475.438 223.175C477.992 220.344 481.612 218.48 485.715 218.26L498.867 217.552L519.602 216.436C527.794 215.995 535.281 222.31 535.706 230.502C535.919 234.594 534.456 238.382 531.92 241.218C529.367 244.049 525.747 245.912 521.643 246.133L519.734 246.235C517.798 246.34 515.898 245.671 514.454 244.374" fill="#F5F5F5"/><path id="Stroke 145" fill-rule="evenodd" clip-rule="evenodd" d="M485.634 216.762L519.521 214.938C528.612 214.449 536.739 221.47 537.204 230.424C537.432 234.804 535.912 239.003 533.034 242.222C530.14 245.432 526.116 247.394 521.723 247.631L519.815 247.733C517.481 247.859 515.191 247.052 513.452 245.49L510.666 242.989C509.663 242.088 508.121 242.171 507.221 243.174L504.719 245.96C503.157 247.699 500.968 248.747 498.633 248.874L487.244 249.485C487.197 249.487 487.154 249.489 487.113 249.49L486.938 249.489L486.654 249.494C478.034 249.576 470.806 242.936 470.176 234.32L470.156 234C469.92 229.608 471.439 225.398 474.324 222.17C477.22 218.96 481.244 216.997 485.634 216.762ZM530.802 240.218C533.154 237.587 534.394 234.161 534.208 230.58L534.189 230.277C533.645 223.151 527.039 217.538 519.683 217.934L485.795 219.758C482.206 219.95 478.922 221.552 476.556 224.174C474.198 226.813 472.958 230.249 473.152 233.839C473.542 241.09 479.646 246.698 486.888 246.489L487.055 246.49L498.472 245.878C500.012 245.794 501.457 245.103 502.487 243.956L504.989 241.17C506.995 238.934 510.435 238.749 512.67 240.757L515.456 243.258C516.604 244.288 518.114 244.82 519.654 244.737L521.562 244.635C525.153 244.442 528.437 242.84 530.802 240.218Z" fill="black"/><path id="Fill 146" fill-rule="evenodd" clip-rule="evenodd" d="M485.652 272.453C483.219 273.04 479.069 273.707 474.061 272.831C470.099 272.139 467.039 270.731 465.056 269.62C466.231 271.98 468.193 275.193 471.404 278.266C477.066 283.683 483.358 285.552 486.454 286.243C486.577 284.334 486.617 282.21 486.507 279.908C486.375 277.14 486.051 274.64 485.652 272.453" fill="black"/><path id="Stroke 147" fill-rule="evenodd" clip-rule="evenodd" d="M470.367 279.35C467.461 276.568 465.316 273.508 463.713 270.288C463.055 268.967 464.501 267.59 465.789 268.311C468.3 269.718 471.105 270.792 474.32 271.353C478.294 272.049 481.934 271.807 485.3 270.995C486.138 270.793 486.973 271.336 487.128 272.184C487.578 274.652 487.88 277.197 488.005 279.836C488.111 282.054 488.088 284.22 487.951 286.339C487.892 287.258 487.026 287.908 486.127 287.707C480.616 286.477 475.21 283.983 470.367 279.35ZM469.047 273.07L468.808 272.983L469.156 273.461C470.112 274.75 471.2 275.995 472.441 277.182C476.269 280.844 480.498 283.04 484.843 284.286L485.043 284.341L485.064 283.538C485.079 282.66 485.073 281.773 485.044 280.878L485.009 279.979C484.919 278.103 484.736 276.276 484.47 274.492L484.431 274.248L483.934 274.338C480.958 274.846 477.792 274.932 474.403 274.408L473.803 274.309C472.121 274.015 470.54 273.595 469.047 273.07Z" fill="black"/></g><g id="Element" transform="translate(156 393) scale(1 1)"><g id="Element/Succulent"><g id="Group"><path id="Stroke 64" fill-rule="evenodd" clip-rule="evenodd" d="M56.8359 328.348H187.528C188.356 328.348 189.028 329.019 189.028 329.848V402.814C189.028 403.642 188.356 404.314 187.528 404.314H56.8359C56.0074 404.314 55.3359 403.642 55.3359 402.814V329.848C55.3359 329.019 56.0074 328.348 56.8359 328.348ZM186.027 401.313V331.347H58.335V401.313H186.027Z" fill="black"/><path id="Stroke 65" d="M174.487 250.607L174.384 250.715C173.996 251.123 173.602 251.552 173.2 252.002L172.794 252.46C170.82 254.709 163.472 264.032 162.937 264.687C158.699 269.885 150.651 283.153 144.731 293.826C143.873 295.371 141.516 294.421 141.969 292.713L142.151 292.017C143.872 285.33 147.027 270.427 147.631 265.333L147.801 263.749C148.984 252.518 149.397 245.756 148.985 240.288L148.959 239.958L148.608 240.46C142.079 249.873 136.765 260.552 133.27 272.887L133.005 273.839C130.596 282.63 129.422 291.219 129.19 299.638C129.142 301.417 126.586 301.645 126.223 299.903C124.198 290.19 121.391 280.337 117.672 270.402C113.889 260.309 109.456 250.904 104.499 242.105L104.306 241.767L104.302 241.882C104.033 250.016 104.148 258.306 104.7 266.766L104.825 268.581C105.666 280.232 107.283 291.44 109.551 302.256C109.919 304.012 107.454 304.816 106.716 303.181C102.974 294.896 98.272 286.746 92.3225 278.802C86.7563 271.372 80.7169 264.939 74.327 259.305L73.638 258.702L73.8362 259.555C75.6545 267.271 78.0224 275.047 81.0366 282.881L81.545 284.187C85.203 293.491 89.4744 302.115 94.2193 310.119C95.1713 311.725 92.9189 313.279 91.7557 311.819C86.7146 305.489 80.6361 299.664 73.0734 294.603C67.7317 291.02 62.3069 288.27 56.8196 286.161L56.643 286.093L56.9354 286.789C60.8147 295.906 65.9115 304.861 72.6075 313.521L73.3059 314.415C77.4624 319.687 81.9134 324.443 86.5991 328.743C87.2095 329.303 87.2503 330.252 86.6902 330.862C86.1301 331.473 85.1812 331.513 84.5708 330.953C79.7697 326.548 75.2089 321.674 70.9498 316.272C62.7721 305.893 56.8664 295.094 52.6014 284.091C52.1415 282.905 53.2746 281.721 54.48 282.128C61.3325 284.442 68.1001 287.655 74.7432 292.11C78.5267 294.642 81.9517 297.359 85.0702 300.229L85.706 300.821L85.0898 299.588C83.0264 295.421 81.0875 291.104 79.2887 286.632L78.7532 285.285C74.7441 275.1 71.8166 265.012 69.7656 255.024C69.4821 253.643 71.0874 252.669 72.1813 253.558C80.2541 260.122 87.842 267.818 94.7236 277.004C98.3761 281.881 101.569 286.833 104.366 291.846L104.633 292.329L104.453 291.232C103.362 284.495 102.524 277.609 101.966 270.562L101.833 268.797C101.034 257.76 100.97 247.009 101.532 236.514C101.611 235.036 103.556 234.554 104.317 235.823C110.486 246.115 115.944 257.245 120.482 269.349C122.998 276.072 125.103 282.756 126.835 289.387L126.898 289.635L126.961 289.09C127.555 284.165 128.491 279.18 129.82 274.13L130.111 273.047C134.144 258.32 140.685 245.877 148.78 235.099C149.571 234.045 151.24 234.452 151.458 235.752L151.561 236.388C152.558 242.874 152.256 250.079 150.792 263.995L150.644 265.386C150.324 268.356 149.039 275.025 147.675 281.403L147.25 283.364L148.216 281.728C152.627 274.292 157.148 267.193 160.172 263.342L165.9 256.151C167.788 253.794 169.662 251.481 170.539 250.481C172.264 248.516 173.852 246.914 175.458 245.556C176.485 244.688 178.046 245.504 177.92 246.842C177.029 256.299 175.115 265.927 171.912 275.698C167.721 288.438 161.857 299.806 154.765 310.017C152.721 312.957 150.619 315.734 148.467 318.372C147.944 319.014 146.999 319.11 146.357 318.586C145.715 318.063 145.619 317.118 146.143 316.476C148.247 313.895 150.303 311.18 152.301 308.305C159.235 298.323 164.967 287.21 169.062 274.762C171.691 266.742 173.432 258.819 174.438 251.01L174.487 250.607Z" fill="black"/><path id="Stroke 66" d="M199.639 285.991C200.976 285.689 201.985 287.191 201.2 288.314C195.943 295.83 189.951 303.114 183.105 310.079C175.199 318.122 166.8 325.079 158.05 331.085C157.367 331.554 156.434 331.38 155.965 330.697C155.496 330.014 155.67 329.081 156.353 328.612C164.948 322.711 173.199 315.877 180.966 307.976C186.325 302.523 191.152 296.872 195.504 291.065L196.388 289.874L196.195 289.925C190.03 291.555 183.846 293.732 177.651 296.57L176.618 297.049C171.287 299.556 160.889 305.933 154.381 310.398C153.698 310.867 152.764 310.693 152.296 310.01C151.827 309.327 152.001 308.393 152.684 307.925L153.611 307.293C160.26 302.797 170.08 296.808 175.342 294.334C183.466 290.516 191.571 287.818 199.639 285.991Z" fill="black"/><path id="Fill 67" fill-rule="evenodd" clip-rule="evenodd" d="M76.6526 354.858C76.6526 357.89 74.1946 360.347 71.1636 360.347C68.1316 360.347 65.6736 357.89 65.6736 354.858C65.6736 351.827 68.1316 349.369 71.1636 349.369C74.1946 349.369 76.6526 351.827 76.6526 354.858" fill="black"/><path id="Fill 68" fill-rule="evenodd" clip-rule="evenodd" d="M102.161 354.858C102.161 357.89 99.7034 360.347 96.6724 360.347C93.6404 360.347 91.1824 357.89 91.1824 354.858C91.1824 351.827 93.6404 349.369 96.6724 349.369C99.7034 349.369 102.161 351.827 102.161 354.858" fill="black"/><path id="Fill 69" fill-rule="evenodd" clip-rule="evenodd" d="M127.67 354.858C127.67 357.89 125.213 360.347 122.181 360.347C119.149 360.347 116.691 357.89 116.691 354.858C116.691 351.827 119.149 349.369 122.181 349.369C125.213 349.369 127.67 351.827 127.67 354.858" fill="black"/><path id="Fill 70" fill-rule="evenodd" clip-rule="evenodd" d="M153.18 354.858C153.18 357.89 150.722 360.347 147.691 360.347C144.659 360.347 142.201 357.89 142.201 354.858C142.201 351.827 144.659 349.369 147.691 349.369C150.722 349.369 153.18 351.827 153.18 354.858" fill="black"/><path id="Fill 71" fill-rule="evenodd" clip-rule="evenodd" d="M178.689 354.858C178.689 357.89 176.231 360.347 173.2 360.347C170.168 360.347 167.71 357.89 167.71 354.858C167.71 351.827 170.168 349.369 173.2 349.369C176.231 349.369 178.689 351.827 178.689 354.858" fill="black"/><path id="Stroke 72" d="M187.527 378.368C188.356 378.368 189.027 379.04 189.027 379.868C189.027 380.648 188.432 381.289 187.672 381.362L187.527 381.368H56.8353C56.0068 381.368 55.3353 380.697 55.3353 379.868C55.3353 379.089 55.9302 378.448 56.6908 378.375L56.8353 378.368H187.527Z" fill="black"/><path id="Fill 73" fill-rule="evenodd" clip-rule="evenodd" d="M56.8359 402.814H187.528V379.869H56.8359V402.814Z" fill="black"/></g></g></g></g></svg>