<svg width="842" height="883" viewBox="0 0 842 883" fill="none" xmlns="http://www.w3.org/2000/svg">
<g clip-path="url(#clip0_326_139)">
<path d="M260 180H581C625.183 180 661 215.817 661 260V674.145C661 701.312 625.143 711.111 611.326 687.719C590.929 653.187 553.808 632 513.702 632H260C215.817 632 180 596.183 180 552V260C180 215.817 215.817 180 260 180Z" stroke="#D4FF00" stroke-width="40"/>
<path d="M361 364C361 364.552 361.448 365 362 365H401.907C402.588 365 403.222 364.653 403.59 364.08L457.205 280.46C457.389 280.173 457.706 280 458.047 280H547.692C549.304 280 550.254 281.808 549.339 283.135L465.423 404.886C465.172 405.25 465.191 405.736 465.468 406.081L564.375 528.745C565.43 530.053 564.499 532 562.818 532H466.024C465.381 532 464.777 531.691 464.401 531.17L403.599 446.83C403.223 446.309 402.619 446 401.976 446H362C361.448 446 361 446.448 361 447V530C361 531.105 360.105 532 359 532H284C281.791 532 280 530.209 280 528V447C280 445.895 280.895 445 282 445H360C360.552 445 361 444.552 361 444V367C361 366.448 360.552 366 360 366H282C280.895 366 280 365.105 280 364V284C280 281.791 281.791 280 284 280H359C360.105 280 361 280.895 361 282V364Z" fill="#D4FF00"/>
<path d="M361 364C361 364.552 361.448 365 362 365H401.907C402.588 365 403.222 364.653 403.59 364.08L457.205 280.46C457.389 280.173 457.706 280 458.047 280H547.692C549.304 280 550.254 281.808 549.339 283.135L465.423 404.886C465.172 405.25 465.191 405.736 465.468 406.081L564.375 528.745C565.43 530.053 564.499 532 562.818 532H466.024C465.381 532 464.777 531.691 464.401 531.17L403.599 446.83C403.223 446.309 402.619 446 401.976 446H362C361.448 446 361 446.448 361 447V530C361 531.105 360.105 532 359 532H284C281.791 532 280 530.209 280 528V447C280 445.895 280.895 445 282 445H360C360.552 445 361 444.552 361 444V367C361 366.448 360.552 366 360 366H282C280.895 366 280 365.105 280 364V284C280 281.791 281.791 280 284 280H359C360.105 280 361 280.895 361 282V364Z" fill="#D4FF00"/>
</g>
<defs>
<clipPath id="clip0_326_139">
<rect width="521" height="562" fill="white" transform="translate(160 160)"/>
</clipPath>
</defs>
</svg>
