<svg width="527" height="562" viewBox="0 0 527 562" fill="none" xmlns="http://www.w3.org/2000/svg">
<g clip-path="url(#clip0_64_239)">
<path d="M100 20H427C471.183 20 507 55.8172 507 100V512.488C507 541.919 468.436 552.931 452.896 527.938C431.267 493.152 393.209 472 352.247 472H100C55.8172 472 20 436.183 20 392V100C20 55.8172 55.8172 20 100 20Z" stroke="#D4FF00" stroke-width="40"/>
<path d="M201 204C201 204.552 201.448 205 202 205H241.907C242.588 205 243.222 204.653 243.59 204.08L297.205 120.46C297.389 120.173 297.706 120 298.047 120H387.692C389.304 120 390.254 121.808 389.339 123.135L305.423 244.886C305.172 245.25 305.191 245.736 305.468 246.081L404.375 368.745C405.43 370.053 404.499 372 402.818 372H306.024C305.381 372 304.777 371.691 304.401 371.17L243.599 286.83C243.223 286.309 242.619 286 241.976 286H202C201.448 286 201 286.448 201 287V370C201 371.105 200.105 372 199 372H124C121.791 372 120 370.209 120 368V287C120 285.895 120.895 285 122 285H200C200.552 285 201 284.552 201 284V207C201 206.448 200.552 206 200 206H122C120.895 206 120 205.105 120 204V124C120 121.791 121.791 120 124 120H199C200.105 120 201 120.895 201 122V204Z" fill="#D4FF00"/>
<path d="M201 204C201 204.552 201.448 205 202 205H241.907C242.588 205 243.222 204.653 243.59 204.08L297.205 120.46C297.389 120.173 297.706 120 298.047 120H387.692C389.304 120 390.254 121.808 389.339 123.135L305.423 244.886C305.172 245.25 305.191 245.736 305.468 246.081L404.375 368.745C405.43 370.053 404.499 372 402.818 372H306.024C305.381 372 304.777 371.691 304.401 371.17L243.599 286.83C243.223 286.309 242.619 286 241.976 286H202C201.448 286 201 286.448 201 287V370C201 371.105 200.105 372 199 372H124C121.791 372 120 370.209 120 368V287C120 285.895 120.895 285 122 285H200C200.552 285 201 284.552 201 284V207C201 206.448 200.552 206 200 206H122C120.895 206 120 205.105 120 204V124C120 121.791 121.791 120 124 120H199C200.105 120 201 120.895 201 122V204Z" fill="#D4FF00"/>
</g>
<defs>
<clipPath id="clip0_64_239">
<rect width="527" height="562" fill="white"/>
</clipPath>
</defs>
</svg>
