<svg width="2095" height="562" viewBox="0 0 2095 562" fill="none" xmlns="http://www.w3.org/2000/svg">
<g clip-path="url(#clip0_72_475)">
<g clip-path="url(#clip1_72_475)">
<path d="M100 20H427C471.183 20 507 55.8172 507 100V512.488C507 541.919 468.436 552.931 452.896 527.938C431.267 493.152 393.209 472 352.247 472H100C55.8172 472 20 436.183 20 392V100C20 55.8172 55.8172 20 100 20Z" stroke="#D4FF00" stroke-width="40"/>
<path d="M201 204C201 204.552 201.448 205 202 205H241.907C242.588 205 243.222 204.653 243.59 204.08L297.205 120.46C297.389 120.173 297.706 120 298.047 120H387.692C389.304 120 390.254 121.808 389.339 123.135L305.423 244.886C305.172 245.25 305.191 245.736 305.468 246.081L404.375 368.745C405.43 370.053 404.499 372 402.818 372H306.024C305.381 372 304.777 371.691 304.401 371.17L243.599 286.83C243.223 286.309 242.619 286 241.976 286H202C201.448 286 201 286.448 201 287V370C201 371.105 200.105 372 199 372H124C121.791 372 120 370.209 120 368V287C120 285.895 120.895 285 122 285H200C200.552 285 201 284.552 201 284V207C201 206.448 200.552 206 200 206H122C120.895 206 120 205.105 120 204V124C120 121.791 121.791 120 124 120H199C200.105 120 201 120.895 201 122V204Z" fill="#D4FF00"/>
<path d="M201 204C201 204.552 201.448 205 202 205H241.907C242.588 205 243.222 204.653 243.59 204.08L297.205 120.46C297.389 120.173 297.706 120 298.047 120H387.692C389.304 120 390.254 121.808 389.339 123.135L305.423 244.886C305.172 245.25 305.191 245.736 305.468 246.081L404.375 368.745C405.43 370.053 404.499 372 402.818 372H306.024C305.381 372 304.777 371.691 304.401 371.17L243.599 286.83C243.223 286.309 242.619 286 241.976 286H202C201.448 286 201 286.448 201 287V370C201 371.105 200.105 372 199 372H124C121.791 372 120 370.209 120 368V287C120 285.895 120.895 285 122 285H200C200.552 285 201 284.552 201 284V207C201 206.448 200.552 206 200 206H122C120.895 206 120 205.105 120 204V124C120 121.791 121.791 120 124 120H199C200.105 120 201 120.895 201 122V204Z" fill="#D4FF00"/>
</g>
<g clip-path="url(#clip2_72_475)">
<path d="M659.517 228.665H695.382L740.854 155.736H802.336L737.011 256.173L810.022 371.323H749.179L695.382 283.681H659.517V371.323H607V92.4033H659.517V228.665Z" fill="white"/>
<path fill-rule="evenodd" clip-rule="evenodd" d="M1459.11 155.096H1534.6C1586.42 155.096 1631.84 202.931 1631.84 263.21C1631.84 322.275 1589.06 366.924 1534.6 371.323H1405.38V92.4033H1459.11V155.096ZM1459.11 208.833V318.602C1473.86 319.094 1497.37 318.725 1533.96 318.725C1553.79 317.445 1578.74 295.196 1578.74 263.209C1578.74 228.443 1552.51 208.833 1533.96 208.833C1509.01 208.833 1484.06 208.833 1459.11 208.833Z" fill="white"/>
<path fill-rule="evenodd" clip-rule="evenodd" d="M919.825 149.979C983.068 149.979 1034.34 201.247 1034.34 264.489C1034.34 327.732 983.068 379 919.825 379C856.583 379 805.315 327.732 805.315 264.489C805.315 201.247 856.583 149.979 919.825 149.979ZM919.825 203.715C885.554 203.715 859.052 230.218 859.052 264.489C859.052 298.76 885.554 325.263 919.825 325.263C954.097 325.263 980.599 298.76 980.599 264.489C980.599 230.218 954.097 203.715 919.825 203.715Z" fill="white"/>
<path fill-rule="evenodd" clip-rule="evenodd" d="M1764.26 149.979C1827.5 149.979 1878.77 201.247 1878.77 264.489C1878.77 327.732 1827.5 379 1764.26 379C1701.02 379 1649.75 327.732 1649.75 264.489C1649.75 201.247 1701.02 149.979 1764.26 149.979ZM1764.26 203.715C1729.99 203.715 1703.49 230.218 1703.49 264.489C1703.49 298.76 1729.99 325.263 1764.26 325.263C1798.53 325.263 1825.04 298.76 1825.04 264.489C1825.04 230.218 1798.53 203.715 1764.26 203.715Z" fill="white"/>
<path fill-rule="evenodd" clip-rule="evenodd" d="M2053.57 371.323H2026.22L2014.5 336.444H1961.32L1949.63 371.323H1922.27L1972.07 229.876H2003.7L2053.57 371.323ZM1968.22 315.863H2007.58L1988.44 258.884H1987.33L1968.22 315.863Z" fill="#D4FF00"/>
<path d="M2095 371.323H2069.38V229.876H2095V371.323Z" fill="#D4FF00"/>
<path d="M1377.23 371.324H1323.49V236.981C1323.49 218.609 1305.45 203.716 1283.19 203.716C1260.93 203.716 1242.89 218.609 1242.89 236.981V371.324H1189.15V236.981C1189.15 218.609 1171.11 203.716 1148.85 203.716C1126.59 203.716 1108.54 218.609 1108.54 236.981V371.324H1054.81V236.981C1054.76 235.92 1054.81 234.854 1054.81 233.783C1054.81 188.912 1096.91 152.538 1148.85 152.538C1175.16 152.538 1198.95 161.875 1216.02 176.923C1233.09 161.875 1256.88 152.538 1283.19 152.538C1335.13 152.538 1377.23 188.912 1377.23 233.783C1377.23 234.854 1377.28 235.92 1377.23 236.981V371.324Z" fill="white"/>
</g>
</g>
<defs>
<clipPath id="clip0_72_475">
<rect width="2095" height="562" fill="white"/>
</clipPath>
<clipPath id="clip1_72_475">
<rect width="527" height="562" fill="white"/>
</clipPath>
<clipPath id="clip2_72_475">
<rect width="1488" height="286.597" fill="white" transform="translate(607 92.4033)"/>
</clipPath>
</defs>
</svg>
