<svg width="2095" height="562" viewBox="0 0 2095 562" fill="none" xmlns="http://www.w3.org/2000/svg">
<g clip-path="url(#clip0_72_448)">
<g clip-path="url(#clip1_72_448)">
<path d="M100 20H427C471.183 20 507 55.8172 507 100V512.488C507 541.919 468.436 552.931 452.896 527.938C431.267 493.152 393.209 472 352.247 472H100C55.8172 472 20 436.183 20 392V100C20 55.8172 55.8172 20 100 20Z" stroke="#D4FF00" stroke-width="40"/>
<path d="M201 204C201 204.552 201.448 205 202 205H241.907C242.588 205 243.222 204.653 243.59 204.08L297.205 120.46C297.389 120.173 297.706 120 298.047 120H387.692C389.304 120 390.254 121.808 389.339 123.135L305.423 244.886C305.172 245.25 305.191 245.736 305.468 246.081L404.375 368.745C405.43 370.053 404.499 372 402.818 372H306.024C305.381 372 304.777 371.691 304.401 371.17L243.599 286.83C243.223 286.309 242.619 286 241.976 286H202C201.448 286 201 286.448 201 287V370C201 371.105 200.105 372 199 372H124C121.791 372 120 370.209 120 368V287C120 285.895 120.895 285 122 285H200C200.552 285 201 284.552 201 284V207C201 206.448 200.552 206 200 206H122C120.895 206 120 205.105 120 204V124C120 121.791 121.791 120 124 120H199C200.105 120 201 120.895 201 122V204Z" fill="#D4FF00"/>
<path d="M201 204C201 204.552 201.448 205 202 205H241.907C242.588 205 243.222 204.653 243.59 204.08L297.205 120.46C297.389 120.173 297.706 120 298.047 120H387.692C389.304 120 390.254 121.808 389.339 123.135L305.423 244.886C305.172 245.25 305.191 245.736 305.468 246.081L404.375 368.745C405.43 370.053 404.499 372 402.818 372H306.024C305.381 372 304.777 371.691 304.401 371.17L243.599 286.83C243.223 286.309 242.619 286 241.976 286H202C201.448 286 201 286.448 201 287V370C201 371.105 200.105 372 199 372H124C121.791 372 120 370.209 120 368V287C120 285.895 120.895 285 122 285H200C200.552 285 201 284.552 201 284V207C201 206.448 200.552 206 200 206H122C120.895 206 120 205.105 120 204V124C120 121.791 121.791 120 124 120H199C200.105 120 201 120.895 201 122V204Z" fill="#D4FF00"/>
</g>
<path fill-rule="evenodd" clip-rule="evenodd" d="M683.56 458.916C686.567 458.916 689.481 459.415 692.303 460.409C695.125 461.404 697.659 462.964 699.903 465.092C702.146 467.22 703.915 469.986 705.21 473.386C706.506 476.763 707.154 480.868 707.154 485.702V489.381H669.273C669.353 492.629 669.976 495.416 671.139 497.742C672.411 500.24 674.18 502.149 676.447 503.467C678.713 504.762 681.362 505.411 684.392 505.411C686.358 505.411 688.151 505.133 689.77 504.578C691.388 504 692.788 503.144 693.968 502.011C695.148 500.878 696.051 499.478 696.675 497.813L706.494 499.581C705.707 502.473 704.297 505.006 702.262 507.181C700.249 509.332 697.715 511.009 694.662 512.212C691.632 513.391 688.174 513.982 684.288 513.982C679.037 513.982 674.515 512.86 670.721 510.616C666.951 508.349 664.037 505.168 661.979 501.074C659.943 496.957 658.925 492.133 658.925 486.604C658.925 481.145 659.943 476.333 661.979 472.17C664.037 468.007 666.905 464.757 670.583 462.42C674.284 460.084 678.61 458.916 683.56 458.916ZM683.629 467.487C680.715 467.487 678.17 468.204 675.996 469.639C673.844 471.05 672.178 472.9 670.998 475.19C669.984 477.178 669.415 479.318 669.291 481.609H696.988C696.988 478.879 696.433 476.462 695.322 474.357C694.212 472.229 692.65 470.552 690.638 469.326C688.648 468.1 686.312 467.487 683.629 467.487Z" fill="white"/>
<path d="M738.443 458.916C744.202 458.916 748.736 460.165 752.044 462.664C755.352 465.139 757.538 468.459 758.602 472.623L749.199 474.288C748.805 473.085 748.18 471.94 747.324 470.853C746.491 469.766 745.358 468.875 743.924 468.181C742.49 467.487 740.697 467.139 738.545 467.139C735.608 467.139 733.157 467.798 731.191 469.117C729.225 470.412 728.24 472.091 728.24 474.149C728.241 475.93 728.901 477.364 730.22 478.451C731.538 479.538 733.666 480.429 736.603 481.122L745.069 483.066C749.973 484.2 753.627 485.946 756.033 488.305C758.439 490.664 759.642 493.73 759.642 497.501C759.642 500.692 758.716 503.538 756.866 506.036C755.038 508.511 752.483 510.453 749.199 511.864C745.937 513.275 742.155 513.982 737.853 513.982C731.885 513.982 727.015 512.709 723.245 510.165C719.474 507.597 717.161 503.954 716.306 499.235L726.332 497.708C726.957 500.322 728.241 502.299 730.184 503.641C732.127 504.959 734.66 505.619 737.782 505.619C741.182 505.619 743.902 504.914 745.938 503.503C747.973 502.069 748.991 500.322 748.991 498.264C748.991 496.598 748.365 495.199 747.116 494.066C745.89 492.932 744.005 492.075 741.46 491.497L732.439 489.519C727.466 488.386 723.788 486.581 721.406 484.107C719.046 481.631 717.866 478.497 717.866 474.703C717.866 471.557 718.746 468.804 720.504 466.445C722.262 464.086 724.69 462.248 727.789 460.929C730.889 459.588 734.441 458.916 738.443 458.916Z" fill="white"/>
<path d="M790.827 458.916C796.587 458.916 801.12 460.166 804.427 462.664C807.735 465.139 809.921 468.459 810.985 472.623L801.583 474.288C801.19 473.085 800.565 471.94 799.709 470.853C798.876 469.766 797.743 468.875 796.309 468.181C794.875 467.487 793.082 467.139 790.93 467.139C787.993 467.139 785.542 467.799 783.576 469.117C781.609 470.412 780.625 472.091 780.625 474.149C780.625 475.93 781.285 477.364 782.603 478.451C783.921 479.538 786.051 480.428 788.988 481.122L797.454 483.066C802.358 484.2 806.012 485.946 808.418 488.305C810.824 490.664 812.027 493.73 812.027 497.501C812.027 500.692 811.101 503.538 809.251 506.036C807.423 508.511 804.868 510.453 801.583 511.864C798.322 513.275 794.539 513.982 790.236 513.982C784.269 513.982 779.4 512.709 775.63 510.165C771.859 507.597 769.546 503.954 768.69 499.235L778.717 497.708C779.341 500.322 780.626 502.299 782.569 503.641C784.512 504.959 787.045 505.619 790.167 505.619C793.567 505.619 796.285 504.913 798.321 503.503C800.356 502.069 801.374 500.322 801.374 498.264C801.374 496.599 800.75 495.199 799.501 494.066C798.275 492.932 796.39 492.075 793.845 491.497L784.824 489.519C779.851 488.386 776.173 486.581 773.791 484.107C771.431 481.631 770.251 478.497 770.251 474.703C770.251 471.557 771.131 468.804 772.889 466.445C774.647 464.086 777.075 462.248 780.174 460.929C783.274 459.588 786.826 458.916 790.827 458.916Z" fill="white"/>
<path d="M871.637 458.916C875.685 458.916 879.293 459.669 882.462 461.172C885.631 462.653 888.188 464.734 890.131 467.418C892.097 470.101 893.266 473.236 893.636 476.821H883.538C882.983 474.323 881.711 472.171 879.722 470.366C877.755 468.562 875.119 467.661 871.811 467.661C868.92 467.661 866.386 468.424 864.211 469.951C862.061 471.454 860.383 473.605 859.18 476.404C857.978 479.18 857.377 482.465 857.377 486.258C857.377 490.144 857.967 493.498 859.147 496.32C860.326 499.142 861.991 501.328 864.142 502.878C866.317 504.428 868.873 505.203 871.811 505.203C873.777 505.203 875.559 504.844 877.155 504.127C878.774 503.387 880.126 502.334 881.213 500.969C882.323 499.605 883.099 497.963 883.538 496.043H893.636C893.266 499.49 892.143 502.566 890.27 505.272C888.396 507.979 885.885 510.106 882.739 511.656C879.617 513.206 875.951 513.982 871.742 513.982C866.584 513.982 862.141 512.814 858.417 510.477C854.716 508.118 851.871 504.867 849.882 500.726C847.893 496.586 846.898 491.844 846.898 486.501C846.898 481.089 847.916 476.311 849.951 472.17C851.987 468.007 854.855 464.757 858.556 462.42C862.257 460.084 866.618 458.916 871.637 458.916Z" fill="white"/>
<path d="M975.738 458.916C979.786 458.916 983.394 459.669 986.563 461.172C989.732 462.653 992.289 464.734 994.232 467.418C996.198 470.101 997.366 473.236 997.736 476.821H987.639C987.084 474.323 985.811 472.171 983.822 470.366C981.856 468.562 979.219 467.661 975.912 467.661C973.02 467.661 970.486 468.424 968.312 469.951C966.161 471.454 964.484 473.605 963.281 476.404C962.078 479.18 961.477 482.465 961.477 486.258C961.477 490.144 962.068 493.498 963.247 496.32C964.427 499.142 966.092 501.328 968.243 502.878C970.417 504.428 972.974 505.203 975.912 505.203C977.878 505.203 979.659 504.845 981.255 504.127C982.874 503.387 984.228 502.334 985.315 500.969C986.425 499.605 987.199 497.963 987.639 496.043H997.736C997.366 499.49 996.244 502.566 994.37 505.272C992.497 507.979 989.987 510.106 986.842 511.656C983.719 513.206 980.052 513.982 975.843 513.982C970.684 513.982 966.242 512.814 962.518 510.477C958.817 508.118 955.972 504.867 953.982 500.726C951.993 496.586 950.998 491.844 950.998 486.501C950.998 481.089 952.016 476.311 954.052 472.17C956.087 468.006 958.957 464.757 962.658 462.42C966.359 460.085 970.719 458.916 975.738 458.916Z" fill="white"/>
<path d="M1083 458.916C1088.76 458.916 1093.29 460.165 1096.6 462.664C1099.91 465.139 1102.09 468.459 1103.16 472.623L1093.75 474.288C1093.36 473.085 1092.74 471.94 1091.88 470.853C1091.05 469.766 1089.91 468.875 1088.48 468.181C1087.04 467.487 1085.25 467.139 1083.1 467.139C1080.16 467.139 1077.71 467.798 1075.74 469.117C1073.78 470.412 1072.8 472.091 1072.8 474.149C1072.8 475.93 1073.46 477.364 1074.77 478.451C1076.09 479.538 1078.22 480.428 1081.16 481.122L1089.62 483.066C1094.53 484.2 1098.18 485.945 1100.59 488.305C1102.99 490.664 1104.2 493.73 1104.2 497.501C1104.2 500.692 1103.27 503.538 1101.42 506.036C1099.59 508.511 1097.04 510.453 1093.75 511.864C1090.49 513.275 1086.71 513.982 1082.41 513.982C1076.44 513.982 1071.57 512.709 1067.8 510.165C1064.03 507.597 1061.72 503.954 1060.86 499.235L1070.89 497.708C1071.51 500.322 1072.8 502.299 1074.74 503.641C1076.68 504.96 1079.22 505.619 1082.34 505.619C1085.74 505.619 1088.46 504.914 1090.49 503.503C1092.53 502.069 1093.54 500.322 1093.54 498.264C1093.54 496.598 1092.92 495.199 1091.67 494.066C1090.44 492.932 1088.56 492.075 1086.02 491.497L1076.99 489.519C1072.02 488.386 1068.34 486.582 1065.96 484.107C1063.6 481.631 1062.42 478.497 1062.42 474.703C1062.42 471.557 1063.3 468.804 1065.06 466.445C1066.82 464.086 1069.25 462.248 1072.35 460.929C1075.44 459.588 1078.99 458.916 1083 458.916Z" fill="white"/>
<path d="M1122.44 499.721C1124.34 499.721 1125.97 500.403 1127.33 501.768C1128.7 503.11 1129.38 504.728 1129.38 506.625C1129.38 507.897 1129.05 509.065 1128.41 510.129C1127.78 511.17 1126.95 512.003 1125.91 512.627C1124.87 513.252 1123.71 513.565 1122.44 513.565C1120.54 513.564 1118.91 512.895 1117.55 511.553C1116.18 510.188 1115.5 508.545 1115.5 506.625C1115.5 504.729 1116.18 503.11 1117.55 501.768C1118.91 500.404 1120.54 499.722 1122.44 499.721Z" fill="white"/>
<path d="M617.721 503.677H649.919V512.906H607V441.846H617.721V503.677Z" fill="white"/>
<path d="M915.105 512.906H904.729V441.846H915.105V512.906Z" fill="white"/>
<path d="M939.436 512.906H929.062V459.61H939.436V512.906Z" fill="white"/>
<path d="M1019.21 482.164H1020.11L1041.34 459.61H1053.76L1032.19 482.484L1055.22 512.906H1042.49L1024.36 488.843L1019.21 493.996V512.906H1008.83V441.846H1019.21V482.164Z" fill="white"/>
<path d="M934.301 439C936.105 439 937.644 439.613 938.916 440.839C940.211 442.042 940.858 443.5 940.858 445.211C940.858 446.9 940.211 448.356 938.916 449.582C937.644 450.785 936.105 451.387 934.301 451.387C932.496 451.387 930.947 450.785 929.651 449.582C928.379 448.356 927.743 446.9 927.743 445.211C927.743 443.5 928.379 442.042 929.651 440.839C930.947 439.613 932.496 439 934.301 439Z" fill="white"/>
<path fill-rule="evenodd" clip-rule="evenodd" d="M1694.49 458.916C1697.79 458.916 1700.47 459.471 1702.5 460.581C1704.54 461.668 1706.12 462.941 1707.26 464.398C1708.41 465.855 1709.3 467.14 1709.93 468.25H1710.69V459.61H1720.86V514.085C1720.86 518.665 1719.79 522.425 1717.67 525.363C1715.54 528.3 1712.66 530.474 1709.03 531.885C1705.42 533.296 1701.35 534.001 1696.81 534.001C1692.58 534.001 1688.94 533.446 1685.88 532.336C1682.85 531.225 1680.38 529.757 1678.46 527.93C1676.54 526.102 1675.1 524.102 1674.16 521.928L1683.07 518.249C1683.7 519.267 1684.53 520.343 1685.57 521.477C1686.63 522.633 1688.07 523.616 1689.87 524.425C1691.7 525.235 1694.05 525.64 1696.92 525.64C1700.85 525.639 1704.1 524.68 1706.67 522.76C1709.23 520.863 1710.52 517.833 1710.52 513.669V503.19H1709.86C1709.23 504.324 1708.33 505.585 1707.15 506.973C1706 508.361 1704.4 509.563 1702.36 510.58C1700.33 511.598 1697.68 512.107 1694.42 512.107C1690.21 512.107 1686.41 511.125 1683.04 509.158C1679.68 507.169 1677.02 504.243 1675.06 500.38C1673.11 496.494 1672.14 491.717 1672.14 486.05C1672.14 480.384 1673.1 475.525 1675.02 471.478C1676.96 467.43 1679.63 464.328 1683 462.177C1686.38 460.003 1690.21 458.916 1694.49 458.916ZM1696.71 467.73C1693.59 467.73 1690.98 468.54 1688.9 470.159C1686.82 471.755 1685.25 473.928 1684.18 476.681C1683.14 479.433 1682.62 482.51 1682.62 485.91C1682.62 489.403 1683.15 492.469 1684.22 495.106C1685.28 497.743 1686.85 499.801 1688.94 501.282C1691.04 502.762 1693.63 503.502 1696.71 503.503C1699.69 503.503 1702.21 502.808 1704.27 501.42C1706.35 500.009 1707.93 497.997 1708.99 495.383C1710.08 492.746 1710.62 489.588 1710.62 485.91C1710.62 482.325 1710.09 479.169 1709.03 476.439C1707.96 473.71 1706.4 471.581 1704.34 470.054C1702.28 468.504 1699.74 467.73 1696.71 467.73Z" fill="#D4FF00"/>
<path fill-rule="evenodd" clip-rule="evenodd" d="M1278.13 458.916C1283.12 458.916 1287.48 460.062 1291.21 462.351C1294.93 464.641 1297.82 467.857 1299.88 471.998C1301.94 476.138 1302.97 480.973 1302.97 486.501C1302.97 492.006 1301.94 496.818 1299.88 500.936C1297.82 505.053 1294.93 508.257 1291.21 510.547C1287.48 512.836 1283.12 513.982 1278.13 513.982C1273.13 513.982 1268.77 512.837 1265.05 510.547C1261.32 508.257 1258.43 505.053 1256.37 500.936C1254.31 496.818 1253.28 492.006 1253.28 486.501C1253.28 480.973 1254.31 476.138 1256.37 471.998C1258.43 467.857 1261.32 464.641 1265.05 462.351C1268.77 460.061 1273.13 458.916 1278.13 458.916ZM1278.16 467.59C1274.9 467.59 1272.19 468.458 1270.04 470.192C1267.91 471.927 1266.33 474.23 1265.29 477.098C1264.27 479.943 1263.76 483.066 1263.76 486.466C1263.76 489.889 1264.27 493.024 1265.29 495.869C1266.33 498.714 1267.91 500.992 1270.04 502.704C1272.19 504.415 1274.9 505.272 1278.16 505.272C1281.4 505.272 1284.08 504.415 1286.21 502.704C1288.34 500.992 1289.91 498.714 1290.93 495.869C1291.97 493.024 1292.49 489.889 1292.49 486.466C1292.49 483.066 1291.97 479.943 1290.93 477.098C1289.91 474.23 1288.34 471.927 1286.21 470.192C1284.08 468.458 1281.4 467.59 1278.16 467.59Z" fill="#D4FF00"/>
<path fill-rule="evenodd" clip-rule="evenodd" d="M1372.38 458.916C1375.39 458.916 1378.3 459.414 1381.13 460.409C1383.95 461.404 1386.48 462.964 1388.72 465.092C1390.97 467.22 1392.74 469.986 1394.03 473.386C1395.33 476.763 1395.98 480.868 1395.98 485.702V489.381H1358.1C1358.18 492.629 1358.8 495.416 1359.96 497.742C1361.23 500.24 1363 502.149 1365.27 503.467C1367.54 504.762 1370.18 505.411 1373.21 505.411C1375.18 505.411 1376.97 505.134 1378.59 504.578C1380.21 504 1381.61 503.145 1382.79 502.011C1383.97 500.878 1384.87 499.478 1385.5 497.813L1395.32 499.581C1394.53 502.473 1393.12 505.006 1391.08 507.181C1389.07 509.332 1386.54 511.009 1383.49 512.212C1380.46 513.391 1377 513.982 1373.11 513.982C1367.86 513.982 1363.34 512.86 1359.54 510.616C1355.77 508.349 1352.86 505.168 1350.8 501.074C1348.77 496.957 1347.75 492.133 1347.75 486.604C1347.75 481.145 1348.77 476.333 1350.8 472.17C1352.86 468.007 1355.73 464.757 1359.41 462.42C1363.11 460.084 1367.43 458.916 1372.38 458.916ZM1372.45 467.487C1369.54 467.487 1366.99 468.204 1364.82 469.639C1362.67 471.049 1361 472.9 1359.82 475.19C1358.81 477.178 1358.24 479.318 1358.11 481.609H1385.81C1385.81 478.879 1385.25 476.462 1384.14 474.357C1383.03 472.229 1381.47 470.552 1379.46 469.326C1377.47 468.1 1375.13 467.487 1372.45 467.487Z" fill="#D4FF00"/>
<path d="M1453.12 458.916C1458.88 458.916 1463.42 460.166 1466.72 462.664C1470.03 465.139 1472.22 468.459 1473.28 472.623L1463.88 474.288C1463.49 473.085 1462.86 471.94 1462.01 470.853C1461.17 469.766 1460.04 468.875 1458.61 468.181C1457.17 467.487 1455.38 467.139 1453.23 467.139C1450.29 467.139 1447.84 467.798 1445.87 469.117C1443.9 470.412 1442.92 472.091 1442.92 474.149C1442.92 475.93 1443.58 477.364 1444.9 478.451C1446.22 479.538 1448.35 480.428 1451.28 481.122L1459.75 483.066C1464.65 484.2 1468.31 485.946 1470.71 488.305C1473.12 490.664 1474.32 493.73 1474.32 497.501C1474.32 500.692 1473.4 503.538 1471.55 506.036C1469.72 508.511 1467.16 510.453 1463.88 511.864C1460.62 513.275 1456.84 513.982 1452.53 513.982C1446.57 513.982 1441.7 512.709 1437.92 510.165C1434.15 507.597 1431.84 503.954 1430.99 499.235L1441.01 497.708C1441.64 500.322 1442.92 502.299 1444.87 503.641C1446.81 504.959 1449.34 505.619 1452.46 505.619C1455.86 505.619 1458.58 504.914 1460.62 503.503C1462.65 502.069 1463.67 500.322 1463.67 498.264C1463.67 496.599 1463.05 495.199 1461.8 494.066C1460.57 492.932 1458.69 492.075 1456.14 491.497L1447.12 489.519C1442.15 488.386 1438.47 486.581 1436.09 484.107C1433.73 481.631 1432.55 478.497 1432.55 474.703C1432.55 471.557 1433.43 468.804 1435.18 466.445C1436.94 464.086 1439.37 462.248 1442.47 460.929C1445.57 459.588 1449.12 458.916 1453.12 458.916Z" fill="#D4FF00"/>
<path fill-rule="evenodd" clip-rule="evenodd" d="M1507.97 458.916C1510.98 458.916 1513.89 459.415 1516.71 460.409C1519.54 461.404 1522.07 462.964 1524.31 465.092C1526.56 467.22 1528.33 469.986 1529.62 473.386C1530.92 476.763 1531.57 480.868 1531.57 485.702V489.381H1493.68C1493.76 492.629 1494.39 495.416 1495.55 497.742C1496.82 500.24 1498.59 502.149 1500.86 503.467C1503.13 504.762 1505.77 505.411 1508.8 505.411C1510.77 505.411 1512.56 505.133 1514.18 504.578C1515.8 504 1517.2 503.144 1518.38 502.011C1519.56 500.878 1520.46 499.478 1521.09 497.813L1530.91 499.581C1530.12 502.473 1528.71 505.006 1526.67 507.181C1524.66 509.332 1522.13 511.009 1519.07 512.212C1516.04 513.391 1512.59 513.982 1508.7 513.982C1503.45 513.982 1498.93 512.86 1495.13 510.616C1491.36 508.349 1488.45 505.168 1486.39 501.074C1484.35 496.957 1483.34 492.133 1483.34 486.604C1483.34 481.145 1484.35 476.333 1486.39 472.17C1488.45 468.007 1491.32 464.757 1494.99 462.42C1498.7 460.084 1503.02 458.916 1507.97 458.916ZM1508.04 467.487C1505.13 467.487 1502.58 468.204 1500.41 469.639C1498.26 471.05 1496.59 472.9 1495.41 475.19C1494.4 477.178 1493.83 479.318 1493.7 481.609H1521.4C1521.4 478.879 1520.84 476.462 1519.73 474.357C1518.62 472.229 1517.06 470.552 1515.05 469.326C1513.06 468.1 1510.72 467.487 1508.04 467.487Z" fill="#D4FF00"/>
<path d="M1741.61 499.721C1743.5 499.721 1745.13 500.403 1746.5 501.768C1747.86 503.11 1748.55 504.729 1748.55 506.625C1748.55 507.897 1748.22 509.065 1747.57 510.129C1746.95 511.17 1746.12 512.003 1745.08 512.627C1744.04 513.252 1742.88 513.565 1741.61 513.565C1739.71 513.564 1738.08 512.895 1736.71 511.553C1735.35 510.188 1734.67 508.545 1734.67 506.625C1734.67 504.729 1735.35 503.11 1736.71 501.768C1738.08 500.403 1739.71 499.721 1741.61 499.721Z" fill="#D4FF00"/>
<path d="M1204.46 497.083H1205.29L1227.91 441.846H1240.92V512.906H1230.72V461.483H1230.06L1209.1 512.801H1200.64L1179.68 461.449H1179.02V512.906H1168.82V441.846H1181.83L1204.46 497.083Z" fill="#D4FF00"/>
<path d="M1338.67 458.811C1339.31 458.811 1340.08 458.836 1340.96 458.882C1341.86 458.929 1342.56 458.985 1343.07 459.055V468.978C1342.65 468.862 1341.91 468.735 1340.85 468.596C1339.79 468.435 1338.72 468.353 1337.66 468.353C1335.21 468.353 1333.02 468.875 1331.1 469.915C1329.2 470.933 1327.7 472.356 1326.59 474.183C1325.48 475.987 1324.93 478.046 1324.93 480.359V512.906H1314.55V459.61H1324.58V468.076H1325.13C1326.1 465.208 1327.82 462.953 1330.27 461.311C1332.74 459.646 1335.54 458.811 1338.67 458.811Z" fill="#D4FF00"/>
<path d="M1553.45 512.906H1543.08V441.846H1553.45V512.906Z" fill="#D4FF00"/>
<path d="M1577.78 512.906H1567.41V441.846H1577.78V512.906Z" fill="#D4FF00"/>
<path d="M1602.11 512.906H1591.74V459.61H1602.11V512.906Z" fill="#D4FF00"/>
<path d="M1642.41 458.916C1646.04 458.916 1649.22 459.68 1651.95 461.206C1654.68 462.71 1656.8 464.954 1658.3 467.938C1659.8 470.922 1660.55 474.612 1660.55 479.006V512.906H1650.18V480.256C1650.18 476.393 1649.17 473.373 1647.16 471.199C1645.15 469.002 1642.38 467.902 1638.87 467.902C1636.46 467.902 1634.32 468.424 1632.45 469.465C1630.6 470.505 1629.13 472.032 1628.04 474.045C1626.98 476.034 1626.45 478.439 1626.45 481.261V512.906H1616.07V459.61H1626.03V468.284H1626.69C1627.92 465.462 1629.83 463.195 1632.45 461.483C1635.08 459.771 1638.41 458.916 1642.41 458.916Z" fill="#D4FF00"/>
<path d="M1596.98 439C1598.78 439 1600.32 439.613 1601.59 440.839C1602.89 442.042 1603.54 443.5 1603.54 445.211C1603.54 446.9 1602.89 448.356 1601.59 449.582C1600.32 450.785 1598.78 451.387 1596.98 451.387C1595.17 451.387 1593.63 450.785 1592.33 449.582C1591.06 448.356 1590.42 446.9 1590.42 445.211C1590.42 443.5 1591.06 442.042 1592.33 440.839C1593.63 439.613 1595.17 439 1596.98 439Z" fill="#D4FF00"/>
<g clip-path="url(#clip2_72_448)">
<path fill-rule="evenodd" clip-rule="evenodd" d="M2053.57 371.323H2026.22L2014.5 336.444H1961.32L1949.63 371.323H1922.27L1972.07 229.876H2003.7L2053.57 371.323ZM1968.22 315.863H2007.58L1988.44 258.883H1987.33L1968.22 315.863Z" fill="#D4FF00"/>
<path d="M2095 371.323H2069.38V229.876H2095V371.323Z" fill="#D4FF00"/>
<path d="M659.517 228.665H695.382L740.854 155.736H802.336L737.011 256.173L810.022 371.323H749.179L695.382 283.681H659.517V371.323H607V92.4033H659.517V228.665Z" fill="white"/>
<path fill-rule="evenodd" clip-rule="evenodd" d="M1459.11 155.096H1534.6C1586.42 155.096 1631.84 202.931 1631.84 263.21C1631.84 322.275 1589.06 366.924 1534.6 371.323H1405.38V92.4033H1459.11V155.096ZM1459.11 208.833V318.602C1473.86 319.094 1497.37 318.725 1533.96 318.725C1553.79 317.445 1578.74 295.196 1578.74 263.209C1578.74 228.443 1552.51 208.833 1533.96 208.833C1509.01 208.833 1484.06 208.833 1459.11 208.833Z" fill="white"/>
<path fill-rule="evenodd" clip-rule="evenodd" d="M919.825 149.979C983.068 149.979 1034.34 201.247 1034.34 264.489C1034.34 327.732 983.068 379 919.825 379C856.583 379 805.315 327.732 805.315 264.489C805.315 201.247 856.583 149.979 919.825 149.979ZM919.825 203.715C885.554 203.715 859.052 230.218 859.052 264.489C859.052 298.76 885.554 325.263 919.825 325.263C954.097 325.263 980.599 298.76 980.599 264.489C980.599 230.218 954.097 203.715 919.825 203.715Z" fill="white"/>
<path fill-rule="evenodd" clip-rule="evenodd" d="M1764.26 149.979C1827.5 149.979 1878.77 201.247 1878.77 264.489C1878.77 327.732 1827.5 379 1764.26 379C1701.02 379 1649.75 327.732 1649.75 264.489C1649.75 201.247 1701.02 149.979 1764.26 149.979ZM1764.26 203.715C1729.99 203.715 1703.49 230.218 1703.49 264.489C1703.49 298.76 1729.99 325.263 1764.26 325.263C1798.53 325.263 1825.04 298.76 1825.04 264.489C1825.04 230.218 1798.53 203.715 1764.26 203.715Z" fill="white"/>
<path d="M1377.23 371.323H1323.49V236.981C1323.49 218.609 1305.45 203.715 1283.19 203.715C1260.93 203.715 1242.89 218.609 1242.89 236.981V371.323H1189.15V236.981C1189.15 218.609 1171.11 203.715 1148.85 203.715C1126.59 203.715 1108.54 218.609 1108.54 236.981V371.323H1054.81V236.981C1054.76 235.92 1054.81 234.853 1054.81 233.782C1054.81 188.912 1096.91 152.537 1148.85 152.537C1175.16 152.537 1198.95 161.874 1216.02 176.923C1233.09 161.874 1256.88 152.537 1283.19 152.537C1335.13 152.537 1377.23 188.912 1377.23 233.782C1377.23 234.853 1377.28 235.92 1377.23 236.981V371.323Z" fill="white"/>
</g>
</g>
<defs>
<clipPath id="clip0_72_448">
<rect width="2095" height="562" fill="white"/>
</clipPath>
<clipPath id="clip1_72_448">
<rect width="527" height="562" fill="white"/>
</clipPath>
<clipPath id="clip2_72_448">
<rect width="1488" height="286.597" fill="white" transform="translate(607 92.4033)"/>
</clipPath>
</defs>
</svg>
